<svg width="123" height="123" viewBox="0 0 123 123" fill="none" xmlns="http://www.w3.org/2000/svg">
<path d="M0 122.199V111.655H3.87994C4.60823 111.655 5.22696 111.72 5.74257 111.855C6.25173 111.99 6.67066 112.177 6.99291 112.429C7.31517 112.674 7.55363 112.977 7.69543 113.325C7.84366 113.679 7.91456 114.072 7.91456 114.504C7.91456 114.742 7.88233 114.968 7.81144 115.187C7.74054 115.406 7.63742 115.613 7.49563 115.806C7.35384 115.999 7.16693 116.173 6.93491 116.328C6.70933 116.483 6.43864 116.624 6.11638 116.734C6.81245 116.902 7.32806 117.179 7.65676 117.553C7.98545 117.926 8.15303 118.416 8.15303 119.009C8.15303 119.46 8.06924 119.873 7.89522 120.259C7.72121 120.646 7.46985 120.981 7.1347 121.271C6.79956 121.561 6.38707 121.781 5.8908 121.942C5.40098 122.103 4.83381 122.187 4.20219 122.187H0V122.199ZM2.44913 116.096H3.72526C3.99595 116.096 4.24086 116.077 4.45355 116.038C4.67268 115.999 4.85314 115.935 5.00783 115.838C5.16251 115.741 5.27208 115.606 5.35586 115.439C5.4332 115.271 5.47187 115.058 5.47187 114.8C5.47187 114.549 5.43965 114.343 5.3752 114.175C5.31075 114.008 5.21407 113.872 5.08517 113.776C4.95627 113.673 4.78869 113.602 4.5889 113.557C4.3891 113.511 4.15063 113.492 3.87349 113.492H2.44269V116.096H2.44913ZM2.44913 117.733V120.363H4.16997C4.49222 120.363 4.75647 120.324 4.96271 120.24C5.16895 120.156 5.33008 120.053 5.44609 119.924C5.5621 119.795 5.63945 119.647 5.68456 119.48C5.72968 119.318 5.74901 119.151 5.74901 118.983C5.74901 118.79 5.72323 118.616 5.67167 118.461C5.62011 118.307 5.53632 118.178 5.41387 118.068C5.29141 117.965 5.13028 117.881 4.92404 117.823C4.72424 117.765 4.46644 117.739 4.15708 117.739H2.44913V117.733Z" fill="#585E50"/>
<path d="M14.8365 118.3V122.199H12.3938V111.655H15.8226C16.5831 111.655 17.2341 111.733 17.7754 111.887C18.3104 112.042 18.7551 112.261 19.0902 112.545C19.4318 112.822 19.6767 113.157 19.8314 113.537C19.9861 113.918 20.0634 114.336 20.0634 114.781C20.0634 115.123 20.0183 115.445 19.9281 115.748C19.8379 116.051 19.7025 116.334 19.5221 116.592C19.3416 116.85 19.116 117.082 18.8582 117.282C18.594 117.482 18.291 117.649 17.9495 117.778C18.1106 117.862 18.2653 117.965 18.4071 118.081C18.5489 118.203 18.6713 118.352 18.7809 118.526L21.0238 122.193H18.8067C18.3942 122.193 18.1041 122.038 17.9237 121.729L16.1706 118.668C16.0933 118.532 16.003 118.436 15.8999 118.378C15.7968 118.32 15.6486 118.294 15.4617 118.294H14.8365V118.3ZM14.8365 116.618H15.8226C16.1577 116.618 16.4413 116.573 16.6733 116.489C16.9054 116.405 17.0987 116.289 17.2469 116.141C17.3952 115.993 17.5047 115.819 17.5692 115.619C17.6401 115.419 17.6723 115.2 17.6723 114.975C17.6723 114.51 17.5241 114.15 17.2212 113.892C16.9182 113.634 16.4542 113.499 15.8226 113.499H14.8365V116.618Z" fill="#585E50"/>
<path d="M34.7262 122.199H32.8313C32.6186 122.199 32.4446 122.148 32.3093 122.051C32.1739 121.955 32.0773 121.826 32.0257 121.671L31.4005 119.834H27.3917L26.7665 121.671C26.7214 121.806 26.6247 121.929 26.4829 122.038C26.3411 122.148 26.1736 122.199 25.9673 122.199H24.0596L28.1393 111.655H30.64L34.7262 122.199ZM27.9524 118.171H30.8333L29.8666 115.284C29.8021 115.103 29.7312 114.884 29.6475 114.639C29.5637 114.388 29.4799 114.124 29.3961 113.834C29.3188 114.13 29.2414 114.401 29.1576 114.652C29.0738 114.904 28.9965 115.123 28.9256 115.303L27.9524 118.171Z" fill="#585E50"/>
<path d="M40.0303 111.675C40.1012 111.681 40.1657 111.7 40.2237 111.726C40.2817 111.752 40.3397 111.791 40.3912 111.836C40.4428 111.887 40.5073 111.952 40.5717 112.029L45.5795 118.358C45.5602 118.158 45.5473 117.959 45.5344 117.765C45.5215 117.572 45.5215 117.398 45.5215 117.224V111.642H47.6806V122.187H46.4045C46.2176 122.187 46.0565 122.161 45.9276 122.103C45.7987 122.045 45.6698 121.942 45.5537 121.787L40.5846 115.503C40.5975 115.683 40.6104 115.864 40.6233 116.044C40.6361 116.218 40.6362 116.386 40.6362 116.541V122.193H38.4771V111.649H39.7661C39.8692 111.662 39.953 111.662 40.0303 111.675Z" fill="#585E50"/>
<path d="M61.8727 116.927C61.8727 117.688 61.7438 118.39 61.4796 119.035C61.2153 119.679 60.8479 120.234 60.371 120.704C59.8941 121.175 59.3204 121.542 58.6437 121.806C57.9734 122.071 57.2258 122.199 56.4008 122.199H52.3018V111.655H56.4008C57.2194 111.655 57.967 111.791 58.6437 112.055C59.314 112.319 59.8941 112.686 60.371 113.157C60.8479 113.627 61.2217 114.182 61.4796 114.826C61.7438 115.471 61.8727 116.167 61.8727 116.927ZM59.372 116.927C59.372 116.405 59.3076 115.935 59.1722 115.516C59.0369 115.097 58.8435 114.742 58.5922 114.446C58.3408 114.156 58.0314 113.93 57.6641 113.776C57.2967 113.621 56.8778 113.537 56.4137 113.537H54.7767V120.317H56.4137C56.8842 120.317 57.2967 120.24 57.6641 120.079C58.0314 119.924 58.3408 119.699 58.5922 119.409C58.8435 119.119 59.0369 118.764 59.1722 118.339C59.3011 117.926 59.372 117.456 59.372 116.927Z" fill="#585E50"/>
<path d="M73.1839 111.675C73.2548 111.681 73.3192 111.7 73.3772 111.726C73.4352 111.752 73.4932 111.791 73.5448 111.836C73.5964 111.887 73.6608 111.952 73.7253 112.029L78.7331 118.358C78.7138 118.158 78.7009 117.959 78.688 117.765C78.6751 117.572 78.6751 117.398 78.6751 117.224V111.642H80.8342V122.187H79.5581C79.3712 122.187 79.21 122.161 79.0811 122.103C78.9522 122.045 78.8233 121.942 78.7073 121.787L73.7382 115.503C73.751 115.683 73.7639 115.864 73.7768 116.044C73.7897 116.218 73.7897 116.386 73.7897 116.541V122.193H71.6306V111.649H72.9196C73.0228 111.662 73.113 111.662 73.1839 111.675Z" fill="#585E50"/>
<path d="M95.2777 122.199H93.3828C93.1702 122.199 92.9961 122.148 92.8608 122.051C92.7254 121.955 92.6288 121.826 92.5772 121.671L91.952 119.834H87.9432L87.318 121.671C87.2729 121.806 87.1762 121.929 87.0344 122.038C86.8926 122.148 86.7251 122.199 86.5188 122.199H84.6111L88.6908 111.655H91.1915L95.2777 122.199ZM88.5039 118.171H91.3849L90.4181 115.284C90.3536 115.103 90.2828 114.884 90.199 114.639C90.1152 114.388 90.0314 114.124 89.9476 113.834C89.8703 114.13 89.7929 114.401 89.7091 114.652C89.6253 114.904 89.548 115.123 89.4771 115.303L88.5039 118.171Z" fill="#585E50"/>
<path d="M104.7 117.952C104.79 118.152 104.874 118.352 104.958 118.558C105.042 118.345 105.126 118.139 105.216 117.939C105.306 117.739 105.403 117.546 105.499 117.359L108.206 112.029C108.251 111.939 108.303 111.868 108.355 111.816C108.406 111.765 108.464 111.726 108.522 111.707C108.587 111.681 108.658 111.668 108.735 111.668C108.812 111.668 108.909 111.668 109.012 111.668H110.881V122.206H108.722V116.141C108.722 115.845 108.735 115.529 108.767 115.187L105.976 120.608C105.893 120.775 105.77 120.904 105.628 120.988C105.48 121.072 105.313 121.117 105.126 121.117H104.79C104.604 121.117 104.436 121.072 104.288 120.988C104.14 120.904 104.023 120.775 103.94 120.608L101.13 115.181C101.149 115.348 101.162 115.516 101.175 115.683C101.181 115.851 101.188 116.006 101.188 116.141V122.206H99.0286V111.668H100.898C101.001 111.668 101.097 111.668 101.175 111.668C101.252 111.668 101.323 111.681 101.387 111.707C101.452 111.733 101.503 111.771 101.555 111.816C101.607 111.868 101.658 111.939 101.703 112.029L104.417 117.385C104.52 117.565 104.61 117.752 104.7 117.952Z" fill="#585E50"/>
<path d="M122.302 111.662V113.544H117.977V116.006H121.29V117.817H117.977V120.33H122.302V122.212H115.515V111.668H122.302V111.662Z" fill="#585E50"/>
<path d="M101.149 30.5569L60.9252 100.228L20.7015 30.5569H101.149ZM103.147 26.6125H18.6971C16.5444 26.6125 15.2038 28.9392 16.2802 30.8018L58.5019 103.934C59.0368 104.862 59.9778 105.333 60.9188 105.333C61.8598 105.333 62.8008 104.869 63.3357 103.934L105.557 30.8018C106.64 28.9392 105.3 26.6125 103.147 26.6125Z" fill="#9BA095"/>
<path d="M60.9252 0.606628L13.8633 82.1176H107.987L60.9252 0.606628ZM49.4723 32.0586L52.1342 36.6668L39.2504 58.9862L36.5886 54.3779L49.4723 32.0586ZM41.1453 62.2796L54.029 39.9603L75.2398 76.6908H49.4723L41.1453 62.2796Z" fill="#7A7F73"/>
</svg>
