<svg width="181" height="129" viewBox="0 0 181 129" fill="none" xmlns="http://www.w3.org/2000/svg">
<path d="M37.1078 63.8068C30.3971 63.8068 24.916 58.3176 24.916 51.6149C24.916 44.9042 30.4052 39.4231 37.1078 39.4231C43.8186 39.4231 49.2997 44.9122 49.2997 51.6149C49.2997 58.3257 43.8105 63.8068 37.1078 63.8068Z" fill="#AD7E73"/>
<path d="M127.096 35.5253C127.096 16.1164 111.216 0.235657 91.8067 0.235657C72.3978 0.235657 56.5171 16.1164 56.5171 35.5253V87.0974C56.5171 87.0974 127.088 79.2374 127.096 35.5253Z" fill="#D4B2A6"/>
<path d="M0.195312 104.023C0.195312 117.533 11.2459 128.583 24.7477 128.583C38.2496 128.583 49.3002 117.533 49.3002 104.031V68.1466C49.3002 68.1466 0.203349 73.6197 0.195312 104.023ZM24.7477 110.476C21.1955 110.476 18.2942 107.575 18.2942 104.023C18.2942 100.471 21.1955 97.5693 24.7477 97.5693C28.3 97.5693 31.2013 100.471 31.2013 104.023C31.2013 107.575 28.3 110.476 24.7477 110.476Z" fill="#C6998B"/>
<path d="M61.1225 113.265C59.8125 112.558 58.7918 111.57 58.0524 110.316C57.3131 109.062 56.9434 107.648 56.9434 106.072C56.9434 104.497 57.3211 103.083 58.0685 101.829C58.8159 100.575 59.8446 99.5947 61.1546 98.8794C62.4646 98.1722 63.9273 97.8105 65.5427 97.8105C66.8608 97.8105 68.0583 98.0436 69.1432 98.5017C70.2282 98.9598 71.1444 99.6269 71.8918 100.495L69.963 102.303C68.7976 101.049 67.3751 100.423 65.6713 100.423C64.5703 100.423 63.5818 100.664 62.7138 101.146C61.8458 101.628 61.1627 102.295 60.6724 103.155C60.1822 104.015 59.9411 104.979 59.9411 106.064C59.9411 107.149 60.1822 108.122 60.6724 108.974C61.1627 109.834 61.8458 110.501 62.7138 110.983C63.5818 111.465 64.5703 111.706 65.6713 111.706C67.3671 111.706 68.7976 111.071 69.963 109.801L71.8918 111.634C71.1444 112.502 70.2202 113.169 69.1272 113.627C68.0341 114.085 66.8286 114.318 65.5186 114.318C63.8872 114.334 62.4245 113.981 61.1225 113.265Z" fill="#AD7E73"/>
<path d="M77.4854 113.265C76.1674 112.558 75.1387 111.57 74.3913 110.308C73.6438 109.046 73.2661 107.64 73.2661 106.08C73.2661 104.521 73.6438 103.107 74.3913 101.853C75.1387 100.591 76.1754 99.6027 77.4854 98.8955C78.8035 98.1883 80.2742 97.8266 81.9137 97.8266C83.5532 97.8266 85.024 98.1802 86.342 98.8955C87.66 99.6027 88.6887 100.591 89.4362 101.845C90.1836 103.099 90.5613 104.513 90.5613 106.088C90.5613 107.664 90.1836 109.078 89.4362 110.332C88.6887 111.586 87.652 112.566 86.342 113.281C85.024 113.989 83.5532 114.35 81.9137 114.35C80.2742 114.334 78.7954 113.981 77.4854 113.265ZM84.7989 110.999C85.6589 110.517 86.3259 109.842 86.8162 108.982C87.3064 108.122 87.5475 107.149 87.5475 106.08C87.5475 105.011 87.3064 104.047 86.8162 103.179C86.3259 102.319 85.6508 101.644 84.7989 101.162C83.947 100.68 82.9826 100.439 81.9057 100.439C80.8368 100.439 79.8724 100.68 79.0205 101.162C78.1686 101.644 77.4935 102.319 77.0032 103.179C76.513 104.047 76.2719 105.011 76.2719 106.08C76.2719 107.149 76.513 108.122 77.0032 108.982C77.4935 109.85 78.1686 110.517 79.0205 110.999C79.8804 111.481 80.8368 111.722 81.9057 111.722C82.9746 111.722 83.939 111.481 84.7989 110.999Z" fill="#AD7E73"/>
<path d="M108.459 114.109L108.435 103.468L103.163 112.277H101.829L96.5565 103.605V114.109H93.7114V98.0596H96.1627L102.536 108.7L108.797 98.0596H111.248L111.272 114.109H108.459Z" fill="#AD7E73"/>
<path d="M125.859 98.7428C126.887 99.2009 127.683 99.8599 128.229 100.712C128.784 101.572 129.057 102.584 129.057 103.758C129.057 104.923 128.784 105.936 128.229 106.796C127.683 107.664 126.887 108.323 125.859 108.781C124.83 109.239 123.616 109.472 122.226 109.472H118.601V114.101H115.62V98.0516H122.226C123.616 98.0516 124.822 98.2847 125.859 98.7428ZM125.039 106.129C125.714 105.582 126.043 104.795 126.043 103.766C126.043 102.745 125.706 101.958 125.039 101.403C124.364 100.856 123.383 100.575 122.081 100.575H118.593V106.948H122.081C123.383 106.948 124.372 106.675 125.039 106.129Z" fill="#AD7E73"/>
<path d="M141.643 110.388H133.614L132.031 114.101H128.961L136.186 98.0516H139.119L146.369 114.101H143.25L141.643 110.388ZM140.663 108.049L137.633 101.033L134.627 108.049H140.663Z" fill="#AD7E73"/>
<path d="M162.675 98.0516V114.101H160.224L151.376 103.227V114.101H148.418V98.0516H150.869L159.718 108.925V98.0516H162.675Z" fill="#AD7E73"/>
<path d="M173.911 108.443V114.109H170.929V108.491L164.62 98.0596H167.811L172.512 105.879L177.262 98.0596H180.195L173.911 108.443Z" fill="#AD7E73"/>
</svg>
