<svg width="285" height="95" viewBox="0 0 285 95" fill="none" xmlns="http://www.w3.org/2000/svg">
<g clip-path="url(#clip0_65_4754)">
<path d="M17.9175 27.2061V25.0865H21.3548V2.84153H17.9175V0.721898H22.8725C23.4082 0.721898 23.8992 0.699586 24.3903 0.677274C24.859 0.654963 25.3724 0.632651 25.9081 0.610339C26.4437 0.588027 27.0241 0.565715 27.6267 0.543403C28.2517 0.521091 28.9436 0.498779 29.6801 0.498779C30.7961 0.498779 31.9345 0.588027 33.0951 0.74421C34.2557 0.900393 35.3048 1.21276 36.2422 1.68131C37.1797 2.12755 37.9385 2.77459 38.5412 3.60013C39.1438 4.42567 39.434 5.49664 39.434 6.81304C39.434 7.50471 39.3224 8.17407 39.0769 8.82111C38.8313 9.49047 38.4742 10.0929 38.0055 10.6507C37.5368 11.2085 36.9565 11.6993 36.2422 12.1233C35.528 12.5472 34.7245 12.8819 33.787 13.0827V13.2389C34.6129 13.3727 35.461 13.5735 36.2869 13.8859C37.1127 14.1983 37.8716 14.5999 38.5412 15.1131C39.2108 15.6262 39.7465 16.2733 40.1482 17.0096C40.55 17.7682 40.7509 18.6607 40.7509 19.7316C40.7509 21.0927 40.4161 22.2529 39.7465 23.2346C39.0769 24.2163 38.2064 25.0195 37.1127 25.6443C36.019 26.269 34.7914 26.7376 33.4299 27.0276C32.0461 27.3177 30.6622 27.4515 29.2337 27.4515C28.2517 27.4515 27.1357 27.4069 25.9081 27.34C24.6804 27.273 23.4975 27.2284 22.3592 27.2284H17.9175V27.2061ZM27.649 12.8373C28.1624 12.8373 28.7204 12.8149 29.323 12.7703C29.948 12.7257 30.4613 12.6811 30.8854 12.6364C32.2023 12.2348 33.229 11.5655 34.0325 10.673C34.8137 9.78053 35.2155 8.70956 35.2155 7.4824C35.2155 5.80901 34.6798 4.58186 33.6308 3.77863C32.5594 2.99771 31.1309 2.5961 29.323 2.5961C28.4749 2.5961 27.7383 2.61841 27.1356 2.66303C26.533 2.70766 26.042 2.75228 25.6402 2.7969V12.8373H27.649ZM29.5462 25.3319C30.5283 25.3319 31.4434 25.198 32.2916 24.9303C33.1397 24.6626 33.8763 24.2833 34.4789 23.8147C35.0816 23.3462 35.5503 22.766 35.9074 22.0967C36.2422 21.4273 36.4208 20.691 36.4208 19.8878C36.4208 18.8838 36.2199 18.0359 35.7958 17.3666C35.3717 16.6972 34.8137 16.1617 34.1218 15.7824C33.4299 15.3808 32.6041 15.1131 31.6889 14.9792C30.7515 14.823 29.7694 14.7561 28.7427 14.7561H25.6402V25.0195C26.0196 25.1088 26.4884 25.198 27.0241 25.265C27.5374 25.2873 28.3856 25.3319 29.5462 25.3319Z" fill="#78B1BD"/>
<path d="M61.2181 25.0865H64.5215V27.2061H53.54V25.0865H56.9773V2.84154H53.54V0.721912H57.3568C58.4951 0.721912 59.7227 0.677289 61.0619 0.565729C62.4011 0.45417 63.718 0.409546 65.0125 0.409546C66.3964 0.409546 67.7133 0.565729 68.9409 0.855784C70.1685 1.14584 71.2175 1.59208 72.1103 2.1945C73.0031 2.79692 73.695 3.57783 74.2084 4.51493C74.7217 5.45203 74.9896 6.58994 74.9896 7.90634C74.9896 9.73592 74.4316 11.2754 73.3156 12.5472C72.1996 13.819 70.7265 14.7338 68.8962 15.247L76.4404 25.0642H78.784V27.1838H72.646L65.1018 15.7378H61.2404V25.0865H61.2181ZM64.209 13.8859C66.1509 13.8859 67.6686 13.3504 68.7623 12.2795C69.856 11.2085 70.414 9.75823 70.414 7.92865C70.414 6.05445 69.8337 4.67112 68.673 3.82327C67.5124 2.9531 65.9723 2.52918 64.0528 2.52918C63.4055 2.52918 62.8475 2.55149 62.4011 2.59611C61.9547 2.64073 61.5529 2.70767 61.1958 2.75229V13.8859H64.209Z" fill="#78B1BD"/>
<path d="M97.8901 27.2061H88.605V25.0865H91.5512L101.35 0.699585H105.367L114.34 25.0865H117.175V27.2061H106.349V25.0865H109.72L107.265 18.4152H97.1982L94.6314 25.0865H97.8901V27.2061ZM98.0687 16.3179H106.617L103.537 7.57165L102.6 3.55551H102.421L101.327 7.63858L98.0687 16.3179Z" fill="#78B1BD"/>
<path d="M147.195 0.721924H156.502V2.84155H153.065V27.6747H150.61L135.187 6.88001L133.513 3.97946H133.357L133.736 6.92463V25.1088H137.196V27.2284H127.888V25.1088H131.325V2.84155H127.888V0.721924H135.455L148.713 18.5491L150.677 21.8067H150.855L150.632 18.5491V2.84155H147.195V0.721924Z" fill="#78B1BD"/>
<path d="M168.399 27.2061V25.0865H171.836V2.84154H168.399V0.721912H173.064C173.533 0.721912 174.113 0.6996 174.738 0.677289C175.385 0.654977 176.032 0.610353 176.724 0.588041C177.416 0.543417 178.063 0.521105 178.666 0.476482C179.313 0.431858 179.827 0.409546 180.251 0.409546C182.594 0.409546 184.67 0.6996 186.456 1.30202C188.241 1.90444 189.759 2.75229 190.964 3.86789C192.17 4.98348 193.085 6.36682 193.71 8.0179C194.335 9.66898 194.647 11.5209 194.647 13.6182C194.647 15.6486 194.357 17.5005 193.777 19.1738C193.196 20.8696 192.281 22.3421 191.054 23.5916C189.826 24.8411 188.241 25.8228 186.3 26.5145C184.358 27.2061 182.059 27.5631 179.38 27.5631C178.979 27.5631 178.51 27.5408 177.974 27.4962C177.439 27.4516 176.881 27.4292 176.278 27.3846C175.675 27.34 175.095 27.3177 174.47 27.2731C173.867 27.2284 173.287 27.2061 172.774 27.2061H168.399ZM179.693 2.52918C178.979 2.52918 178.309 2.55149 177.639 2.5738C176.992 2.59611 176.456 2.64074 176.077 2.72998V25.2873C176.233 25.3096 176.479 25.3319 176.836 25.3542C177.193 25.3766 177.572 25.3766 177.997 25.3989C178.421 25.4212 178.822 25.4212 179.202 25.4435C179.581 25.4658 179.849 25.4658 180.005 25.4658C181.903 25.4658 183.465 25.1534 184.737 24.5064C186.009 23.8593 187.014 23.0115 187.795 21.9405C188.554 20.8696 189.112 19.6201 189.447 18.1921C189.759 16.7195 189.915 15.2246 189.915 13.6182C189.915 12.391 189.759 11.0969 189.447 9.80285C189.134 8.48645 188.576 7.28161 187.795 6.21064C187.014 5.11735 185.965 4.24719 184.648 3.55552C183.353 2.86385 181.679 2.52918 179.693 2.52918Z" fill="#78B1BD"/>
<path d="M108.715 91.6429H103.381V90.7058H105.099V80.8439H102.108L101.774 81.2232V83.3875H100.568V79.9291H111.527V83.3875H110.322V81.2232L109.987 80.8439H106.997V90.7058H108.715V91.6429Z" fill="#78B1BD"/>
<path d="M118.647 91.6429H114.541V90.7058H115.857L120.21 79.9068H121.995L125.968 90.7058H127.218V91.6429H122.419V90.7058H123.915L122.821 87.7606H118.357L117.219 90.7058H118.67V91.6429H118.647ZM118.737 86.8235H122.531L121.147 82.9635L120.723 81.1786H120.656L120.165 82.9858L118.737 86.8235Z" fill="#78B1BD"/>
<path d="M141.615 90.8397C141.392 90.9735 141.102 91.1074 140.811 91.219C140.521 91.3528 140.186 91.4421 139.874 91.5313C139.539 91.6206 139.204 91.6875 138.87 91.7544C138.535 91.7991 138.2 91.8437 137.887 91.8437C136.838 91.8437 135.923 91.7321 135.12 91.4867C134.316 91.2413 133.624 90.8843 133.066 90.3711C132.508 89.8802 132.084 89.2332 131.794 88.4746C131.504 87.716 131.348 86.8012 131.348 85.7749C131.348 84.6816 131.526 83.7445 131.883 82.9859C132.24 82.205 132.709 81.5802 133.29 81.1117C133.87 80.6208 134.539 80.2638 135.298 80.063C136.057 79.8399 136.816 79.7283 137.62 79.7283C138.445 79.7283 139.137 79.773 139.673 79.9068C140.209 80.0184 140.7 80.1746 141.124 80.3531V83.209H140.052V81.4463L139.807 81.1117C139.718 81.067 139.584 81.0001 139.428 80.9778C139.271 80.9332 139.115 80.9109 138.936 80.8662C138.758 80.8439 138.579 80.8216 138.401 80.7993C138.222 80.777 138.044 80.777 137.887 80.777C137.262 80.777 136.704 80.8662 136.169 81.0671C135.633 81.2455 135.164 81.5579 134.763 81.9595C134.361 82.3611 134.048 82.8743 133.825 83.499C133.602 84.1238 133.49 84.8824 133.49 85.7749C133.49 87.359 133.892 88.5862 134.673 89.4563C135.455 90.3265 136.593 90.7727 138.066 90.7727C138.445 90.7727 138.758 90.7504 139.003 90.7058C139.271 90.6612 139.494 90.5942 139.695 90.505L139.941 90.1926V87.0243H138.155V86.0872H142.798V87.0243H141.615V90.8397Z" fill="#78B1BD"/>
<path d="M148.088 80.8439V79.9068H153.311V80.8439H151.503V90.7058H155.967L156.302 90.3264V88.006H157.507V91.6205H148.11V90.6834H149.628V80.8216H148.088V80.8439Z" fill="#78B1BD"/>
<path d="M167.752 91.6429H162.819V90.7058H164.337V80.8439H162.819V79.9068H167.752V80.8439H166.234V90.7058H167.752V91.6429Z" fill="#78B1BD"/>
<path d="M181.903 79.9068H186.032V80.8439H184.514V91.8437H183.42L176.59 82.6512L175.854 81.3571H175.787L175.965 82.6735V90.7058H177.483V91.6429H173.354V90.7058H174.872V80.8439H173.354V79.9068H176.702L182.572 87.8052L183.443 89.2555H183.532L183.443 87.8052V80.8439H181.925V79.9068H181.903Z" fill="#78B1BD"/>
<path d="M200.205 79.9068V82.6512H199.134V81.2009L198.799 80.8216H194.692V85.1948H197.527L197.772 84.9493V84.2353H198.843V87.0913H197.772V86.3773L197.527 86.1095H194.692V90.6835H199.089L199.424 90.3488V88.6977H200.495V91.6206H191.299V90.6835H192.817V80.8216H191.299V79.8845H200.205V79.9068Z" fill="#78B1BD"/>
<path d="M216.655 89.9918L216.967 90.3934C217.168 90.5273 217.436 90.6611 217.793 90.7504C218.15 90.8396 218.53 90.8843 218.954 90.8843C219.356 90.8843 219.735 90.8396 220.07 90.7504C220.405 90.6611 220.717 90.5496 220.963 90.3711C221.23 90.1926 221.431 89.9918 221.565 89.724C221.699 89.4786 221.788 89.1662 221.788 88.8092C221.788 88.3407 221.632 87.9614 221.32 87.6713C221.007 87.3813 220.628 87.1135 220.181 86.8681C219.713 86.645 219.222 86.3996 218.686 86.1764C218.15 85.9533 217.659 85.6856 217.191 85.3955C216.722 85.0832 216.342 84.7262 216.052 84.3022C215.74 83.8783 215.583 83.3428 215.583 82.6958C215.583 81.7364 215.941 81.0001 216.655 80.4646C217.369 79.9291 218.351 79.6614 219.579 79.6614C220.36 79.6614 221.007 79.706 221.565 79.8176C222.123 79.9068 222.592 80.063 222.994 80.2192V83.0974H221.922V81.2901L221.655 80.8662C221.431 80.777 221.141 80.71 220.739 80.6654C220.338 80.6208 219.936 80.5985 219.556 80.5985C218.887 80.5985 218.351 80.7547 217.972 81.067C217.592 81.3794 217.391 81.8033 217.391 82.3611C217.391 82.8297 217.548 83.209 217.86 83.499C218.173 83.8114 218.552 84.0791 218.998 84.3246C219.467 84.57 219.958 84.8154 220.494 85.0385C221.03 85.2617 221.521 85.5294 221.989 85.8195C222.458 86.1095 222.837 86.4665 223.128 86.8904C223.44 87.3144 223.596 87.8275 223.596 88.43C223.596 89.5232 223.172 90.3488 222.346 90.9289C221.498 91.509 220.36 91.799 218.909 91.799C218.106 91.799 217.436 91.7098 216.856 91.5536C216.275 91.3751 215.851 91.1966 215.583 91.0181V87.9614H216.655V89.9918Z" fill="#78B1BD"/>
<path d="M229.265 80.8439V79.9068H231.006C231.52 79.9068 232.055 79.8845 232.636 79.8399C233.216 79.7953 233.796 79.7729 234.332 79.7729C234.935 79.7729 235.537 79.8399 236.14 79.9514C236.743 80.063 237.256 80.2638 237.725 80.5539C238.193 80.8439 238.551 81.2009 238.841 81.6695C239.131 82.138 239.265 82.7181 239.265 83.4098C239.265 84.0791 239.109 84.6369 238.818 85.1055C238.528 85.574 238.149 85.9757 237.68 86.2657C237.211 86.5781 236.653 86.8012 236.028 86.9351C235.403 87.0689 234.779 87.1582 234.109 87.1582C234.042 87.1582 233.93 87.1582 233.796 87.1582C233.663 87.1582 233.529 87.1582 233.372 87.1582C233.216 87.1582 233.082 87.1359 232.948 87.1359C232.814 87.1359 232.703 87.1136 232.658 87.0912V90.7058H234.332V91.6429H229.243V90.7058H230.761V80.8439H229.265ZM232.658 86.1318C232.703 86.1541 232.792 86.1765 232.926 86.1765C233.038 86.1765 233.171 86.1988 233.305 86.1988C233.439 86.2211 233.573 86.2211 233.707 86.2211C233.841 86.2211 233.93 86.2211 233.997 86.2211C234.444 86.2211 234.845 86.1765 235.225 86.0649C235.604 85.9533 235.939 85.7972 236.252 85.574C236.542 85.3509 236.765 85.0609 236.944 84.7039C237.122 84.3469 237.189 83.923 237.189 83.4098C237.189 82.495 236.899 81.8256 236.319 81.3794C235.738 80.9555 234.957 80.7324 233.975 80.7324C233.663 80.7324 233.417 80.7324 233.216 80.7547C233.015 80.777 232.837 80.7993 232.68 80.8216V86.1318H232.658Z" fill="#78B1BD"/>
<path d="M246.809 91.6429H242.702V90.7058H244.019L248.371 79.9068H250.157L254.13 90.7058H255.38V91.6429H250.581V90.7058H252.077L250.983 87.7606H246.519L245.381 90.7058H246.831V91.6429H246.809ZM246.898 86.8235H250.693L249.309 82.9635L248.885 81.1786H248.818L248.327 82.9858L246.898 86.8235Z" fill="#78B1BD"/>
<path d="M268.102 88.5638H269.174V91.1966C268.817 91.3751 268.37 91.5536 267.79 91.6652C267.21 91.7991 266.652 91.8437 266.094 91.8437C265.067 91.8437 264.152 91.7321 263.326 91.4867C262.5 91.2413 261.831 90.8843 261.25 90.3934C260.692 89.9026 260.246 89.2778 259.956 88.5192C259.666 87.7606 259.509 86.8458 259.509 85.7972C259.509 84.7039 259.688 83.7668 260 83.0082C260.335 82.2496 260.782 81.6248 261.362 81.134C261.942 80.6431 262.589 80.2861 263.348 80.063C264.085 79.8399 264.888 79.7283 265.714 79.7283C266.116 79.7283 266.473 79.7506 266.808 79.773C267.143 79.7953 267.433 79.8399 267.678 79.9068C267.946 79.9515 268.192 80.0407 268.415 80.1076C268.638 80.1969 268.861 80.2638 269.062 80.3531V83.209H267.991V81.4463L267.745 81.1117C267.634 81.067 267.433 81.0001 267.165 80.9109C266.897 80.8216 266.473 80.7993 265.893 80.7993C265.29 80.7993 264.732 80.8886 264.196 81.0894C263.661 81.2679 263.214 81.5802 262.835 81.9818C262.456 82.3835 262.143 82.8966 261.92 83.5214C261.697 84.1461 261.585 84.9047 261.585 85.7972C261.585 87.4036 261.987 88.6308 262.79 89.5009C263.594 90.3711 264.732 90.795 266.205 90.795C266.607 90.795 266.942 90.7727 267.232 90.7058C267.5 90.6389 267.701 90.5719 267.835 90.4604L268.08 90.148V88.5638H268.102Z" fill="#78B1BD"/>
<path d="M283.905 79.9068V82.6512H282.834V81.2009L282.499 80.8216H278.392V85.1948H281.227L281.472 84.9493V84.2353H282.544V87.0913H281.472V86.3773L281.227 86.1095H278.392V90.6835H282.789L283.124 90.3488V88.6977H284.195V91.6206H275V90.6835H276.517V80.8216H275V79.8845H283.905V79.9068Z" fill="#78B1BD"/>
<path d="M222.235 19.3523C222.235 19.3523 222.324 19.4639 222.48 19.6424C222.614 19.8878 222.837 20.2671 222.837 20.8026C222.86 21.3381 222.614 22.0744 221.967 22.5652C221.833 22.6768 221.677 22.7884 221.521 22.9222C221.342 23.0338 221.141 23.123 220.918 23.2346C220.717 23.3685 220.471 23.4131 220.248 23.48C220.137 23.5023 220.003 23.547 219.891 23.5693C219.757 23.5916 219.646 23.5916 219.512 23.6139C218.485 23.7031 217.235 23.4354 216.208 22.5652C216.074 22.4537 215.963 22.3421 215.829 22.2306C215.695 22.0744 215.628 21.9851 215.516 21.8736C215.405 21.762 215.316 21.6281 215.204 21.5166C215.115 21.3827 215.003 21.2265 214.891 21.0927C214.467 20.5125 214.177 19.8878 213.887 19.1738C213.374 17.7682 213.106 16.1171 213.418 14.3768C213.552 13.5066 213.82 12.6364 214.222 11.7886C214.624 10.9407 215.182 10.1375 215.874 9.42353L216.141 9.15579L216.208 9.08885C216.231 9.06654 216.32 8.97729 216.32 8.99961L216.454 8.88805C216.632 8.73186 216.811 8.59799 216.99 8.44181C217.347 8.15175 217.681 7.83939 218.128 7.54933C218.552 7.25928 218.976 6.94691 219.422 6.67917C219.869 6.43374 220.338 6.18831 220.784 5.92057C222.681 4.98347 224.846 4.33642 227.145 4.09099C229.444 3.84556 231.922 4.00174 234.355 4.69341C236.787 5.36277 239.198 6.56761 241.341 8.30794C241.899 8.70955 242.367 9.22273 242.881 9.71359L243.26 10.0706L243.617 10.4722L244.242 11.2085C244.666 11.677 245.09 12.2348 245.515 12.8149C245.738 13.105 245.939 13.3727 246.162 13.6628C246.363 13.9528 246.541 14.2429 246.742 14.533C248.305 16.8534 249.644 19.4193 250.715 22.1859C252.858 27.697 253.907 33.9889 253.394 40.504C252.88 47.0191 250.604 53.8465 246.14 59.5584C243.908 62.392 241.14 64.9132 237.993 66.9213C234.868 68.9517 231.364 70.4466 227.725 71.4729L226.364 71.8522L226.185 71.8968C226.074 71.9191 226.163 71.9191 225.918 71.9638L225.583 72.0307L224.935 72.1646C224.065 72.3431 223.195 72.5216 222.302 72.7001C221.364 72.8562 220.405 72.9678 219.445 73.1017L217.994 73.3025L216.588 73.414C215.65 73.481 214.691 73.5702 213.753 73.6148C212.816 73.6372 211.856 73.6595 210.896 73.6818C210.427 73.6818 209.936 73.7041 209.468 73.7041L208.039 73.6595C207.079 73.6372 206.142 73.5925 205.182 73.5702C197.549 73.1017 189.871 71.9415 182.215 70.2234C174.582 68.4831 166.948 66.2965 159.337 63.8869C151.726 61.4549 144.115 58.7105 136.504 55.9438C128.892 53.1548 121.281 50.232 113.581 47.5546C109.742 46.2158 105.88 44.9218 101.997 43.7838C100.055 43.226 98.1131 42.7129 96.1489 42.2889L94.6758 41.9766L94.341 41.9096L93.9393 41.8427L93.1804 41.7088L91.6626 41.4411C91.1492 41.3518 90.6805 41.3072 90.1895 41.218C86.2388 40.6602 82.1989 40.3255 78.226 40.4594C76.2395 40.504 74.253 40.6825 72.2888 40.9502C70.3247 41.2403 68.4051 41.6865 66.5303 42.2666C62.7805 43.4269 59.2763 45.3011 56.4639 47.9562C53.6293 50.589 51.5982 54.025 50.5045 57.7511C49.3885 61.4772 49.2769 65.471 49.8572 69.331C50.4598 73.1909 51.7767 76.917 53.7186 80.2861C55.6604 83.6329 58.2495 86.6227 61.3074 88.8985C64.3652 91.1743 67.9811 92.6915 71.7085 93.1377L72.4004 93.227C72.579 93.2493 72.8691 93.2493 73.0923 93.2716C73.3379 93.2716 73.5834 93.2939 73.8066 93.2939L74.4762 93.2716C75.3913 93.227 76.3064 93.0708 77.1992 92.87C78.9625 92.4014 80.6365 91.5536 81.9757 90.3488C83.3149 89.1662 84.364 87.649 84.9666 85.9756C85.5916 84.3022 85.8148 82.5173 85.7478 80.7546C85.6808 78.992 85.2568 77.2517 84.6541 75.6006C84.0292 73.9495 83.248 72.3654 82.3328 70.8705C80.4803 67.8807 78.1367 65.2479 75.6368 62.8828C75.0119 62.2804 74.3646 61.7226 73.7173 61.1425C73.0477 60.5847 72.3781 60.0269 71.7308 59.4691C71.0612 58.889 70.3916 58.3758 69.722 57.8626C69.0524 57.3495 68.4051 56.814 67.7132 56.3231C65.0125 54.2927 62.2671 52.4185 59.4771 50.7898C53.9194 47.4653 48.1609 44.9664 42.447 43.5607C36.7553 42.1328 31.0637 41.7758 25.8855 42.7575C20.7072 43.7169 16.087 45.8812 12.4712 48.8263C10.6632 50.2989 9.12316 51.95 7.8286 53.7126C6.55635 55.4753 5.52963 57.3272 4.79307 59.2237C3.29763 62.9944 2.91819 66.8097 3.29763 70.1565C3.47619 71.8522 3.87795 73.414 4.36899 74.8643C4.86003 76.3146 5.44035 77.631 6.10995 78.7912C7.42683 81.1339 8.89996 82.9635 10.2168 84.3245C11.5337 85.6856 12.6274 86.6673 13.3863 87.292C14.1675 87.9168 14.5692 88.2291 14.5692 88.2291H14.5916C14.7032 88.3184 14.7255 88.4969 14.6362 88.6084C14.5469 88.72 14.413 88.7423 14.3014 88.6754C14.3014 88.6754 13.855 88.4076 13.0068 87.8721C12.1587 87.3367 10.9088 86.5111 9.391 85.2393C7.89556 83.9676 6.13227 82.2495 4.50291 79.8399C3.67707 78.635 2.89587 77.274 2.22627 75.7345C1.55667 74.1949 0.976348 72.4769 0.641547 70.6027C-0.0503735 66.8766 0.0612266 62.4812 1.57899 58.0858C2.31555 55.8992 3.36459 53.6903 4.74843 51.593C6.13227 49.4957 7.87324 47.5322 9.88204 45.7696C13.922 42.2443 19.1895 39.5446 25.082 38.429C30.9521 37.2465 37.3803 37.5365 43.6076 39.1653C49.8572 40.7941 55.9283 43.7169 61.6422 47.443C67.3338 51.2137 72.6683 55.7876 77.6233 60.9863C80.0785 63.6414 82.3328 66.5866 84.1408 69.8664C85.9264 73.1463 87.2209 76.8501 87.2879 80.7546C87.3102 82.6958 86.9977 84.6815 86.2388 86.5111C85.5023 88.3407 84.2747 89.9918 82.7792 91.2859C81.2838 92.6023 79.4312 93.4724 77.5117 94.0079C76.552 94.231 75.5699 94.4095 74.5655 94.4541L73.8066 94.4765C73.5611 94.4765 73.3155 94.4541 73.0923 94.4541C72.8468 94.4318 72.646 94.4541 72.3558 94.4095L71.6192 94.3426C67.6686 93.9187 63.8519 92.3568 60.6155 89.9918C57.3567 87.649 54.6337 84.5477 52.5356 81.0893C50.4375 77.631 48.9421 73.7487 48.2055 69.6879C47.469 65.6272 47.5136 61.3879 48.5626 57.2825C49.5894 53.1995 51.7098 49.3172 54.7676 46.2828C57.8031 43.226 61.5975 40.9949 65.6151 39.5669C67.6239 38.8529 69.6997 38.2951 71.7755 37.8935C73.8735 37.5142 75.9716 37.2241 78.092 37.0903C82.3328 36.7779 86.529 36.9564 90.7475 37.3803C91.8188 37.4696 92.8456 37.6034 93.85 37.7373L94.6089 37.8266L94.9883 37.8712L95.4124 37.9381L96.9748 38.2059C99.0729 38.5629 101.104 39.0314 103.135 39.5223C107.197 40.5263 111.17 41.6865 115.121 42.8914C122.978 45.3903 130.723 48.0231 138.378 50.6559C146.034 53.2887 153.623 55.81 161.145 58.1304C168.667 60.4731 176.166 62.5258 183.576 64.1546C190.987 65.8057 198.33 67.0105 205.517 67.4791C206.41 67.5237 207.303 67.546 208.195 67.5906C209.088 67.6353 209.981 67.6576 210.852 67.6353C211.744 67.6353 212.615 67.6353 213.485 67.6353C214.356 67.5906 215.226 67.546 216.097 67.5014L217.391 67.4345L218.641 67.3006C219.467 67.2113 220.315 67.0998 221.141 67.0105C222.012 66.8543 222.904 66.6982 223.775 66.5197L224.422 66.4081L224.757 66.3412C224.623 66.3635 224.802 66.3189 224.802 66.3189L224.958 66.2742L226.163 65.9619C229.333 65.1363 232.323 63.9092 235.024 62.2804C237.703 60.6516 240.091 58.6213 242.033 56.3008C245.916 51.6153 248.059 45.7919 248.729 40.0578C249.398 34.3013 248.639 28.6118 246.898 23.5693C246.028 21.048 244.912 18.683 243.617 16.5187L243.126 15.7155L242.613 14.9569C242.278 14.466 241.943 13.9752 241.519 13.462L240.917 12.7034L240.649 12.3687L240.359 12.0563C239.957 11.6547 239.6 11.1862 239.153 10.8515C235.783 7.77245 231.341 6.43374 227.324 6.65686C225.315 6.76842 223.395 7.23697 221.677 7.95095C221.253 8.15176 220.851 8.35256 220.427 8.55337C220.025 8.75418 219.668 8.99961 219.289 9.22273C218.909 9.42353 218.552 9.7359 218.173 10.0036C217.994 10.1375 217.815 10.2937 217.615 10.4276L217.481 10.5391C217.414 10.5838 217.481 10.5391 217.458 10.5614L217.414 10.6061L217.19 10.8069C216.61 11.3424 216.097 11.9671 215.74 12.6364C215.36 13.3058 215.07 13.9975 214.914 14.7115C214.557 16.1394 214.668 17.5674 215.025 18.7945C215.226 19.3969 215.472 19.9994 215.784 20.4902C215.851 20.6241 215.941 20.7357 216.007 20.8695C216.097 21.0034 216.186 21.115 216.275 21.2488C216.365 21.3604 216.476 21.5166 216.543 21.5835C216.632 21.6728 216.722 21.762 216.833 21.8513C217.592 22.5875 218.574 22.8999 219.445 22.8776C219.556 22.8776 219.668 22.8776 219.78 22.8776C219.891 22.8553 219.98 22.833 220.092 22.8107C220.293 22.766 220.494 22.7437 220.672 22.6545C220.851 22.5875 221.029 22.5206 221.186 22.4537C221.342 22.3421 221.521 22.2306 221.654 22.1413C222.212 21.7843 222.458 21.2265 222.48 20.7803C222.525 20.3117 222.369 19.9994 222.279 19.7763C222.123 19.5978 222.056 19.4862 222.056 19.4862C222.012 19.4416 222.034 19.3523 222.079 19.33C222.123 19.3077 222.19 19.3077 222.235 19.3523Z" fill="#78B1BD"/>
</g>
<defs>
<clipPath id="clip0_65_4754">
<rect width="284" height="94" fill="white" transform="translate(0.195312 0.409546)"/>
</clipPath>
</defs>
</svg>
