<svg width="160" height="127" viewBox="0 0 160 127" fill="none" xmlns="http://www.w3.org/2000/svg">
<path d="M12.2891 105.761C12.9163 106.534 13.2269 107.435 13.2269 108.477C13.2269 109.92 12.7458 111.065 11.7775 111.899C10.8093 112.733 9.40861 113.154 7.5756 113.154H0.194824V95.9562H7.42944C9.16502 95.9562 10.5048 96.3398 11.4365 97.101C12.3682 97.8623 12.8371 98.9341 12.8371 100.316C12.8371 101.388 12.557 102.265 11.9968 102.947C11.4365 103.629 10.6996 104.074 9.79227 104.287C10.8275 104.5 11.6618 104.993 12.2891 105.761ZM3.62944 103.166H6.72303C7.58169 103.166 8.23938 102.978 8.68393 102.594C9.12848 102.21 9.3538 101.662 9.3538 100.95C9.3538 100.237 9.13457 99.6831 8.69611 99.2934C8.25765 98.9036 7.58169 98.7087 6.67432 98.7087H3.62944V103.166ZM8.98842 109.756C9.4756 109.36 9.71919 108.775 9.71919 108.014C9.71919 107.253 9.46951 106.662 8.97624 106.248C8.48297 105.834 7.77656 105.627 6.86919 105.627H3.62944V110.352H6.89355C7.80092 110.352 8.50124 110.151 8.98842 109.756Z" fill="#222221"/>
<path d="M27.0322 113.154L23.013 106.455H21.5088V113.154H18.0742V95.9561H24.6268C26.6242 95.9561 28.1467 96.4433 29.1941 97.4177C30.2415 98.392 30.7653 99.677 30.7653 101.266C30.7653 102.563 30.406 103.654 29.6813 104.53C28.9566 105.407 27.9152 105.992 26.5511 106.284L30.8383 113.154H27.0322ZM21.5088 104.092H24.3345C26.3015 104.092 27.2819 103.221 27.2819 101.486C27.2819 100.657 27.0444 100.012 26.5633 99.5491C26.0822 99.0862 25.3393 98.8548 24.3345 98.8548H21.5088V104.092Z" fill="#222221"/>
<path d="M45.9837 109.695H39.0901L37.8722 113.154H34.2427L40.576 96.1511H44.4978L50.8068 113.154H47.1773L45.9837 109.695ZM45.0581 107.088L42.5247 99.8293L39.9914 107.088H45.0581Z" fill="#222221"/>
<path d="M69.6546 113.154H66.2199L58.5225 101.461V113.154H55.0879V95.9561H58.5225L66.2199 107.746V95.9561H69.6546V113.154Z" fill="#222221"/>
<path d="M89.2631 109.037C88.5506 110.334 87.5154 111.345 86.1574 112.07C84.7994 112.794 83.1917 113.154 81.3221 113.154H75.208V95.9561H81.3221C83.1917 95.9561 84.7994 96.3093 86.1574 97.0157C87.5154 97.7221 88.5506 98.7209 89.2631 100.012C89.9756 101.303 90.3349 102.807 90.3349 104.53C90.3349 106.236 89.9756 107.74 89.2631 109.037ZM85.3292 108.623C86.3462 107.648 86.8516 106.284 86.8516 104.53C86.8516 102.758 86.3462 101.388 85.3292 100.414C84.3122 99.4394 82.8811 98.9523 81.0298 98.9523H78.6426V110.084H81.0298C82.8811 110.084 84.3122 109.597 85.3292 108.623Z" fill="#222221"/>
<path d="M48.1335 0.334961C48.1335 0.334961 92.473 17.0757 91.5291 41.2946H91.5413V82.2543C91.5413 82.2543 47.2018 65.5135 48.1457 41.2946H48.1335V0.334961Z" fill="#222221"/>
<path d="M131.027 72.6748C139.248 67.0235 148.882 63.3575 159.192 62.2918V49.4668C153.23 51.7565 147.628 55.0511 142.616 59.3017C138.018 63.1992 134.139 67.7117 131.027 72.6748Z" fill="#222221"/>
<path d="M125.991 76.5359C129.577 69.283 134.626 62.7731 140.984 57.3836C146.47 52.7311 152.627 49.1747 159.192 46.7753V9.8288C159.192 9.8288 96.0533 33.6641 97.3931 68.1564H97.3748V126.484C97.3748 126.484 100.194 125.418 104.616 123.421C104.597 121.551 104.658 119.67 104.816 117.782C106.187 101.138 114.183 86.5962 125.991 76.5359Z" fill="#222221"/>
<path d="M119.992 98.2032C120.327 94.1109 121.076 90.116 122.197 86.2612C114.828 94.9573 109.999 105.931 108.994 118.129C108.903 119.243 108.854 120.352 108.824 121.454C112.411 119.724 116.582 117.581 120.967 115.053C119.871 109.585 119.517 103.921 119.992 98.2032Z" fill="#222221"/>
<path d="M122.501 98.4101C122.075 103.592 122.355 108.72 123.281 113.701C140.533 103.379 159.923 87.4363 159.174 68.1562H159.192V66.512C146.635 67.9004 135.18 73.4482 126.368 81.8399C124.292 87.077 122.976 92.6431 122.501 98.4101Z" fill="#222221"/>
</svg>
