<svg width="162" height="127" viewBox="0 0 162 127" fill="none" xmlns="http://www.w3.org/2000/svg">
<path d="M70.3672 13.5706L71.562 13.0092C69.4727 11.7164 63.6555 10.2605 58.811 8.71967L61.8796 9.93404C61.2333 10.3388 63.8579 11.4683 63.6555 11.9515C63.884 10.8285 67.9776 13.0092 70.3672 13.5706Z" fill="#C6D2DB"/>
<path d="M79.0833 14.3933L70.8765 12.3693L74.1083 13.7404L79.0833 14.3933Z" fill="#C6D2DB"/>
<path d="M77.6602 15.7709C78.0127 15.9667 78.5416 16.1887 78.9855 16.3258C78.5416 16.0973 78.0976 15.921 77.6602 15.7709Z" fill="#C6D2DB"/>
<path d="M90.0587 18.3562C85.73 17.3051 82.6614 16.0907 79.1554 14.798C80.1151 15.366 80.5526 15.4443 81.9498 16.0907C79.3969 15.3595 75.8517 14.7131 72.855 13.9035C73.9649 14.9547 75.7669 15.1048 77.6668 15.7708C77.1836 15.4966 77.04 15.2615 77.9671 15.3595C80.6636 16.8937 82.7397 16.4955 85.2599 17.8666L82.6026 17.3769C82.7463 18.1865 88.1914 18.2713 87.6821 19.4792C91.4232 19.6424 85.3513 17.625 90.0587 18.3562Z" fill="#C6D2DB"/>
<path d="M92.6834 19.4858C92.3962 19.525 92.3243 19.5968 92.3766 19.6947C92.6247 19.6425 92.7944 19.5902 92.6834 19.4858Z" fill="#C6D2DB"/>
<path d="M91.8344 20.3737C94.557 21.2616 98.7877 22.5609 99.7997 21.8362C97.1098 20.3019 96.3589 20.9417 94.9291 20.9483C94.3219 20.6349 92.5591 20.0342 92.3763 19.7012C91.8736 19.7992 91.0705 19.8775 91.8344 20.3737Z" fill="#C6D2DB"/>
<path d="M104.814 23.5337L103.482 23.2921L103.515 22.6458C103.24 22.7241 101.954 23.5272 99.2251 22.6392C100.518 23.5272 101.171 23.1224 102.561 23.7687L104.814 23.5337Z" fill="#C6D2DB"/>
<path d="M101.641 19.1789C101.641 19.1789 98.7095 18.7741 96.5615 18.7676C99.7346 19.094 104.801 21.5424 104.475 19.871C103.032 19.4923 101.837 19.2181 101.367 19.2572L101.641 19.1789Z" fill="#C6D2DB"/>
<path d="M104.645 19.9167C106.283 20.7916 107.445 20.8896 109.574 21.2813C108.053 20.87 106.218 20.3346 104.645 19.9167Z" fill="#C6D2DB"/>
<path d="M104.468 19.8711C104.527 19.8841 104.585 19.9037 104.644 19.9168C104.585 19.8841 104.527 19.858 104.468 19.8254C104.468 19.845 104.468 19.8515 104.468 19.8711Z" fill="#C6D2DB"/>
<path d="M111.114 26.1126L106.995 24.5783L107.948 25.1463L111.114 26.1126Z" fill="#C6D2DB"/>
<path d="M106.857 22.0843C110.194 23.2138 105.219 20.8699 108.385 21.8427C109.273 22.006 103.723 20.4717 103.345 20.7916C104.122 21.1898 106.714 21.2812 106.857 22.0843Z" fill="#C6D2DB"/>
<path d="M117.187 28.1431C118.61 28.1431 120.588 29.6774 122.364 30.0039L123.18 29.7623C119.263 29.4293 119.191 27.3336 117.187 28.1431Z" fill="#C6D2DB"/>
<path d="M132.105 31.7863C131.556 31.9429 130.505 31.623 130.57 32.0278C129.343 31.5447 129.721 31.2248 128.931 30.8134C126.62 30.6502 123.382 29.2792 121.515 29.1943C122.396 29.3575 122.566 29.5142 123.18 29.7558C126.418 31.1268 131.125 31.8646 133.267 33.5556C132.862 32.8309 135.003 32.8374 132.105 31.7863Z" fill="#C6D2DB"/>
<path d="M119.517 25.9429C118.792 25.7013 118.152 25.4662 117.48 25.2312C117.78 25.4401 118.329 25.6686 119.524 25.969C119.524 25.9559 119.524 25.9494 119.517 25.9429Z" fill="#C6D2DB"/>
<path d="M120.072 25.8058C121.169 25.4859 123.689 26.857 124.336 26.4587C124.283 26.1714 122.808 25.5577 122.377 25.2574C121.411 26.1192 118.558 24.0822 119.517 25.9429C120.431 26.2433 121.496 26.5501 122.978 26.8635L120.072 25.8058Z" fill="#C6D2DB"/>
<path d="M114.548 23.6251L113.19 24.0233C115.143 24.4346 116.363 24.8329 117.486 25.2246C116.807 24.7611 117.356 24.4085 114.548 23.6251Z" fill="#C6D2DB"/>
<path d="M122.37 25.2573C122.423 25.2116 122.475 25.1528 122.521 25.0876C122.188 25.0614 122.201 25.1333 122.37 25.2573Z" fill="#C6D2DB"/>
<path d="M136.068 30.8134C135.735 30.7024 135.389 30.5979 135.036 30.5L135.049 30.5131C135.147 30.5522 135.245 30.5979 135.35 30.6371C135.572 30.722 135.793 30.8134 136.022 30.9048C136.27 30.9962 136.525 31.0941 136.779 31.1855C137.543 31.4532 138.307 31.7013 139.071 31.9364C138.49 31.6883 137.876 31.4467 137.204 31.2051C136.825 31.0811 136.453 30.9505 136.068 30.8134Z" fill="#C6D2DB"/>
<path d="M132.927 29.5664C133.848 30.1083 134.168 30.598 132.712 30.3368L131.517 29.2073L127.502 29.1224C130.531 29.2857 133.371 31.6295 134.312 30.5L135.611 31.388L135.043 30.5196C134.71 30.3825 134.39 30.2454 134.096 30.1148C133.659 29.919 133.267 29.7362 132.927 29.5664Z" fill="#C6D2DB"/>
<path d="M143.779 32.9614L143.948 33.1181C142.375 32.8766 140.723 32.4522 139.058 31.9429C139.189 31.9952 139.332 32.0539 139.456 32.1062C140.828 32.7068 141.905 33.3009 142.727 33.8298C141.813 35.6318 140.991 37.0224 140.37 38.1715C140.155 38.5698 139.972 38.9354 139.809 39.288C139.75 39.3532 139.691 39.3859 139.626 39.3467C139.535 38.6155 139.874 37.832 140.357 36.918C140.834 36.0235 141.448 34.9919 141.735 34.3586C141.422 34.1954 141.154 34.1497 140.925 34.3195C141.017 34.4174 141.128 34.5088 141.271 34.6133C140.606 35.8342 140.096 37.1595 139.659 38.289C139.443 38.8505 139.241 39.3598 139.058 39.7384C138.856 40.1889 138.66 40.535 138.49 40.6525C138.51 41.325 139.319 39.6732 139.032 41.4099C138.079 43.917 137.896 43.4469 136.995 44.8506L137.132 46.4306C136.27 46.4175 135.604 49.0878 134.827 51.941C135.657 50.0607 136.505 48.1346 137.341 46.1107C137.818 44.955 138.294 43.7668 138.751 42.5328C138.843 42.2782 138.941 42.017 139.032 41.7559C138.36 46.855 135.742 51.0139 134.383 56.0215C134.207 58.6592 135.428 53.7495 135.852 53.5928C136.747 54.6309 134.547 55.8257 135.108 57.249C135.813 57.8105 137.524 52.3197 138.66 50.2892C139.117 48.3631 138.856 48.3174 138.575 47.5993C139.163 47.2532 139.881 45.3664 140.468 45.0203C140.606 43.9888 140.828 43.1074 141.082 42.2978C141.213 41.893 141.343 41.5143 141.487 41.1356C141.65 40.7047 141.813 40.2869 141.97 39.869C142.682 37.9691 143.472 35.8015 143.805 33.4707C143.955 33.2357 144.053 33.1051 144.112 33.0659C144.112 33.0594 144.118 33.0528 144.131 33.0528H144.138V33.0463L143.779 32.9614Z" fill="#C6D2DB"/>
<path d="M144.151 33.0789L143.432 35.5207C143.165 36.2715 143.426 35.6513 143.72 34.8287C144.007 34.0125 144.32 33.0201 144.151 33.0789Z" fill="#C6D2DB"/>
<path d="M132.928 29.5664C132.726 29.4489 132.49 29.3249 132.236 29.2073C132.432 29.3118 132.667 29.4358 132.928 29.5664Z" fill="#C6D2DB"/>
<path d="M128.181 28.0256L126.072 27.425C127.267 27.8755 127.868 28.0256 128.181 28.0256Z" fill="#C6D2DB"/>
<path d="M130.603 27.9994C127.384 26.7263 129.101 28.0386 128.181 28.0321L131.19 28.8874L130.603 27.9994Z" fill="#C6D2DB"/>
<path d="M134.305 58.9138C134.272 60.6897 135.245 58.8485 135.702 56.916C135.154 58.6135 134.488 59.3904 134.305 58.9138Z" fill="#C6D2DB"/>
<path d="M124.016 79.8064C123.741 79.9174 123.415 80.4136 123.187 81.8042C123.422 81.53 123.709 80.7661 124.016 79.8064Z" fill="#C6D2DB"/>
<path d="M139.639 37.1531C139.567 37.3816 139.489 37.6101 139.417 37.8321C139.495 37.6362 139.567 37.4077 139.639 37.1531Z" fill="#C6D2DB"/>
<path d="M129.382 64.2284L129.559 63.9542C129.493 64.039 129.448 64.1304 129.382 64.2153C129.382 64.2153 129.389 64.2218 129.382 64.2284Z" fill="#C6D2DB"/>
<path d="M55.0444 9.20277C54.5547 9.07872 54.0585 8.95467 53.5688 8.8241C53.9541 8.94815 54.4241 9.0722 55.064 9.2093C55.0509 9.2093 55.0509 9.20277 55.0444 9.20277Z" fill="#C6D2DB"/>
<path d="M56.6696 8.77186C56.1865 8.43235 55.8209 8.1255 55.2594 7.85781C54.7109 7.59012 54.0385 7.37467 53.2158 7.28979C54.3584 7.84475 54.7958 8.10591 54.946 8.23649C55.0896 8.36706 54.9264 8.37359 54.7305 8.37359C54.5347 8.37359 54.3061 8.36054 54.2866 8.465C54.267 8.56946 54.4759 8.78491 55.0309 9.20276C56.8198 9.65979 58.6479 10.1168 60.3911 10.5347C58.4847 10.0189 57.4923 9.35946 56.6696 8.77186Z" fill="#C6D2DB"/>
<path d="M60.4043 10.5281C60.685 10.6 60.9788 10.6718 61.2988 10.7371C61.005 10.6718 60.7046 10.6 60.4043 10.5281Z" fill="#C6D2DB"/>
<path d="M94.9551 18.6044C94.8898 18.5979 94.8376 18.5914 94.7788 18.5783C95.1053 18.6436 95.262 18.6567 94.9551 18.6044Z" fill="#C6D2DB"/>
<path d="M44.9829 107.3C45.7599 107.704 47.6337 107.783 49.0308 108.429C47.8099 107.953 45.7272 106.66 44.9829 107.3Z" fill="#C6D2DB"/>
<path d="M44.1995 110.277L44.2583 110.14C44.0624 110.133 43.8013 110.114 43.5205 110.081C43.7425 110.159 43.9645 110.225 44.1995 110.277Z" fill="#C6D2DB"/>
<path d="M44.4088 109.8L44.2651 110.146C44.6765 110.153 44.8397 110.081 44.4088 109.8Z" fill="#C6D2DB"/>
<path d="M38.748 108.501L41.4706 109.389C41.2682 109.872 41.1703 110.114 39.4989 109.546C39.8449 109.872 41.4445 110.035 42.3324 110.198L41.7187 109.957C42.13 109.924 42.8808 110.016 43.5207 110.087C41.105 109.278 39.6229 107.469 38.748 108.501Z" fill="#C6D2DB"/>
<path d="M34.7651 107.77C35.8163 108.09 38.3756 108.821 37.7946 107.933L34.7651 107.77Z" fill="#C6D2DB"/>
<path d="M30.8413 105.752C33.8903 107.123 32.3821 105.798 34.2886 106.196C33.7271 106.026 33.2048 105.837 32.7151 105.837C34.2886 106.64 31.5595 105.752 30.8413 105.752Z" fill="#C6D2DB"/>
<path d="M34.2886 106.196C34.5497 106.275 34.8174 106.353 35.0982 106.399C34.7652 106.301 34.5171 106.242 34.2886 106.196Z" fill="#C6D2DB"/>
<path d="M64.6673 112.079L64.5629 111.765C64.3931 111.805 64.354 111.883 64.6673 112.079Z" fill="#C6D2DB"/>
<path d="M24.5741 103.069L24.2737 102.938C23.8363 102.827 23.3858 102.71 22.9092 102.566L24.5741 103.069Z" fill="#C6D2DB"/>
<path d="M70.2886 8.09943L69.9883 8.14513C70.0862 8.1386 70.1907 8.12554 70.2886 8.09943Z" fill="#C6D2DB"/>
<path d="M19.5923 91.6826C19.6119 91.663 19.6315 91.6499 19.651 91.6238C19.6445 91.5781 19.6249 91.6108 19.5923 91.6826Z" fill="#C6D2DB"/>
<path d="M129.212 63.4319C130.172 61.2708 129.206 65.0706 130.126 63.2948C129.904 65.606 127.574 67.9695 126.888 71.9782C127.175 70.5549 127.56 71.247 127.482 72.0174C126.379 74.4592 125.347 78.6377 124.538 81.1709C124.701 81.0991 124.844 81.1513 124.942 81.2297C123.983 83.3907 123.774 84.0502 122.494 86.3875C118.622 95.4235 115.854 108.573 112.133 116.068C110.69 118.34 112.25 113.274 111.617 114.201C111.179 117.289 111.01 119.672 111.055 121.487C104.683 118.68 97.4557 116.146 89.6993 113.757C88.5894 113.607 87.6035 113.574 89.0138 114.253C91.5013 114.579 92.5329 115.546 90.6525 115.461C87.9953 114.971 91.1292 114.899 87.9235 114.573L89.3206 115.219C86.3173 114.41 84.7178 114.246 82.746 114.403C71.2617 109.957 57.8382 108.403 48.0579 103.885L44.3103 103.715C44.245 103.317 44.0035 102.749 42.2341 102.423C42.8479 102.664 43.9055 102.991 43.6313 103.069L35.7901 100.718L36.4756 101.365C35.3004 100.758 33.5115 100.333 31.7095 99.8567C29.9598 99.3931 27.8901 98.7924 27.4266 98.2048C27.296 98.4399 25.9184 98.231 25.7225 98.5574C25.1153 98.2897 24.5212 98.0482 23.914 97.8196C24.4233 96.4159 24.8281 95.1036 25.2133 93.7587C25.7095 92.0024 26.2057 90.2526 26.6888 88.5421C27.6877 85.0687 28.7193 81.7846 30.0838 79.0621C29.6007 79.5713 29.6007 78.8597 29.5224 78.5855C30.2471 76.0327 30.0055 78.0697 30.4886 77.567C28.7193 75.8629 41.6074 43.3881 41.7771 38.9289C41.5356 39.5361 41.294 40.1563 41.2156 39.8821C42.7826 34.5153 44.4148 28.9462 46.034 23.4031C46.837 20.6283 47.6336 17.8666 48.4236 15.1375C48.7761 13.8709 49.1287 12.6174 49.4812 11.3769C49.7881 10.2343 50.095 9.11134 50.3953 7.9949C51.4921 8.28217 52.5302 8.54986 53.5553 8.81754C52.256 8.39969 51.9753 7.98837 51.8251 7.59011C51.6684 7.19184 51.7011 6.82623 50.6303 6.38226C49.6445 6.27127 50.4214 6.63036 51.0286 6.93069C51.6554 7.23755 52.1189 7.48565 50.9176 7.28325C50.4149 6.96333 49.9774 6.72829 49.6118 6.55201C49.1156 7.42036 49.1678 8.22341 49.1613 8.97424C49.1548 9.35291 49.1352 9.73159 49.0112 10.169C48.8806 10.6065 48.6455 11.0831 48.1755 11.8013C48.1885 11.057 48.2146 10.2408 48.2669 9.35944C47.7315 11.9971 47.17 14.4585 46.4518 17.1941C45.7402 19.9036 44.9371 22.7241 44.1275 25.3683L43.4812 24.624C43.2396 26.6611 42.3517 29.3901 41.5421 29.5272C43.566 23.4684 42.0383 21.8688 43.9774 18.3955C44.1341 18.9374 44.0557 18.6631 44.3822 18.3236C44.343 17.4749 44.3626 16.2931 44.5584 14.9678C44.6564 14.3084 44.7935 13.6163 44.9893 12.9112C45.0873 12.5586 45.1983 12.206 45.3289 11.8535C45.4137 11.6184 45.4986 11.3834 45.59 11.1418C45.6879 10.8872 45.7924 10.6326 45.8903 10.3714V11.2659C45.8969 11.5466 45.8903 11.8731 45.923 12.0494C46.7064 9.47696 47.5226 6.80664 48.3256 4.16243C50.2451 4.7435 52.1516 5.31805 54.0058 5.873C54.8741 6.1211 55.7294 6.36267 56.5651 6.60424C57.2311 6.78705 57.8839 6.9568 58.5172 7.10697C57.3877 6.38226 58.8176 6.38226 60.7632 6.87193C63.662 7.92308 59.7773 6.95027 60.9068 7.67498C62.4411 9.1244 68.0625 9.37903 70.1714 10.0254C69.4532 10.0254 75.6883 12.206 71.7056 11.4748C76.2759 13.094 79.9451 12.8524 82.7134 14.7915C83.2553 14.6283 84.5154 14.4716 85.8473 14.7131L85.5404 15.4379L87.251 15.3595C90.3522 16.3127 91.4491 18.2583 94.7658 18.5652C94.152 18.4412 92.9115 18.1212 92.9377 17.7034C93.4077 17.1419 99.4078 18.7611 98.4872 17.5467L95.732 17.3051C96.8224 16.9852 93.3816 16.0973 94.1977 15.8557L87.0355 14.1517L87.0747 13.5118L88.6351 14.3149C91.0834 13.5967 85.2009 13.427 83.3924 12.0559L83.19 12.539C77.2291 10.2735 80.8331 11.3246 75.9298 9.38556L74.2258 9.4639C73.9581 9.54225 78.9266 10.1951 78.6263 10.9199C75.2508 10.4302 70.8569 8.97424 67.2138 8.56944L69.9755 8.13854C68.6501 8.20382 66.8873 6.40837 63.7012 5.58573L66.4956 6.87846C65.0984 7.07432 63.0287 6.46713 60.7958 5.74895C59.6794 5.38986 58.5238 5.00466 57.3877 4.67821C57.0809 4.59334 56.7675 4.50846 56.4672 4.42359C55.9906 4.29954 55.527 4.16896 55.0635 4.05144C54.1494 3.8164 53.268 3.614 52.4715 3.47037C54.2408 4.00574 56.0232 4.54764 56.2125 4.98507C54.7044 4.90673 50.885 3.52913 48.3452 2.54326C48.3844 1.8512 52.3605 2.86318 56.1603 3.86863C56.3888 3.92739 56.6108 3.98615 56.8328 4.04491C56.9634 4.07755 57.0939 4.10367 57.2245 4.13631C57.4791 4.19507 57.7338 4.25383 57.9688 4.30607C58.4454 4.41053 58.8829 4.50193 59.2354 4.55416C59.9471 4.65863 60.3519 4.61945 60.1886 4.29301C59.3399 4.01226 58.5042 3.80334 57.6815 3.63359C57.4726 3.59441 57.2702 3.55524 57.0678 3.51607C57.0025 3.50954 56.7936 3.45731 56.6043 3.41813L56.0493 3.29408C55.3246 3.13739 54.613 2.98723 53.9144 2.83706C51.1592 2.27557 48.8806 1.90343 46.8697 1.4464C46.5432 2.824 46.2168 3.99921 45.8381 5.01119C46.0079 3.62053 46.1972 2.15153 46.4192 0.604174L46.6738 0.623761L46.3996 0.558472L45.4725 4.43664L45.8577 3.35285C45.8381 4.48888 45.479 5.64449 45.0024 6.98292C44.7608 7.66193 44.5062 8.38011 44.2451 9.11134C44.121 9.48349 43.997 9.8687 43.8794 10.2539L43.7162 10.835L43.6379 11.1288L43.5987 11.3116C43.5856 11.2528 43.566 11.2006 43.553 11.1353L43.5399 10.848L43.5138 10.2604L43.4746 9.033L42.2276 13.1136L42.5475 12.7741C41.3332 17.9907 39.8772 22.3846 38.0165 26.8504L39.146 24.2258C39.2243 24.5 38.8195 25.9951 38.3364 27.2225C38.8979 26.981 39.7923 23.5402 40.1123 23.9189C38.6563 28.3129 37.9316 28.7177 36.2341 33.0202C36.3973 33.5621 38.2515 30.5262 37.4419 34.2476C36.8804 33.771 35.6661 36.8396 35.7509 34.2476C35.2809 37.4925 34.53 36.4544 34.5366 39.1639C34.5888 38.8505 34.7651 38.4066 34.9348 37.9626C35.5812 37.2771 34.9348 39.3924 34.7716 40.2804C33.8837 41.5731 33.2373 42.2521 32.4277 44.5437L31.3766 49.5841C31.2133 49.7538 31.135 49.4796 31.135 49.4796C29.999 54.2522 28.0599 59.162 27.407 62.7072C27.5637 63.2556 27.5637 64.6789 28.2949 62.1261C28.2949 64.2741 26.9173 66.7943 26.0294 68.8052L25.8727 66.8334C24.2535 72.827 21.1849 79.6432 20.2905 85.2319L21.0935 84.3831C20.7932 85.6824 20.4276 86.9555 20.0489 88.1764C19.853 88.7902 19.6572 89.3908 19.4678 89.9784C19.2654 90.5921 19.063 91.1928 18.8672 91.7739C17.5418 95.9263 16.334 99.7195 15.8247 102.181C15.8443 102.187 15.8639 102.187 15.8835 102.194C15.8704 102.187 15.8508 102.181 15.8443 102.174C16.6016 100.379 16.9216 99.7979 16.9934 99.8762C17.0652 99.9611 16.8889 100.725 16.6147 101.757C18.8737 102.364 22.1969 103.376 23.235 103.552C21.3612 102.886 19.161 102.227 16.915 101.6C17.6202 99.0667 18.26 96.5596 18.7497 94.6531C19.1414 93.1449 19.4483 91.9893 19.5723 91.6955C19.5397 91.7282 19.507 91.7608 19.4613 91.8392L21.0087 84.8206L21.7334 85.1209C20.2056 84.2395 25.2067 76.0914 23.3525 76.9794C23.8357 75.0403 24.7236 74.4592 25.0501 74.8314L26.1861 69.3471C26.6692 68.8313 27.0675 70.1958 26.8259 70.8095C26.1796 72.9184 25.7748 76.5615 24.4037 78.37C24.3188 80.2438 25.6964 77.0055 24.7236 80.8902C23.4701 83.6388 22.4842 86.7401 21.5963 89.7173C21.0478 91.5454 20.5125 93.3343 20.0097 95.0253C19.3699 97.1276 18.7431 99.1058 18.0837 100.967C18.9521 101.28 19.7551 101.587 20.4994 101.9C19.1087 101.202 17.5875 100.745 20.0097 101.045C21.322 101.646 22.7388 102.285 24.2601 102.951C25.2851 103.213 26.2579 103.415 27.0153 103.532C27.5637 103.578 28.0599 103.624 28.5365 103.663C29.4832 103.748 30.3124 103.885 31.1807 104.394C31.5855 104.27 30.4691 103.807 29.0523 103.271C28.3015 102.991 27.4723 102.684 26.7215 102.409C25.7552 102.063 24.9195 101.744 24.4233 101.515C25.5332 101.404 26.3754 101.495 27.2046 101.724C27.4266 101.789 27.5963 101.841 27.753 101.9C27.9162 101.959 28.0795 102.031 28.2427 102.103C28.5691 102.246 28.8891 102.416 29.2155 102.586C30.5082 103.265 31.814 103.989 33.3483 103.748C34.8108 103.108 26.4668 101.966 29.0849 101.404L32.5975 102.697C31.5724 101.73 30.0512 101.384 28.7128 101.091C27.4396 100.816 26.0098 100.49 25.9837 99.7979C26.7606 99.8175 27.9097 100.144 29.0849 100.555C30.2275 100.96 31.2329 101.404 31.4027 101.567C32.5583 101.652 29.5942 100.196 31.6377 100.438C33.5442 101.567 34.739 101.006 36.2014 102.057L35.1111 102.377C36.6128 102.782 40.2951 104.238 42.0644 104.564C41.9338 105.452 37.5007 104.636 35.8358 104.074C37.1285 104.962 39.9621 105.609 41.4572 106.013L38.8326 104.884C42.8936 106.02 42.3386 104.486 46.9023 106.105C50.787 107.078 47.6531 107.156 48.7826 107.881C53.2092 108.69 50.2778 108.285 50.4149 107.398C53.8556 108.285 54.5411 108.932 59.033 110.146C56.3758 109.657 55.5531 109.898 53.0983 108.925L53.6793 109.813C57.2245 110.466 60.0842 110.466 64.3476 111.119L64.55 111.772C65.5358 111.563 98.4089 121.461 96.6787 119.822C97.1227 120.109 90.0976 117.994 83.9147 116.153L84.3064 116.035C89.4382 117.204 103.958 121.167 99.7081 119.985C100.289 119.182 102.365 120.475 102.503 119.587C105.989 120.325 108.653 121.108 111.062 121.924C111.225 125.313 112.224 126.482 113.752 126.227C113.824 125.776 113.895 125.332 113.967 124.895C114.104 125.006 114.699 125.045 114.992 123.615C115.43 121.441 114.659 122.858 114.326 123.002C114.287 122.982 114.248 122.962 114.209 122.943C114.189 122.878 114.176 122.773 114.196 122.59C116.84 120.057 115.893 112.751 118.995 110.146C122.677 96.8534 127.071 80.7988 131.06 68.9814L130.707 69.5299C130.838 68.1588 132.098 65.0119 132.509 65.0641L131.961 64.3067C133.006 59.73 133.652 67.2252 135.036 62.1196C133.828 64.5875 133.319 62.0608 134.031 60.1739C133.698 60.5592 132.509 60.1805 132.255 61.2316L130.668 63.7322C131.824 64.1958 129.904 68.5179 129.16 70.013C129.14 69.9543 129.127 69.889 129.108 69.8237C129.271 69.2295 129.219 69.3014 129.056 69.6409C128.821 68.6093 128.84 67.1468 129.885 65.5995C130.348 63.5233 130.962 61.532 131.68 59.5602C130.812 60.3437 129.891 60.9901 129.212 63.4319ZM75.5512 113.685C75.9364 113.802 76.3085 113.913 76.6741 114.024C76.0343 113.848 75.5446 113.718 75.2508 113.652C75.3488 113.659 75.4467 113.665 75.5512 113.685ZM83.3598 115.977C83.1051 115.898 82.8505 115.826 82.6024 115.748C82.5306 115.657 83.1051 115.755 84.091 115.977H83.3598Z" fill="#C6D2DB"/>
<path d="M131.7 59.5471C132.294 59.0117 132.869 58.4111 133.352 57.151C133.287 56.9878 133.221 56.8311 133.11 56.9486C133.789 55.6232 134.331 53.756 134.828 51.9474C134.71 52.2217 134.586 52.4959 134.468 52.7636C133.463 55.0552 132.516 57.2881 131.7 59.5471Z" fill="#C6D2DB"/>
<path d="M132.522 65.0511L132.633 65.2013C132.614 65.0969 132.575 65.0577 132.522 65.0511Z" fill="#C6D2DB"/>
<path d="M29.2354 62.3415C29.2354 62.8703 28.9743 62.8703 29.0591 63.3077C29.1505 63.6603 28.1843 66.2 28.008 66.5526C27.4791 67.9563 26.8654 69.36 26.3431 70.7637C25.5531 72.3437 24.7631 73.7475 23.9731 75.2361C23.6206 75.8498 19.5008 81.1121 19.0634 81.4646C17.9208 82.2546 15.9948 84.5332 14.9371 85.2383C14.232 85.6758 11.6008 86.6421 10.9871 86.7269C9.84455 86.8118 8.61712 86.9032 7.56596 86.6421C5.72481 86.3809 3.00226 83.6583 2.12738 81.9021C1.68994 81.1121 1.1611 80.4135 0.899947 79.5321C0.547385 78.3895 0.286229 76.5484 0.194824 75.2361C0.194824 67.8649 1.0697 66.8138 3.17854 59.7103C3.35482 59.0966 3.43969 58.5677 3.61597 57.954C3.70738 57.3403 3.96853 56.7266 4.14481 56.1978C4.40597 55.2315 4.67366 54.2652 4.93481 53.3903C5.37225 51.4578 7.65737 48.128 5.54853 47.6906C4.93481 47.6057 4.40597 47.6906 3.88366 47.2531C3.35482 46.9006 2.8325 46.6394 2.30366 46.2869C2.12738 46.1106 1.86623 45.9343 1.77482 45.4969C1.9511 45.4055 2.12738 45.3206 2.21226 45.3206C3.43969 45.0594 4.58225 44.7917 5.80969 44.5306C6.59969 44.3543 7.47456 44.2694 8.35596 44.178C8.70852 44.0866 9.05455 43.9169 9.23084 43.4729C9.49199 42.7678 9.93596 42.1541 10.1057 41.3706C10.9806 39.7057 11.5943 37.9494 12.5606 36.3695C13.4355 34.9657 14.3169 33.7383 15.4529 32.6871C15.6292 32.426 15.8903 32.1583 16.0666 31.9886C16.4192 31.7274 16.7717 31.5511 17.2092 31.636C17.738 31.8123 18.2603 31.5446 18.874 31.5446C18.9589 31.5446 18.9589 31.5446 19.0503 31.4597C20.2778 31.1986 20.7152 31.7209 21.0677 32.6871C21.5052 33.562 21.6815 34.4434 21.6815 35.4946C21.6815 36.0234 21.7663 36.4609 21.8577 36.8983C21.9426 37.2509 21.9426 37.6883 21.8577 38.1257C21.7663 38.5632 21.6815 39.0006 21.5966 39.5294C21.4203 40.2346 21.244 40.9332 21.0677 41.6318C21.0677 41.8929 21.0677 42.0692 20.9763 42.3369C21.2375 42.5132 21.5052 42.5132 21.8512 42.5132C22.9024 42.4218 24.0449 42.3369 25.0961 42.252C26.5847 42.252 28.1647 42.252 29.6598 42.252C30.1886 42.252 30.7109 42.4283 31.3247 42.5132C31.1484 42.7743 31.0635 42.9506 30.9721 43.042C30.7958 43.2183 30.5347 43.3946 30.3584 43.4794C29.7447 43.7406 29.0395 44.0932 28.4258 44.3543C28.4258 44.4392 28.3344 44.4392 28.3344 44.4392C27.3681 44.5306 26.317 44.968 25.2658 44.8766C24.6521 44.8766 24.0384 44.968 23.4247 45.1378C23.0721 45.3141 22.6347 45.3141 22.2821 45.3989C21.577 45.4903 20.9633 45.5752 20.2647 45.6601C19.9121 45.745 19.7359 46.0127 19.5661 46.3587C19.4747 46.4501 19.4747 46.535 19.3898 46.6198C18.3387 49.6036 16.9349 52.411 15.7924 55.3033C15.6161 55.6559 15.4398 56.0084 15.355 56.2696C14.9175 57.1444 14.565 57.9344 14.3038 58.9007C14.0426 59.6907 13.6052 60.4807 13.1612 61.1793C12.8087 61.793 12.9001 62.583 12.4626 63.1967C11.4964 65.3905 10.3538 72.0565 10.5301 75.3927C10.6215 76.7965 10.9675 78.1088 11.405 79.4276C11.5812 79.8651 11.9338 80.1327 12.195 80.4788C12.2864 80.4788 12.3712 80.5636 12.5475 80.5636C13.3375 80.5636 14.9175 80.655 15.7075 80.1262C16.2364 79.7736 18.8675 77.6713 19.3898 77.2339C20.7087 75.9151 23.6858 72.6702 24.5672 70.9204C25.3572 69.4318 25.7947 67.4993 26.5847 66.0956C26.9372 65.2207 27.8121 63.2881 28.2495 62.3219C28.7131 62.4329 29.3268 62.0803 29.2354 62.3415ZM15.6422 49.362C16.5171 47.1683 16.7848 45.412 13.8859 47.2597C12.9197 50.152 12.5671 52.1694 11.7836 54.892C9.85108 62.1717 12.6585 56.7331 13.8859 53.4883C14.4997 51.8169 14.8522 50.942 15.6422 49.362ZM18.3583 39.2683C18.4497 38.9157 18.5345 38.4783 18.6194 38.0409C18.7108 37.3357 18.8806 36.6371 18.972 35.9385C19.0634 35.1485 18.972 34.3585 18.8871 33.5686C18.7957 33.216 18.5345 33.1311 18.3583 33.3074C18.0057 33.5686 17.7445 33.7448 17.5683 34.1823C17.2157 34.8874 16.8631 35.6709 16.6934 36.4609C16.6085 36.722 16.4322 36.9897 16.3408 37.2509C16.1645 37.6034 15.9883 37.9494 15.812 38.3934C15.6357 39.2683 15.4594 40.2346 15.1983 41.2008C14.8457 43.4794 17.3006 43.5708 17.8294 41.9908C18.0122 41.116 18.182 40.2346 18.3583 39.2683Z" fill="black"/>
<path d="M34.6742 65.4101C35.0268 64.0913 38.0954 57.8692 38.7091 56.8115C39.2379 56.0215 39.7603 55.2315 40.1977 54.3567C40.7265 53.6516 41.2489 52.8681 41.6014 52.163C41.954 51.5492 42.4763 51.1967 43.0051 51.1118C43.6188 51.1118 44.1477 51.0204 44.67 51.0204C45.7212 51.0204 46.3349 51.8104 46.8637 52.953C46.8637 53.0378 46.8637 53.1292 46.8637 53.3055C47.04 54.4481 47.3012 55.6755 47.4774 56.9029C47.6537 58.0455 47.5623 59.2729 47.5623 60.409C47.5623 61.199 47.6537 61.989 47.5623 62.779C47.9997 63.0401 47.9149 63.3927 47.9997 63.3078C48.176 63.1315 48.7897 63.3927 48.966 63.2164C49.0509 63.0401 49.2272 62.9552 49.3186 62.779C49.6711 62.5178 50.0237 62.2501 50.3697 61.8127C50.6309 61.3752 50.8986 61.3752 51.2446 61.8127C51.2446 62.0738 51.1532 62.3415 50.8921 62.5178C50.8006 62.6027 50.7158 62.779 50.6309 62.9552C50.546 63.2164 50.3697 63.4841 50.1021 63.569C50.0107 63.6538 49.9258 63.7452 49.8409 63.8301C49.756 63.915 49.5797 64.0064 49.5797 64.0913C49.4883 64.1827 49.4035 64.1827 49.3186 64.2676C48.966 64.6201 48.7049 64.705 48.3523 64.705C48.2674 64.705 47.9149 64.7964 47.5623 65.0576C47.3012 65.2338 47.0335 65.2338 46.8572 65.0576C46.2435 64.705 45.6298 64.6201 45.016 64.3524C43.9649 64.0913 43.1749 63.125 42.7374 61.8976C42.2086 60.3176 42.2086 58.5678 42.4763 56.8964C42.6526 56.1064 42.6526 55.4078 42.7374 54.7027C42.8289 54.1739 42.9137 53.6516 42.9986 53.1227C43.1749 52.7701 43.1749 52.509 43.0835 52.1564C42.9986 52.1564 42.8223 52.0716 42.8223 52.2478C42.7309 52.3327 42.5612 52.509 42.4698 52.6853C42.1172 53.3904 41.6798 54.089 41.2423 54.879C40.9812 55.3164 40.8049 55.8453 40.7135 56.459C40.7984 56.8115 40.5372 57.0727 40.4523 57.3339C39.6623 58.8224 38.9637 60.2262 38.4349 61.8976C37.9975 63.125 37.3837 64.1762 36.8549 65.4036C36.0649 67.2447 35.0986 68.9096 34.4849 70.8422C34.3086 71.4559 33.9561 72.161 33.6949 72.8596C33.5186 73.3884 31.3249 77.5996 30.8026 78.037C30.8026 78.2133 30.5414 78.2982 30.3652 78.4745C29.314 79.9631 28.0866 79.8782 26.6829 79.5256C26.5066 79.7019 26.3303 79.5256 26.154 79.3493C24.7503 78.9968 24.0452 77.6845 23.6991 75.9282C23.438 74.4396 23.438 72.8596 23.438 71.3645C23.5229 69.0859 23.6143 66.8008 23.7906 64.5222C24.228 61.9759 23.882 62.1522 24.5805 59.7822C25.1943 56.361 24.8417 56.8899 26.0691 53.4687C26.154 52.855 26.5066 52.4176 26.6829 51.8039C27.2966 50.2239 27.8254 48.8202 28.524 47.4164C28.8766 46.2739 29.2291 46.0976 30.104 46.2739C30.7177 46.2739 31.5077 46.4502 32.2977 46.6264C32.8266 46.7113 33.3489 46.8876 34.054 47.5013C34.6677 48.6439 35.5426 49.4339 36.424 50.485C37.214 51.8887 37.3903 52.9399 36.8614 54.6113C36.424 56.3676 36.2477 55.0487 35.8103 56.8899C34.6677 60.5722 32.5654 63.471 31.5991 66.8008C30.2933 71.025 34.3282 66.9052 34.6742 65.4101Z" fill="black"/>
<path d="M83.1906 62.8704C83.0992 63.4841 82.2243 65.5864 81.7869 65.939C81.5257 66.0239 81.4343 66.2916 81.258 66.3764C80.9055 66.8139 80.6443 67.1664 80.2918 67.519C80.1155 67.6953 79.8543 67.8715 79.7629 68.1327C79.5018 68.6615 79.1492 68.9227 78.7118 69.1839C78.5355 69.2753 78.3592 69.3601 78.2743 69.5364C77.7455 70.1501 77.0469 70.679 76.5181 71.2013C75.9892 71.6387 75.4669 71.9064 74.8532 72.0762C74.0632 72.2524 73.3646 72.2524 72.6595 72.5136C72.0458 72.7748 71.3406 72.7748 70.642 72.951C70.3809 72.951 70.1132 72.951 69.852 72.951C68.8009 72.5985 67.7432 72.4222 66.8683 71.7236C66.7769 71.6322 66.6072 71.5473 66.4309 71.4624C65.6409 71.1099 64.8509 70.6725 64.3286 69.9739C63.6235 70.3264 63.0097 70.679 62.4874 71.1164C62.1349 71.2927 61.8737 71.469 61.5211 71.7301C61.4363 71.7301 61.3449 71.815 61.3449 71.815C60.816 72.5201 60.1174 72.605 59.4123 72.8662C58.1849 73.2187 56.9574 73.2187 55.8149 72.605C55.3774 72.3439 54.94 72.1676 54.496 71.9913C51.9498 70.9401 50.5461 69.0076 50.2849 66.2916C50.1086 64.8878 50.3698 63.569 50.99 62.3416C51.6037 61.199 52.2175 60.063 53.0923 59.0967C53.0923 59.0118 53.1772 58.9204 53.2686 58.8355C54.4112 57.0793 55.8149 55.4144 57.1272 53.8344C58.0935 52.7832 59.1446 51.9018 60.4569 51.1184C60.6332 51.027 60.9858 50.9421 61.2469 50.9421C61.7758 50.8507 62.2981 50.7658 62.9118 50.7658C62.9967 50.7658 63.0881 50.7658 63.173 50.7658C63.7018 51.027 64.4004 51.027 65.0141 51.2032C65.1904 51.2881 65.3667 51.3795 65.543 51.3795C65.9804 51.4709 66.333 51.4709 66.5092 51.817C66.5941 51.9084 66.6855 51.9084 66.6855 51.9084C67.123 51.9084 67.4755 52.3458 67.913 52.3458C68.0892 52.3458 68.2655 52.4372 68.3504 52.5221C68.8792 53.0509 69.4929 53.4884 69.839 54.1021C69.9239 54.3632 70.0153 54.5395 70.1001 54.8007C70.2764 55.5907 70.1001 56.1195 69.3101 56.5569C68.5201 56.9095 67.8215 57.4318 67.1164 57.9607C67.1164 57.9607 67.1164 57.9607 67.1164 58.0521C66.1501 59.0183 65.0141 59.8932 64.2241 61.0358C63.8716 61.4732 63.519 61.8258 63.173 62.1783C62.383 63.0532 61.7692 64.0195 61.0707 64.9858C60.8095 65.4232 60.4569 65.8606 60.1958 66.2132C60.0195 66.3895 59.9346 66.5658 59.8432 66.742C59.3144 67.7083 58.9683 68.6746 58.7921 69.6344C58.7072 69.7192 58.7921 69.8106 58.7921 69.9869C58.9683 69.902 59.0532 69.8106 59.1446 69.7258C60.0195 68.8509 60.9858 67.9695 62.0369 67.1795C62.5658 66.742 63.0032 66.3046 63.3558 65.6909C63.5321 65.4297 63.7932 65.1621 64.0609 64.9009C64.5897 64.2872 65.112 63.6735 65.5495 62.9683C66.1632 62.0021 66.7769 61.0358 67.3906 59.9846C68.1806 59.8997 68.7944 59.9846 69.3232 60.5983C69.4995 60.7746 69.6758 60.9509 69.852 61.1272C70.4658 61.9172 70.5506 62.7921 70.642 63.6735C70.642 63.8497 70.5506 63.9346 70.4658 64.1109C70.1132 64.9009 69.6758 65.7758 69.2383 66.5658C68.9772 67.1795 68.8858 67.7932 68.9772 68.4069C69.1534 69.112 69.4146 69.8955 69.7672 70.6006C69.9434 70.8618 70.2046 71.0381 70.5572 71.0381C71.1709 70.9532 71.7846 70.8618 72.3983 70.6006C72.9272 70.3395 73.5409 70.0718 74.0632 69.7258C74.6769 69.3732 75.2906 69.0206 75.9957 68.5832C76.4332 68.1458 76.962 67.7932 77.3995 67.3558C78.542 66.2132 80.2918 63.3209 81.4343 62.1783C81.5257 62.0869 81.6106 62.0869 81.6955 62.0021C82.3092 62.0804 82.7466 62.433 83.1906 62.8704Z" fill="black"/>
<path d="M110.377 63.7453C110.116 64.0979 110.025 65.4102 109.94 65.8476C109.848 66.1088 109.326 66.3764 109.15 66.5527C108.974 67.0816 106.081 67.7802 105.814 67.7802C104.939 68.309 102.654 66.729 102.392 66.6376C102.392 66.6376 101.165 65.7627 101.074 65.6713C100.989 65.495 99.5849 64.2676 99.4087 64.0913C98.6187 62.6027 98.1812 62.1588 97.3912 60.755C96.6012 61.8062 96.7775 61.8976 96.0724 63.3013C95.3673 64.6202 94.8449 66.0174 93.9635 67.4276C93.7024 67.6039 93.611 67.865 93.4412 68.0413C93.1801 68.9162 92.6512 69.6213 91.9526 70.3199C91.4238 71.025 91.0778 71.7236 90.7252 72.5985C90.7252 72.6834 90.6403 72.9511 90.6403 73.0359C90.7252 73.6496 90.3792 74.0871 90.1115 74.6159C89.5827 75.2296 89.1452 75.8434 88.7927 76.6334C88.2638 77.8608 87.7415 78.8271 86.5141 79.6171C86.2529 79.9696 85.9003 80.1459 85.4629 80.1459C85.2017 80.1459 84.8492 80.1459 84.4966 80.0545C84.0592 80.0545 83.5303 80.1459 82.9166 80.2308C81.6892 80.7596 80.4618 80.4071 79.9329 79.1796C79.6718 78.5659 76.9492 76.7248 76.5118 76.2873C75.8981 75.6736 74.9318 73.6562 75.1081 72.8662C75.1081 72.1611 75.2843 71.5473 75.3692 70.9336C75.7218 69.6148 75.8981 68.0413 76.2441 66.6376C76.5052 65.5864 76.6815 64.5288 76.9492 63.3927C77.5629 60.9379 78.0004 58.5679 78.6141 56.2893C79.0515 54.8856 79.3192 53.6581 79.5804 52.2544C79.6652 51.4644 79.6652 50.5895 79.9329 49.7995C80.0243 48.9247 79.9329 49.2707 80.0243 48.5721C80.1092 48.3109 80.1092 48.1347 80.2855 47.867C80.5466 47.6907 80.8992 47.7821 81.1604 48.0433C81.2518 48.2195 81.5129 48.4807 81.5978 48.5721C81.9504 49.0095 81.7741 49.1009 82.3878 49.1009C82.5641 49.1009 82.9166 49.3621 82.9166 49.4535C83.3541 50.2435 84.0592 50.6809 84.6729 51.2098C85.0255 51.9149 85.6392 52.3523 85.7241 53.2272C85.3715 53.2272 85.2017 53.2272 84.8492 53.1358C84.6729 53.6647 84.4966 54.0107 84.7643 54.6244C85.2018 55.4993 85.2018 56.4656 85.2932 57.5167C85.2932 57.9541 85.3846 58.3916 85.3846 58.6593C85.7306 59.7104 85.7306 60.853 85.7306 61.9041C85.7306 62.1653 85.7306 62.3416 85.7306 62.6093C85.822 63.4841 85.822 64.3655 85.822 65.2404C85.7306 65.9455 85.822 66.6441 85.9069 67.2578C85.9069 67.8716 85.9069 67.8716 85.6457 68.4853L85.3846 68.3939C85.2932 67.9564 85.2932 67.6039 85.2083 67.2513C85.2083 67.1664 85.032 67.075 84.9471 66.9902C84.8622 66.9902 84.7708 66.8139 84.686 66.9902C84.5946 66.9902 84.5097 67.1664 84.5097 67.2513C84.5097 68.2176 84.5097 69.0925 84.5946 69.9673C84.686 70.4048 84.7708 70.9336 84.686 71.3711C84.5946 71.7236 84.686 71.9848 84.8622 72.1611C84.9471 72.1611 85.2148 72.2525 85.2997 72.1611C85.3911 72.1611 85.476 71.9848 85.3911 71.8085C85.2997 71.3711 85.476 70.7573 85.6522 70.1436C85.6522 70.1436 85.7371 70.0587 85.8285 69.9673C85.8285 70.0587 85.9134 70.1436 85.9134 70.3199C86.0897 70.8487 86.0897 71.2862 86.0897 71.7236C86.1746 71.9848 86.1746 72.0762 86.266 72.2525C86.266 72.4287 86.3574 72.5136 86.3574 72.5136C85.9199 73.1273 86.4422 73.3036 86.5336 73.741C86.7099 73.6496 86.8862 73.4799 86.9711 73.3885C88.2899 71.8085 89.6022 70.3199 90.7448 68.4787C91.1822 67.865 91.6197 67.2513 92.0636 66.6376C92.6773 65.8476 93.1148 64.9727 93.4674 64.0064C93.6436 63.3927 93.9897 62.6027 94.3422 62.0739C95.3085 59.7953 95.4848 61.2839 96.0985 59.2665C96.1834 59.0053 95.6611 56.9879 95.5697 56.6353C95.5697 54.9704 95.1322 55.0553 96.1834 54.7942C96.5359 54.7942 98.1159 55.1467 98.3771 55.323C98.9059 55.5842 98.462 55.6756 99.0822 55.6756C99.4348 55.5907 99.6959 55.767 99.9571 55.8518C100.133 55.9432 100.218 56.0281 100.31 56.2893C100.31 56.4656 100.395 56.5504 100.486 56.8181C101.015 60.2393 101.361 60.9444 102.327 63.223C103.117 63.8367 104.083 66.2067 105.84 65.8541C106.715 65.593 107.158 65.2404 108.033 65.0641C108.823 64.8879 109.437 63.9216 110.227 63.4841C110.318 63.3927 110.403 63.3927 110.488 63.3927C110.554 63.569 110.469 63.6604 110.377 63.7453ZM84.588 63.1316L84.6794 63.3079C84.6794 63.3927 84.7643 63.3079 84.7643 63.3079C84.8492 63.0467 84.8492 62.8704 84.9406 62.6941C84.9406 62.5179 84.9406 62.433 84.9406 62.2567C84.8557 62.1718 84.7643 62.0804 84.6794 62.1718C84.6794 62.2567 84.588 62.433 84.6794 62.433C84.7643 62.5244 84.8557 62.6093 84.9406 62.6941C84.8557 62.8704 84.7643 63.0467 84.588 63.1316ZM84.7643 63.9216C84.7643 63.8367 84.6794 63.8367 84.6794 63.8367C84.588 63.8367 84.588 63.9216 84.588 63.9216C84.588 64.0979 84.6794 64.0979 84.6794 64.1827C84.7643 64.0979 84.7643 63.9216 84.7643 63.9216ZM84.8557 64.7116C84.8557 64.803 84.8557 64.803 84.8557 64.803C84.8557 64.803 84.8557 64.803 84.9406 64.803C84.9406 64.7116 84.9406 64.7116 84.8557 64.7116ZM85.378 73.395C85.2866 73.5713 85.2018 73.5713 85.2018 73.6562C85.2018 73.6562 85.2018 73.7476 85.2866 73.7476C85.2866 73.7476 85.378 73.6562 85.4629 73.6562C85.378 73.5713 85.378 73.5713 85.378 73.395ZM85.4694 72.605C85.6457 72.5136 85.6457 72.3439 85.4694 72.2525C85.3846 72.2525 85.3846 72.2525 85.3846 72.2525C85.3846 72.3373 85.2932 72.4287 85.2932 72.605C85.2932 72.605 85.3846 72.605 85.3846 72.7813L85.4694 72.605Z" fill="black"/>
<path d="M113.536 62.6027C113.536 62.779 113.36 62.9553 113.184 63.0401C113.093 63.1315 112.923 63.2164 112.923 63.4776C112.838 63.8301 112.746 63.915 112.485 64.0064C112.309 64.0913 112.309 64.1827 112.224 64.705C112.4 64.705 112.485 64.705 112.577 64.7964C112.577 64.7964 112.577 64.7964 112.577 64.8813C112.4 64.8813 112.224 64.8813 111.963 64.8813C112.054 64.6201 112.054 64.3525 112.054 64.1827C111.963 64.1827 111.878 64.1827 111.878 64.1827C111.793 64.7964 111.702 65.4101 111.617 66.0239C111.793 66.1153 111.878 66.2001 111.97 66.2001C112.061 66.8139 112.061 67.3427 112.061 67.9564C112.061 68.5701 112.237 69.099 112.414 69.5364C112.675 69.889 113.38 71.815 113.641 72.1676C114.868 73.395 116.364 74.975 117.761 75.0599C118.198 75.1447 120.744 74.7073 121.182 74.6224C123.291 74.0087 125.308 72.8662 127.234 71.3776C128.723 70.235 130.126 68.9227 131.622 67.6953C131.706 67.6104 131.798 67.519 131.883 67.4341C132.412 66.8204 132.934 66.2915 133.463 65.6778C134.429 64.7115 135.304 63.7453 136.094 62.6092C136.355 62.1718 136.623 61.7344 137.145 61.5581C136.969 62.3481 136.792 63.0467 136.44 63.7518C136.348 64.013 136.179 64.2806 136.002 64.4569C135.474 65.0706 135.036 65.5995 134.684 66.2981C134.422 66.6506 134.07 67.0032 133.809 67.3492C133.717 67.4406 133.632 67.6104 133.456 67.8781C133.717 67.7932 133.894 67.7018 134.161 67.6169C134.07 68.1458 133.632 68.2306 133.548 68.6681C133.639 68.7595 133.639 68.8443 133.809 68.9292C133.548 69.3667 133.28 69.6343 132.934 69.9804C132.405 70.4178 131.883 70.9467 131.445 71.469C130.655 72.3438 129.78 73.049 128.899 73.7476C128.462 74.1001 128.109 74.4462 127.672 74.7138C127.319 74.975 126.966 75.1513 126.62 75.419C126.092 75.6801 125.569 75.9478 125.04 76.2938C124.166 76.8227 123.199 77.2601 122.233 77.4364C121.972 77.5278 121.704 77.6127 121.443 77.6975C120.392 78.0501 119.341 78.2264 118.283 78.3113C117.056 78.4875 111.878 77.5213 110.742 77.0838C107.674 75.8564 107.06 74.3678 105.656 73.1338C105.127 72.6964 104.69 71.9913 104.429 71.2927C103.991 70.1501 103.9 68.9227 103.815 67.6104C103.815 64.8878 104.514 62.2567 105.656 59.8018C105.917 59.273 105.917 59.273 105.832 58.483C105.395 58.7441 105.134 58.9204 104.958 59.4492C104.696 60.2392 104.344 60.9378 103.906 61.7278C103.906 60.9378 104.259 60.409 104.52 59.7953C105.225 58.2153 106.009 56.7267 106.975 55.323C107.941 53.8344 108.992 52.5155 110.22 51.2881C111.447 49.9693 112.766 48.8332 114.17 47.9518C114.522 47.7756 114.784 47.6907 115.045 47.5144C115.482 47.3381 115.92 47.2532 116.187 47.6907C116.448 47.9518 116.801 47.867 116.977 48.0432C117.238 48.2195 117.33 48.5721 117.506 48.7484C118.381 49.1858 121.717 50.0672 122.507 50.5895C122.768 50.7658 122.945 51.1184 123.121 51.4644C123.558 52.2544 123.911 53.1293 124.525 53.6581C124.701 53.8344 124.786 54.1869 124.877 54.4481C125.053 55.4993 125.138 56.4655 124.877 57.6081C124.701 58.8355 124.172 59.9781 123.558 61.0292C123.206 61.643 122.853 62.1718 122.592 62.8704C122.416 63.4841 122.063 64.013 121.717 64.6267C121.365 65.3318 120.751 65.7692 120.137 65.9455C119.608 66.2067 118.995 66.2981 118.472 66.2067C118.211 66.1218 117.944 66.2067 117.767 65.8541C117.767 65.7692 117.682 65.7692 117.682 65.7692C116.977 65.8541 116.54 65.0641 116.017 64.803C115.926 64.7115 115.841 64.4504 115.841 64.3655C116.017 64.013 115.841 63.8367 115.75 63.5755C115.397 62.8769 115.051 62.0869 114.607 61.3818C114.522 61.1206 114.255 61.0292 113.994 61.2904C113.889 61.7278 113.536 62.0804 113.536 62.6027ZM105.199 70.5027C105.29 70.7638 105.375 70.9401 105.46 71.2078C105.46 71.469 105.721 71.6452 105.552 71.9978C105.46 71.9129 105.375 71.9129 105.375 71.8215C104.938 70.9467 104.762 69.8041 104.585 68.6615C104.494 68.5767 104.585 68.4853 104.585 68.4004C104.585 67.0815 104.585 65.8541 104.938 64.5418C105.023 64.2806 105.114 64.013 105.114 63.7518C105.114 63.5755 105.114 63.4906 105.114 63.1381C104.853 63.6669 104.677 64.013 104.585 64.3655C104.494 64.803 104.409 65.1555 104.324 65.5929C103.972 67.8715 104.063 69.9804 105.029 71.8215C105.206 72.1741 105.467 72.4352 105.734 72.7878C105.911 72.9641 106.087 73.049 106.348 73.1404C106.348 73.2318 106.44 73.1404 106.609 73.1404C106.348 72.7029 106.08 72.3504 105.904 71.9129C105.643 71.3841 105.643 70.8618 105.375 70.4243C105.29 70.4113 105.199 70.5027 105.199 70.5027ZM105.199 64.8878C104.762 66.2915 104.847 67.6104 105.023 68.9227C105.023 69.0076 105.114 69.0076 105.199 69.099C105.29 68.1327 105.375 67.2578 105.46 66.3764C105.552 65.7627 105.637 65.149 105.375 64.6201C105.29 64.7115 105.199 64.7964 105.199 64.8878ZM111.428 67.0815C111.428 67.1729 111.428 67.1729 111.428 67.2578C111.428 67.1664 111.428 67.1664 111.428 67.0815ZM116.253 57.8692C116.076 58.1304 115.815 58.483 115.639 58.8355C115.286 59.4492 115.378 59.8867 115.815 60.1544C116.076 60.3306 116.429 60.5069 116.605 60.7681C117.134 61.3818 117.833 61.2969 118.538 61.2055C119.151 61.0292 119.589 60.4155 119.941 59.8018C120.555 58.3132 120.908 58.0455 121.43 56.5569C122.834 53.2207 120.026 54.0107 118.707 55.0683C117.748 55.7669 117.043 56.903 116.253 57.8692Z" fill="black"/>
<path d="M159.853 66.5527C159.415 67.4276 157.92 69.3601 157.92 70.3264C157.835 70.4178 157.568 70.679 157.391 70.7638C157.13 71.025 156.862 71.3776 156.686 71.815C156.51 72.2524 156.249 72.4287 156.072 72.7813C154.845 74.975 154.055 76.2024 152.038 78.135C151.509 78.5724 146.86 83.0447 146.508 83.4887C143.961 85.591 140.54 84.6312 138 84.7161C137.295 84.7161 136.597 84.6312 136.159 84.3636C135.369 83.9261 133.613 83.221 133.091 82.431C132.301 80.4984 130.283 79.1861 130.107 76.4636C130.022 75.7585 129.67 75.321 129.578 74.6224C129.663 71.815 130.107 69.0076 130.453 66.1153C130.982 64.0978 131.419 61.9041 131.772 59.8867C132.647 56.113 132.914 55.6755 134.579 52.2544C135.454 49.9758 136.244 49.7995 137.126 47.5144C137.739 46.287 138.444 45.0595 139.143 44.0084C139.672 42.6895 140.547 41.4621 141.337 40.1498C143.002 37.2575 144.843 34.7112 146.775 32.6089C148.094 31.2901 149.498 29.8863 150.81 28.7503C151.6 28.1366 152.39 27.4315 153.18 27.1703C153.441 26.994 153.702 26.9092 153.97 26.8178C155.198 26.7329 156.34 26.9026 157.215 27.784C158.09 28.574 158.358 29.8015 158.09 31.4663C157.914 32.5175 157.829 33.5686 157.561 34.5349C157.476 35.3249 157.124 36.0235 156.686 36.9049C156.072 38.3935 155.367 39.7972 154.408 41.2009C153.794 42.3435 153.089 43.4795 152.475 44.6221C151.424 46.2021 150.542 47.867 149.491 49.3621C147.65 51.8169 146.07 54.4481 144.405 56.9095C141.683 61.5581 141.95 62.3481 140.984 66.9967C140.632 68.8378 140.808 69.889 140.723 71.7366C140.814 72.2655 141.076 75.6866 141.16 76.0327C141.422 77.2601 141.689 77.6975 142.212 78.8401C142.388 79.1927 143.615 79.4538 144.053 79.6301C144.666 80.0675 149.315 76.9141 149.929 76.4701C151.332 75.6801 152.475 74.3678 153.702 73.1338C155.021 71.9064 155.635 70.5027 156.771 68.8378C158.351 66.7355 158.873 64.9792 160.545 62.7006C161.785 62.5178 161.08 64.359 159.853 66.5527ZM145.816 50.7658C148.623 46.2935 149.06 45.5884 151.607 40.7635C152.573 38.9223 153.363 37.0812 154.329 35.24C154.767 33.9212 155.028 32.6089 155.204 31.2901C155.38 30.8526 155.38 30.5849 154.943 30.7612C154.505 30.8461 154.238 31.0224 153.977 31.1986C152.834 31.6361 151.783 32.5175 150.993 33.7449C150.379 34.45 149.942 35.2335 149.237 35.9386C148.447 36.9049 148.009 37.8712 147.657 39.0072C147.219 39.8821 146.782 40.9398 146.338 41.8147C145.724 43.6558 144.849 45.497 143.968 47.3446C143.615 48.2195 143.354 49.1858 143.002 50.0607C141.95 53.0444 142.388 51.5493 141.422 54.533C141.16 55.2381 141.33 57.2555 142.473 56.0216C143.798 54.0955 144.679 52.7832 145.816 50.7658Z" fill="black"/>
</svg>
