<svg width="246" height="127" viewBox="0 0 246 127" fill="none" xmlns="http://www.w3.org/2000/svg">
<path d="M170.213 67.9597C169.764 68.5671 169.007 70.2396 168.188 72.0881C168.092 72.2642 167.995 72.4403 167.907 72.6163C167.977 72.4579 168.056 72.3082 168.127 72.1498C168.083 72.2466 168.03 72.3434 167.977 72.4403C167.951 72.5195 167.933 72.5635 167.907 72.6339C167.026 74.2712 166.129 75.9878 165.354 77.1321C164.738 77.7483 164.368 78.1709 163.734 78.8839C162.739 80.0106 164.368 76.9473 164.746 76.155C163.866 77.1586 162.854 78.655 161.604 80.3892C161.489 80.53 161.366 80.6797 161.252 80.8293C162.889 78.3997 164.306 75.8469 165.486 73.1797L165.592 73.3557C166.137 72.141 166.525 71.4456 166.815 70.6797C167.141 69.9227 167.475 69.1216 167.933 67.7132C167.942 67.6868 167.951 67.6604 167.96 67.6252L167.951 67.6339C167.581 68.0653 167.211 68.9456 166.806 69.9491C166.71 70.1955 166.595 70.4596 166.489 70.7149C170.935 59.0688 171.058 45.7591 165.785 33.3824C165.011 31.5514 164.122 29.8085 163.162 28.1271C164.289 29.7644 165.319 31.4458 166.269 33.1799C166.445 32.5373 166.666 31.8947 166.349 30.3454C166.173 29.5796 165.944 28.5409 165.363 27.238C165.055 26.5954 164.685 25.8736 164.245 25.055C164.016 24.6412 163.778 24.2099 163.523 23.7522C163.276 23.2856 162.986 22.819 162.625 22.3525C161.868 21.2257 161.023 20.1518 160.125 19.0867C159.984 18.893 159.852 18.6993 159.711 18.5057C159.095 17.7663 158.453 16.9916 157.784 16.1906C157.44 15.7856 157.097 15.3807 156.754 14.967C156.384 14.5709 155.979 14.2011 155.574 13.805C153.435 12.1765 150.354 9.89659 147.009 8.03921C146.366 7.6871 145.733 7.33498 145.099 6.98287C144.843 6.79801 144.588 6.61315 144.324 6.42829C143.505 6.09378 142.361 5.62725 141.208 5.1519C140.689 4.92303 140.16 4.69415 139.676 4.48288C138.928 4.18359 138.206 3.98114 137.555 3.75227C131.252 1.3139 124.738 0.283966 118.444 0.442416C112.141 0.600866 106.014 1.89486 100.363 4.28041C99.2187 4.65013 98.1712 5.25753 97.0796 5.77689C96.0145 6.34027 94.8877 6.79802 93.8842 7.46704L90.8472 9.43003L90.0902 9.92299L89.386 10.4864L87.9863 11.6131C86.0673 13.048 84.4565 14.8085 82.8015 16.4458C81.9917 17.2909 81.305 18.2328 80.5656 19.1131C80.0903 19.6853 79.6413 20.2663 79.21 20.8649C79.0075 21.1289 78.7786 21.4458 78.5234 21.8595C78.0128 22.3349 77.3438 22.9951 76.5427 23.893C75.7065 24.7645 74.9847 26.0233 74.078 27.5109C71.7716 31.6394 69.4477 36.8243 68.4882 42.0355L68.2594 42.995L68.1273 43.9633C68.0481 44.6059 67.9601 45.2397 67.8808 45.8647C67.8104 46.4897 67.74 47.1059 67.6608 47.7133C67.5903 48.3207 67.6256 48.9193 67.608 49.5003C67.5992 50.6622 67.6167 51.7714 67.652 52.8013C67.7224 53.8312 67.9073 54.7819 68.0569 55.627C68.0217 56.4016 68.0041 57.2027 68.0041 57.9949C68.0393 58.7784 68.1537 59.553 68.2417 60.2924C68.4618 61.7537 68.6115 63.0829 68.9372 63.9456C69.6238 66.3311 70.4776 68.7871 71.49 71.2519C71.5076 71.3047 71.5252 71.3487 71.5428 71.4015C73.5234 76.9033 76.5516 82.3258 80.328 86.5511C80.2487 86.4191 80.0638 86.155 79.9582 85.9877C80.1167 86.1902 80.2927 86.3838 80.4512 86.5863C80.68 86.8944 80.9441 87.2113 81.2258 87.5194C83.3121 89.949 85.6008 92.1761 88.048 94.0863C88.761 94.588 89.4828 95.0986 90.2135 95.6091C90.9353 96.1197 91.6483 96.6655 92.4318 97.088C93.1976 97.537 93.9634 97.9859 94.7205 98.4348L95.8473 99.1038C96.2346 99.3063 96.6307 99.4736 97.018 99.6672C100.081 101.225 103.136 102.29 105.68 102.977C107.229 103.285 108.682 103.593 110.09 103.901C111.516 104.095 112.889 104.28 114.227 104.456C114.624 104.518 115.011 104.553 115.407 104.579C115.442 104.579 115.469 104.588 115.504 104.588C115.601 104.606 115.706 104.614 115.803 104.623C115.891 104.632 115.979 104.641 116.067 104.65C116.331 104.676 116.595 104.711 116.868 104.729C116.903 104.729 116.947 104.738 116.991 104.738C117.581 104.79 118.197 104.826 118.831 104.861C118.153 104.817 117.555 104.773 117 104.72L117.062 104.641C117.44 104.65 117.819 104.667 118.197 104.694C118.787 104.711 119.368 104.746 119.949 104.755C120.125 104.764 120.301 104.782 120.477 104.79C121.666 104.773 122.898 104.755 124.051 104.738C125.213 104.764 126.278 104.579 127.167 104.518C128.048 104.438 128.743 104.403 129.131 104.421C130.689 103.822 127.599 104.35 124.87 104.694C126.296 104.526 127.845 104.236 129.43 103.989C131.014 103.734 132.581 103.206 134.122 102.854C134.307 102.81 134.491 102.766 134.676 102.713C134.351 102.81 134.051 102.907 133.761 102.995C132.898 103.268 132.123 103.523 131.014 103.664C130.292 103.963 130.583 103.981 131.542 103.831C134.535 103.206 139.914 101.349 140.16 100.979C140.169 100.979 140.178 100.97 140.187 100.97C140.741 100.785 141.234 100.592 141.692 100.451L142.995 99.5704L143.611 99.3415C143.444 99.3855 143.268 99.4295 143.074 99.4912C146.56 97.6954 150.213 95.5651 152.335 93.4349C152.555 93.1796 152.704 92.9859 152.819 92.8275C153.769 92.2641 152.423 93.3116 152.176 93.6637C152.722 93.2412 153.25 92.8627 153.699 92.4842C154.13 92.0704 154.518 91.7007 154.87 91.3574C155.565 90.6796 156.058 90.1338 156.287 89.7641L154.394 91.463L153.453 92.3081L152.889 92.7218C153.048 92.493 153.092 92.3873 153.065 92.3433C153.285 92.1232 153.488 91.912 153.681 91.7007C154.447 90.8381 155.055 90.1778 155.372 89.9314C158.083 87.5722 160.011 85.6092 161.718 83.7254C161.683 83.8046 161.648 83.8927 161.613 83.9719C161.437 84.2007 161.261 84.4296 161.067 84.6849C159.993 86.0494 158.549 87.5194 157.995 88.162L160.363 85.9261C160.583 85.6092 160.794 85.3011 160.97 84.949C161.252 84.5793 161.41 84.4208 161.507 84.3504C161.525 84.3592 161.56 84.3504 161.622 84.3064C161.639 84.3152 161.648 84.3416 161.657 84.3592L161.771 84.1919C161.833 84.1391 161.912 84.0687 162.009 83.9807L162.026 83.8222L162.863 82.5986C162.88 82.537 162.88 82.5194 162.863 82.5194C163.224 82.1497 163.585 81.7888 163.981 81.3487C164.588 80.5652 165.31 79.5617 166.305 77.9508C166.322 77.9068 166.34 77.8364 166.366 77.7659C167.167 76.5159 167.951 75.1251 168.752 73.4702C168.989 73.1269 169.35 71.8417 169.65 70.6005C169.685 70.5125 169.702 70.442 169.738 70.354C169.984 69.3505 170.09 68.8047 170.081 68.5847C170.195 68.2325 170.222 67.9861 170.213 67.9597ZM162.123 83.3909L162.132 83.3381C162.176 83.2853 162.229 83.2324 162.273 83.1796C162.326 83.118 162.387 83.0652 162.44 83.0036C162.343 83.118 162.238 83.2501 162.123 83.3909Z" fill="#C6D2DB"/>
<path d="M169.086 34.6148L168.751 33.6553C168.733 33.6201 168.716 33.6112 168.698 33.5848C168.804 33.8841 168.936 34.2186 169.068 34.6324C169.077 34.6236 169.077 34.6148 169.086 34.6148Z" fill="#C6D2DB"/>
<path d="M168.699 33.5759C168.549 33.1622 168.435 32.8541 168.426 32.678C167.986 31.9738 168.391 33.259 168.945 34.8787C169.685 36.5161 167.951 32.4492 168.699 33.5759Z" fill="#C6D2DB"/>
<path d="M168.989 33.127C169.385 34.1305 169.949 35.7679 169.649 35.3805L170.336 36.7626L168.664 32.1499C168.848 33.0742 169.315 34.5971 169.086 34.6147L169.782 36.5865C169.209 34.6675 169.174 34.0689 168.989 33.127Z" fill="#C6D2DB"/>
<path d="M171.876 43.84C171.823 43.8136 171.841 44.2273 171.858 44.7115C171.894 44.6147 171.902 44.3682 171.876 43.84Z" fill="#C6D2DB"/>
<path d="M171.859 44.7026C171.727 45.0811 171.252 43.0917 171.595 46.5336C171.543 45.5653 171.49 44.5882 171.692 45.0107L171.815 46.023C171.939 46.2871 171.895 45.4244 171.859 44.7026Z" fill="#C6D2DB"/>
<path d="M169.684 37.6428C169.596 37.2379 169.464 36.8506 169.359 36.4545C169.244 36.7186 169.482 37.2555 169.64 38.0038C169.816 38.7432 170.037 39.6587 170.116 40.5918L170.353 41.2872L169.913 38.8664L169.684 37.6428Z" fill="#C6D2DB"/>
<path d="M158.919 88.2765L158.734 88.3909C158.646 88.5054 158.541 88.655 158.444 88.787C158.593 88.6286 158.734 88.479 158.919 88.2765Z" fill="#C6D2DB"/>
<path d="M157.043 90.0193C156.709 90.2657 156.357 90.565 155.433 91.4893C156.286 90.7939 157.167 90.1161 158.003 89.3855C158.17 89.1566 158.302 88.9805 158.443 88.7781C157.713 89.5967 157.369 89.7728 157.043 90.0193Z" fill="#C6D2DB"/>
<path d="M158.409 88.5844L158.734 88.3908C159.606 87.2464 160.319 86.5158 161.155 85.6707C161.903 84.764 162.749 83.7253 163.902 82.0264C162.942 83.1795 162 84.3767 161.12 85.5387C160.143 86.6214 159.227 87.6601 158.409 88.5844Z" fill="#C6D2DB"/>
<path d="M7.4056 47.7484V48.0301C6.55173 48.0301 5.83873 48.5583 5.83873 49.7643V57.5987C5.83873 62.0529 3.46198 63.7343 0.381006 64.1832L0.301758 63.9015C1.92147 63.3205 3.45316 61.8064 3.45316 57.7132V52.0706C3.45316 48.5231 3.43557 48.0301 1.98312 48.0301V47.7484H7.4056Z" fill="black"/>
<path d="M31.4815 61.0407H26.6312V60.759C27.8812 60.759 27.2914 59.2097 27.0626 58.6816L26.4552 57.1675H21.7721C21.508 57.9245 20.5045 60.8647 23.3214 60.7502V61.0319H18.8848V60.7502C19.4922 60.7326 19.9587 60.7502 21.7017 56.3489L24.9323 47.7397H25.1788C28.6559 56.0672 29.9147 59.289 29.9147 59.289C30.5397 60.8031 30.971 60.7062 31.4815 60.7414V61.0407ZM26.3407 56.8858L23.9992 50.9968L21.8249 56.8858H26.3407Z" fill="black"/>
<path d="M60.3985 60.759V61.0407H55.1344V60.759C55.9267 60.759 56.49 60.2133 56.49 58.796V48.5672L51.7101 61.2168H51.4284L46.1468 49.7732V56.3048C46.1468 57.3963 46.2964 60.759 48.6556 60.759V61.0407H43.1274V60.759C45.6978 60.759 45.8651 57.3787 45.8651 56.3048V49.3242C45.1697 48.0742 44.219 48.0742 43.7524 48.039V47.7573H48.0218L52.74 57.8981L56.4988 47.7573H60.2752V48.039C59.4654 48.039 58.8228 48.4879 58.8228 49.7027V58.8048C58.814 60.2132 59.5886 60.759 60.3985 60.759Z" fill="black"/>
<path d="M78.0299 47.7484V48.0301C77.2201 48.0301 76.5599 48.4438 76.5599 49.6146V58.8839C76.5599 60.1691 77.2377 60.7501 78.0299 60.7501V61.0318H72.7659V60.7501C73.5757 60.7501 74.2359 60.1691 74.2359 58.8839V49.6146C74.2359 48.4438 73.5933 48.0301 72.7659 48.0301V47.7484H78.0299Z" fill="black"/>
<path d="M100.442 57.0177V61.0406H90.3801V60.7589C91.1724 60.7589 91.4365 59.9314 91.4365 58.6462V50.0547C91.4365 48.884 91.2076 48.0301 90.3801 48.0301V47.7484H100.195V51.2431H99.9135C99.5966 48.0477 95.3977 48.0301 94.6319 48.0301H93.778V54.1832H94.7199C94.984 54.1832 97.4223 54.1832 97.572 52.2554H97.8537V56.4103H97.572C97.4223 54.4649 94.9664 54.4649 94.7199 54.4649H93.778V60.7501H94.5526C95.3801 60.7501 99.5526 60.7853 100.16 57.0089H100.442V57.0177Z" fill="black"/>
<path d="M127.036 58.8487C127.036 60.3804 125.9 61.0934 124.861 61.2079C124.861 61.2079 122.995 61.3751 122.238 60.266L121.182 58.7167C120.469 60.8646 116.596 62.4754 114.703 59.8522C112.819 57.2642 115.284 55.1868 116.78 54.3241L117.722 53.7607L116.719 52.2466C114.941 49.7907 116.138 47.4315 118.25 47.0706C119.518 46.8417 120.398 47.185 120.988 47.8453C121.728 48.7167 122.555 50.9438 119.685 52.9773L122.062 56.5072C122.775 54.9227 123.743 54.5618 124.236 54.4473C124.633 54.3505 125.161 54.3945 125.504 54.6762C125.953 55.0371 126.05 55.7325 125.618 56.2079C125.24 56.6568 124.544 56.736 124.069 56.3399C123.84 56.1287 123.726 55.9086 123.708 55.6005C123.708 55.2044 122.687 55.5037 122.221 56.7361L123.708 58.8927C124.289 59.7642 125.275 59.7642 125.275 59.7642C125.935 59.7642 126.596 59.5529 126.745 58.8575H127.036V58.8487ZM120.979 58.435L117.898 53.9984L116.956 54.6058C115.9 55.3628 115.161 57.229 116.64 59.06C117.652 60.3276 120.055 60.4244 120.979 58.435ZM118.162 50.7149L119.518 52.7132C121.992 51.0935 121.56 49.0864 120.724 48.0477C120.178 47.5019 119.386 47.2555 118.708 47.5019C117.731 47.8452 117.256 49.3769 118.162 50.7149Z" fill="black"/>
<path d="M152.018 61.0407H147.167V60.759C148.417 60.759 147.828 59.2097 147.599 58.6816L146.991 57.1675H142.308C142.044 57.9245 141.041 60.8647 143.857 60.7502V61.0319H139.421V60.7502C140.028 60.7326 140.495 60.7502 142.238 56.3489L145.468 47.7397H145.715C149.192 56.0672 150.451 59.289 150.451 59.289C151.076 60.8031 151.507 60.7062 152.018 60.7414V61.0407ZM146.877 56.8858L144.535 50.9968L142.361 56.8858H146.877Z" fill="black"/>
<path d="M178.54 47.7484V48.0301C175.75 48.0125 175.803 51.6216 175.803 52.4843V61.0318H174.993L166.859 50.6709V56.2607C166.859 57.1146 166.842 60.7501 169.386 60.7501V61.0318H163.796V60.7501C166.569 60.7501 166.569 57.1058 166.569 56.2607V50.3716L165.812 49.4121C164.606 47.8981 164.06 48.0741 163.567 48.0301V47.7484H167.625L175.512 57.6956V52.4843C175.512 51.6128 175.512 48.0125 172.986 48.0301V47.7484H178.54Z" fill="black"/>
<path d="M205.151 47.7484V48.0301C202.361 48.0125 202.414 51.6216 202.414 52.4843V61.0318H201.604L193.47 50.6709V56.2607C193.47 57.1146 193.452 60.7501 195.996 60.7501V61.0318H190.407V60.7501C193.179 60.7501 193.179 57.1058 193.179 56.2607V50.3716L192.422 49.4121C191.216 47.8981 190.671 48.0741 190.178 48.0301V47.7484H194.236L202.123 57.6956V52.4843C202.123 51.6128 202.123 48.0125 199.597 48.0301V47.7484H205.151Z" fill="black"/>
<path d="M222.783 47.7484V48.0301C221.973 48.0301 221.313 48.4438 221.313 49.6146V58.8839C221.313 60.1691 221.991 60.7501 222.783 60.7501V61.0318H217.519V60.7501C218.329 60.7501 218.989 60.1691 218.989 58.8839V49.6146C218.989 48.4438 218.347 48.0301 217.519 48.0301V47.7484H222.783Z" fill="black"/>
<path d="M245.195 57.0177V61.0406H235.133V60.7589C235.926 60.7589 236.19 59.9314 236.19 58.6462V50.0547C236.19 48.884 235.961 48.0301 235.133 48.0301V47.7484H244.948V51.2431H244.667C244.35 48.0477 240.151 48.0301 239.385 48.0301H238.531V54.1832H239.473C239.737 54.1832 242.176 54.1832 242.325 52.2554H242.607V56.4103H242.325C242.176 54.4649 239.72 54.4649 239.473 54.4649H238.531V60.7501H239.306C240.133 60.7501 244.306 60.7853 244.913 57.0089H245.195V57.0177Z" fill="black"/>
<path d="M88.7342 126.392C86.8504 126.392 86.023 125.767 86.023 125.767V123.734H86.1814C86.3487 124.693 86.8945 126.234 88.7342 126.234C90.0987 126.234 90.3892 124.57 89.1128 123.664L87.4314 122.581C86.1727 121.78 85.4068 120.767 86.2607 119.561C86.2607 119.561 86.78 118.743 88.3557 118.743C90.0283 118.743 90.9173 119.253 90.9173 119.253V121.032H90.7589C90.6092 120.23 90.0811 118.901 88.3557 118.901C87.2114 118.901 86.5687 120.345 88.0476 121.304L89.7378 122.414C91.1462 123.347 91.5599 124.5 90.8821 125.512C90.8821 125.53 90.4068 126.392 88.7342 126.392Z" fill="black"/>
<path d="M104.878 118.849V120.847H104.719C104.658 119.033 102.642 119.007 102.572 119.007H102.158V125.142C102.158 125.856 102.545 126.137 102.994 126.137V126.296H100.028V126.137C100.468 126.137 100.864 125.856 100.864 125.142V119.007H100.45C100.292 119.007 98.3727 119.042 98.311 120.847H98.1526V118.849H104.878Z" fill="black"/>
<path d="M112.29 123.725V119.922C112.29 119.245 111.964 118.998 111.498 118.998V118.84H114.5V118.998C114.042 118.998 113.575 119.139 113.575 119.931V123.804C113.575 125.081 114.359 125.838 115.441 125.838C116.383 125.838 117.264 125.116 117.264 123.769V120.767C117.264 120.257 117.264 118.989 115.917 118.998V118.84H118.892V118.998C117.396 118.989 117.422 120.257 117.422 120.767V123.769C117.431 125.855 115.952 126.384 114.825 126.384C113.434 126.392 112.29 125.45 112.29 123.725Z" fill="black"/>
<path d="M128.293 126.296H125.749V126.137C126.207 126.137 126.497 125.662 126.497 124.94V120.195C126.497 119.535 126.216 118.998 125.749 118.998V118.84H128.293C130.397 118.84 132.607 119.482 132.607 122.59C132.615 125.75 130.397 126.296 128.293 126.296ZM128.293 119.007H127.827V126.137H128.293C129.376 126.137 131.049 126.005 131.049 122.59C131.049 119.245 129.394 119.007 128.293 119.007Z" fill="black"/>
<path d="M142.757 118.849V119.007C142.299 119.007 141.929 119.236 141.929 119.896V125.09C141.929 125.811 142.308 126.137 142.757 126.137V126.296H139.808V126.137C140.265 126.137 140.635 125.811 140.635 125.09V119.896C140.635 119.236 140.274 119.007 139.808 119.007V118.849H142.757Z" fill="black"/>
<path d="M153.346 126.392C151.014 126.392 149.799 124.729 149.799 122.625C149.799 120.53 151.014 118.752 153.346 118.752C155.67 118.752 156.894 120.53 156.894 122.625C156.894 124.738 155.67 126.392 153.346 126.392ZM153.346 118.91C152.088 118.91 151.313 119.729 151.313 122.625C151.313 125.539 152.088 126.234 153.346 126.234C154.596 126.234 155.353 125.539 155.353 122.625C155.353 119.729 154.596 118.91 153.346 118.91Z" fill="black"/>
</svg>
