<svg width="396" height="150" viewBox="0 0 396 150" fill="none" xmlns="http://www.w3.org/2000/svg">
<rect width="396" height="150" rx="20" fill="#5D5FEF"/>
<path d="M37.2578 20.6705V32.0455H36.3047V20.6705H37.2578ZM41.1562 20.6705V21.4986H32.4141V20.6705H41.1562ZM51.1875 25.7486V26.9674C51.1875 27.7642 51.0833 28.4856 50.875 29.1314C50.6719 29.772 50.375 30.3215 49.9844 30.7799C49.599 31.2382 49.1354 31.5898 48.5938 31.8345C48.0521 32.0793 47.4427 32.2017 46.7656 32.2017C46.1042 32.2017 45.5 32.0793 44.9531 31.8345C44.4115 31.5898 43.9453 31.2382 43.5547 30.7799C43.1641 30.3215 42.862 29.772 42.6484 29.1314C42.4349 28.4856 42.3281 27.7642 42.3281 26.9674V25.7486C42.3281 24.9517 42.4323 24.233 42.6406 23.5924C42.8542 22.9465 43.1562 22.3944 43.5469 21.9361C43.9375 21.4778 44.4036 21.1262 44.9453 20.8814C45.487 20.6366 46.0885 20.5142 46.75 20.5142C47.4271 20.5142 48.0365 20.6366 48.5781 20.8814C49.1198 21.1262 49.5859 21.4778 49.9766 21.9361C50.3672 22.3944 50.6667 22.9465 50.875 23.5924C51.0833 24.233 51.1875 24.9517 51.1875 25.7486ZM50.2344 26.9674V25.733C50.2344 25.0611 50.1562 24.4569 50 23.9205C49.849 23.384 49.6224 22.9257 49.3203 22.5455C49.0234 22.1653 48.6589 21.8736 48.2266 21.6705C47.7943 21.4674 47.3021 21.3658 46.75 21.3658C46.2135 21.3658 45.7318 21.4674 45.3047 21.6705C44.8776 21.8736 44.513 22.1653 44.2109 22.5455C43.9141 22.9257 43.6849 23.384 43.5234 23.9205C43.3672 24.4569 43.2891 25.0611 43.2891 25.733V26.9674C43.2891 27.6444 43.3672 28.2538 43.5234 28.7955C43.6849 29.3319 43.9167 29.7929 44.2188 30.1783C44.5208 30.5585 44.8854 30.8502 45.3125 31.0533C45.7448 31.2564 46.2292 31.358 46.7656 31.358C47.3229 31.358 47.8151 31.2564 48.2422 31.0533C48.6693 30.8502 49.0312 30.5585 49.3281 30.1783C49.625 29.7929 49.849 29.3319 50 28.7955C50.1562 28.2538 50.2344 27.6444 50.2344 26.9674ZM57.2109 20.6705V32.0455H56.2578V20.6705H57.2109ZM61.1094 20.6705V21.4986H52.3672V20.6705H61.1094ZM66.0703 21.3502L62.1328 32.0455H61.1328L65.4297 20.6705H66.125L66.0703 21.3502ZM69.6484 32.0455L65.7031 21.3502L65.6484 20.6705H66.3438L70.6484 32.0455H69.6484ZM68.9453 28.0299V28.858H62.9062V28.0299H68.9453ZM78.9141 31.2252V32.0455H73.0156V31.2252H78.9141ZM73.2969 20.6705V32.0455H72.3359V20.6705H73.2969ZM88.5469 27.4127H85.3047V26.5924H88.5469C89.224 26.5924 89.7734 26.483 90.1953 26.2642C90.6224 26.0403 90.9323 25.7382 91.125 25.358C91.3229 24.9778 91.4219 24.5507 91.4219 24.0767C91.4219 23.6132 91.3229 23.1861 91.125 22.7955C90.9323 22.4049 90.6224 22.0924 90.1953 21.858C89.7734 21.6184 89.224 21.4986 88.5469 21.4986H85.6406V32.0455H84.6797V20.6705H88.5469C89.3802 20.6705 90.0807 20.8137 90.6484 21.1002C91.2214 21.3866 91.6536 21.7851 91.9453 22.2955C92.237 22.8059 92.3828 23.3944 92.3828 24.0611C92.3828 24.759 92.237 25.3606 91.9453 25.8658C91.6536 26.3658 91.224 26.7486 90.6562 27.0142C90.0885 27.2799 89.3854 27.4127 88.5469 27.4127ZM94.5156 20.6705H98.2109C98.9974 20.6705 99.6797 20.7981 100.258 21.0533C100.836 21.3085 101.281 21.6861 101.594 22.1861C101.911 22.6809 102.07 23.2903 102.07 24.0142C102.07 24.5507 101.956 25.0377 101.727 25.4752C101.503 25.9127 101.193 26.2799 100.797 26.5767C100.401 26.8684 99.9427 27.0689 99.4219 27.1783L99.0859 27.3033H95.1406L95.125 26.483H98.4297C99.0234 26.483 99.5182 26.3684 99.9141 26.1392C100.31 25.9101 100.607 25.608 100.805 25.233C101.008 24.8528 101.109 24.4465 101.109 24.0142C101.109 23.4986 100.997 23.0533 100.773 22.6783C100.555 22.2981 100.229 22.0064 99.7969 21.8033C99.3646 21.6002 98.8359 21.4986 98.2109 21.4986H95.4766V32.0455H94.5156V20.6705ZM101.539 32.0455L98.5938 26.9595L99.625 26.9517L102.562 31.9439V32.0455H101.539ZM113.109 25.7486V26.9674C113.109 27.7642 113.005 28.4856 112.797 29.1314C112.594 29.772 112.297 30.3215 111.906 30.7799C111.521 31.2382 111.057 31.5898 110.516 31.8345C109.974 32.0793 109.365 32.2017 108.688 32.2017C108.026 32.2017 107.422 32.0793 106.875 31.8345C106.333 31.5898 105.867 31.2382 105.477 30.7799C105.086 30.3215 104.784 29.772 104.57 29.1314C104.357 28.4856 104.25 27.7642 104.25 26.9674V25.7486C104.25 24.9517 104.354 24.233 104.562 23.5924C104.776 22.9465 105.078 22.3944 105.469 21.9361C105.859 21.4778 106.326 21.1262 106.867 20.8814C107.409 20.6366 108.01 20.5142 108.672 20.5142C109.349 20.5142 109.958 20.6366 110.5 20.8814C111.042 21.1262 111.508 21.4778 111.898 21.9361C112.289 22.3944 112.589 22.9465 112.797 23.5924C113.005 24.233 113.109 24.9517 113.109 25.7486ZM112.156 26.9674V25.733C112.156 25.0611 112.078 24.4569 111.922 23.9205C111.771 23.384 111.544 22.9257 111.242 22.5455C110.945 22.1653 110.581 21.8736 110.148 21.6705C109.716 21.4674 109.224 21.3658 108.672 21.3658C108.135 21.3658 107.654 21.4674 107.227 21.6705C106.799 21.8736 106.435 22.1653 106.133 22.5455C105.836 22.9257 105.607 23.384 105.445 23.9205C105.289 24.4569 105.211 25.0611 105.211 25.733V26.9674C105.211 27.6444 105.289 28.2538 105.445 28.7955C105.607 29.3319 105.839 29.7929 106.141 30.1783C106.443 30.5585 106.807 30.8502 107.234 31.0533C107.667 31.2564 108.151 31.358 108.688 31.358C109.245 31.358 109.737 31.2564 110.164 31.0533C110.591 30.8502 110.953 30.5585 111.25 30.1783C111.547 29.7929 111.771 29.3319 111.922 28.7955C112.078 28.2538 112.156 27.6444 112.156 26.9674ZM116.5 20.6705V32.0455H115.539V20.6705H116.5ZM121.797 25.9049V26.733H116.18V25.9049H121.797ZM122.586 20.6705V21.4986H116.18V20.6705H122.586ZM125.711 20.6705V32.0455H124.75V20.6705H125.711ZM132.383 20.6705V32.0455H131.43V20.6705H132.383ZM136.281 20.6705V21.4986H127.539V20.6705H136.281ZM144.445 29.2486C144.445 28.9361 144.393 28.6575 144.289 28.4127C144.185 28.1679 144.013 27.9491 143.773 27.7564C143.539 27.5585 143.221 27.3762 142.82 27.2095C142.424 27.0377 141.93 26.8684 141.336 26.7017C140.768 26.5403 140.255 26.3632 139.797 26.1705C139.339 25.9778 138.945 25.7564 138.617 25.5064C138.294 25.2564 138.047 24.9648 137.875 24.6314C137.703 24.2929 137.617 23.8997 137.617 23.4517C137.617 23.0142 137.711 22.6158 137.898 22.2564C138.086 21.897 138.349 21.5872 138.688 21.3267C139.031 21.0663 139.435 20.8658 139.898 20.7252C140.367 20.5845 140.88 20.5142 141.438 20.5142C142.234 20.5142 142.922 20.6653 143.5 20.9674C144.083 21.2694 144.534 21.6783 144.852 22.1939C145.174 22.7043 145.336 23.2773 145.336 23.9127H144.375C144.375 23.4179 144.258 22.9778 144.023 22.5924C143.794 22.2017 143.461 21.897 143.023 21.6783C142.591 21.4543 142.062 21.3424 141.438 21.3424C140.812 21.3424 140.286 21.4387 139.859 21.6314C139.438 21.8189 139.117 22.0715 138.898 22.3892C138.685 22.7017 138.578 23.0507 138.578 23.4361C138.578 23.7069 138.63 23.9569 138.734 24.1861C138.839 24.4101 139.008 24.621 139.242 24.8189C139.482 25.0116 139.797 25.1939 140.188 25.3658C140.578 25.5325 141.06 25.6913 141.633 25.8424C142.237 26.009 142.773 26.1939 143.242 26.397C143.711 26.6002 144.107 26.8345 144.43 27.1002C144.753 27.3606 144.997 27.6653 145.164 28.0142C145.331 28.3632 145.414 28.7694 145.414 29.233C145.414 29.6965 145.315 30.1132 145.117 30.483C144.924 30.8476 144.651 31.1575 144.297 31.4127C143.948 31.6679 143.534 31.8632 143.055 31.9986C142.581 32.134 142.062 32.2017 141.5 32.2017C140.995 32.2017 140.492 32.1366 139.992 32.0064C139.492 31.8762 139.034 31.6757 138.617 31.4049C138.206 31.1288 137.875 30.7747 137.625 30.3424C137.38 29.9101 137.258 29.3944 137.258 28.7955H138.211C138.211 29.2747 138.307 29.6783 138.5 30.0064C138.693 30.3345 138.948 30.6002 139.266 30.8033C139.589 31.0064 139.943 31.1549 140.328 31.2486C140.719 31.3372 141.109 31.3814 141.5 31.3814C142.099 31.3814 142.617 31.2929 143.055 31.1158C143.497 30.9387 143.839 30.6913 144.078 30.3736C144.323 30.0507 144.445 29.6757 144.445 29.2486Z" fill="white"/>
<path d="M40.5312 117.135H41.4922C41.4141 117.901 41.2031 118.562 40.8594 119.119C40.5156 119.671 40.0469 120.096 39.4531 120.393C38.8594 120.69 38.1432 120.838 37.3047 120.838C36.6589 120.838 36.0729 120.716 35.5469 120.471C35.026 120.226 34.5781 119.88 34.2031 119.432C33.8281 118.979 33.5391 118.437 33.3359 117.807C33.1328 117.177 33.0312 116.476 33.0312 115.705V114.283C33.0312 113.513 33.1328 112.815 33.3359 112.19C33.5391 111.559 33.8307 111.018 34.2109 110.565C34.5911 110.111 35.0469 109.763 35.5781 109.518C36.1094 109.273 36.7083 109.151 37.375 109.151C38.1823 109.151 38.8802 109.299 39.4688 109.596C40.0573 109.888 40.5208 110.309 40.8594 110.861C41.2031 111.414 41.4141 112.08 41.4922 112.861H40.5312C40.4583 112.247 40.2969 111.726 40.0469 111.299C39.7969 110.872 39.4505 110.546 39.0078 110.322C38.5703 110.093 38.026 109.979 37.375 109.979C36.8438 109.979 36.3698 110.08 35.9531 110.283C35.5365 110.486 35.1823 110.778 34.8906 111.158C34.599 111.533 34.375 111.984 34.2188 112.51C34.0677 113.036 33.9922 113.622 33.9922 114.268V115.705C33.9922 116.33 34.0651 116.906 34.2109 117.432C34.3568 117.958 34.5703 118.414 34.8516 118.799C35.138 119.184 35.487 119.484 35.8984 119.697C36.3099 119.911 36.7786 120.018 37.3047 120.018C37.9766 120.018 38.5365 119.911 38.9844 119.697C39.4375 119.479 39.7891 119.156 40.0391 118.729C40.2891 118.302 40.4531 117.77 40.5312 117.135ZM47.4141 109.307V120.682H46.4609V109.307H47.4141ZM51.3125 109.307V110.135H42.5703V109.307H51.3125ZM53.1406 109.307H56.8359C57.6224 109.307 58.3047 109.434 58.8828 109.69C59.4609 109.945 59.9062 110.322 60.2188 110.822C60.5365 111.317 60.6953 111.927 60.6953 112.651C60.6953 113.187 60.5807 113.674 60.3516 114.111C60.1276 114.549 59.8177 114.916 59.4219 115.213C59.026 115.505 58.5677 115.705 58.0469 115.815L57.7109 115.94H53.7656L53.75 115.119H57.0547C57.6484 115.119 58.1432 115.005 58.5391 114.776C58.9349 114.546 59.2318 114.244 59.4297 113.869C59.6328 113.489 59.7344 113.083 59.7344 112.651C59.7344 112.135 59.6224 111.69 59.3984 111.315C59.1797 110.934 58.8542 110.643 58.4219 110.44C57.9896 110.236 57.4609 110.135 56.8359 110.135H54.1016V120.682H53.1406V109.307ZM60.1641 120.682L57.2188 115.596L58.25 115.588L61.1875 120.58V120.682H60.1641ZM74.1797 114.893V115.776H66.3828V114.893H74.1797ZM70.7188 111.26V119.541H69.7812V111.26H70.7188ZM86.9297 119.877V120.682H79.8125V119.955L83.5391 115.729C84.0026 115.203 84.3724 114.742 84.6484 114.346C84.9245 113.945 85.1224 113.58 85.2422 113.252C85.3672 112.919 85.4297 112.596 85.4297 112.283C85.4297 111.825 85.3385 111.421 85.1562 111.072C84.9792 110.723 84.7135 110.45 84.3594 110.252C84.0052 110.054 83.5677 109.955 83.0469 109.955C82.526 109.955 82.0729 110.067 81.6875 110.291C81.3021 110.515 81.0052 110.828 80.7969 111.229C80.5938 111.625 80.4922 112.075 80.4922 112.58H79.5625C79.5625 111.955 79.7005 111.382 79.9766 110.861C80.2578 110.341 80.6589 109.927 81.1797 109.619C81.7005 109.307 82.3229 109.151 83.0469 109.151C83.7344 109.151 84.3255 109.273 84.8203 109.518C85.3151 109.757 85.6953 110.104 85.9609 110.557C86.2318 111.01 86.3672 111.557 86.3672 112.197C86.3672 112.541 86.3047 112.888 86.1797 113.236C86.0599 113.585 85.8932 113.934 85.6797 114.283C85.4714 114.627 85.2318 114.968 84.9609 115.307C84.6953 115.645 84.4167 115.979 84.125 116.307L80.9531 119.877H86.9297ZM95.5391 114.018V115.932C95.5391 116.765 95.4609 117.492 95.3047 118.111C95.1484 118.726 94.9193 119.236 94.6172 119.643C94.3203 120.044 93.9557 120.343 93.5234 120.541C93.0964 120.739 92.6068 120.838 92.0547 120.838C91.6172 120.838 91.2161 120.776 90.8516 120.651C90.487 120.526 90.1615 120.335 89.875 120.08C89.5938 119.82 89.3542 119.494 89.1562 119.104C88.9583 118.713 88.8073 118.255 88.7031 117.729C88.599 117.197 88.5469 116.598 88.5469 115.932V114.018C88.5469 113.179 88.625 112.455 88.7812 111.846C88.9427 111.236 89.1719 110.731 89.4688 110.33C89.7708 109.929 90.138 109.632 90.5703 109.44C91.0026 109.242 91.4922 109.143 92.0391 109.143C92.4766 109.143 92.8776 109.208 93.2422 109.338C93.612 109.463 93.9375 109.651 94.2188 109.901C94.5052 110.151 94.7448 110.471 94.9375 110.861C95.1354 111.247 95.2839 111.703 95.3828 112.229C95.487 112.755 95.5391 113.351 95.5391 114.018ZM94.6094 116.041V113.901C94.6094 113.385 94.5729 112.916 94.5 112.494C94.4323 112.072 94.3307 111.703 94.1953 111.385C94.0599 111.067 93.888 110.802 93.6797 110.588C93.4766 110.375 93.237 110.216 92.9609 110.111C92.6901 110.002 92.3828 109.947 92.0391 109.947C91.6172 109.947 91.2448 110.033 90.9219 110.205C90.6042 110.372 90.3385 110.622 90.125 110.955C89.9115 111.283 89.75 111.695 89.6406 112.19C89.5365 112.684 89.4844 113.255 89.4844 113.901V116.041C89.4844 116.552 89.5182 117.018 89.5859 117.44C89.6536 117.856 89.7578 118.226 89.8984 118.549C90.0391 118.872 90.2109 119.145 90.4141 119.369C90.6224 119.588 90.862 119.755 91.1328 119.869C91.4089 119.979 91.7161 120.033 92.0547 120.033C92.487 120.033 92.862 119.947 93.1797 119.776C93.4974 119.598 93.763 119.341 93.9766 119.002C94.1901 118.658 94.349 118.239 94.4531 117.744C94.5573 117.244 94.6094 116.677 94.6094 116.041ZM97.3438 112.096V111.494C97.3438 111.062 97.4349 110.669 97.6172 110.315C97.7995 109.96 98.0573 109.677 98.3906 109.463C98.724 109.25 99.1146 109.143 99.5625 109.143C100.021 109.143 100.414 109.25 100.742 109.463C101.076 109.677 101.333 109.96 101.516 110.315C101.698 110.669 101.789 111.062 101.789 111.494V112.096C101.789 112.518 101.698 112.906 101.516 113.26C101.339 113.614 101.083 113.898 100.75 114.111C100.422 114.325 100.031 114.432 99.5781 114.432C99.125 114.432 98.7292 114.325 98.3906 114.111C98.0573 113.898 97.7995 113.614 97.6172 113.26C97.4349 112.906 97.3438 112.518 97.3438 112.096ZM98.0938 111.494V112.096C98.0938 112.372 98.1458 112.638 98.25 112.893C98.3594 113.143 98.5234 113.348 98.7422 113.51C98.9661 113.671 99.2448 113.752 99.5781 113.752C99.9115 113.752 100.185 113.674 100.398 113.518C100.612 113.356 100.771 113.151 100.875 112.901C100.984 112.645 101.039 112.377 101.039 112.096V111.494C101.039 111.208 100.984 110.94 100.875 110.69C100.771 110.434 100.609 110.226 100.391 110.065C100.172 109.903 99.8958 109.822 99.5625 109.822C99.2396 109.822 98.9688 109.903 98.75 110.065C98.5312 110.226 98.3672 110.434 98.2578 110.69C98.1484 110.94 98.0938 111.208 98.0938 111.494ZM103.062 118.502V117.893C103.062 117.466 103.154 117.075 103.336 116.721C103.518 116.367 103.776 116.083 104.109 115.869C104.443 115.656 104.836 115.549 105.289 115.549C105.747 115.549 106.141 115.656 106.469 115.869C106.802 116.083 107.06 116.367 107.242 116.721C107.424 117.075 107.516 117.466 107.516 117.893V118.502C107.516 118.929 107.424 119.32 107.242 119.674C107.065 120.028 106.81 120.312 106.477 120.526C106.148 120.739 105.758 120.846 105.305 120.846C104.846 120.846 104.451 120.739 104.117 120.526C103.784 120.312 103.523 120.028 103.336 119.674C103.154 119.32 103.062 118.929 103.062 118.502ZM103.82 117.893V118.502C103.82 118.783 103.872 119.052 103.977 119.307C104.086 119.557 104.25 119.763 104.469 119.924C104.693 120.085 104.971 120.166 105.305 120.166C105.633 120.166 105.904 120.088 106.117 119.932C106.336 119.77 106.497 119.562 106.602 119.307C106.711 119.052 106.766 118.783 106.766 118.502V117.893C106.766 117.596 106.711 117.322 106.602 117.072C106.497 116.817 106.336 116.614 106.117 116.463C105.898 116.307 105.622 116.229 105.289 116.229C104.966 116.229 104.693 116.307 104.469 116.463C104.25 116.614 104.086 116.817 103.977 117.072C103.872 117.322 103.82 117.596 103.82 117.893ZM105.43 110.846L99.875 119.736L99.2969 119.361L104.852 110.471L105.43 110.846Z" fill="white"/>
<path d="M45.0068 54.6982V60.1719H42.1123V54.6982H45.0068ZM44.6543 84.998V89.9893H41.7598V84.998H44.6543ZM46.6953 78.9121C46.6953 78.207 46.5654 77.6071 46.3057 77.1123C46.0583 76.6175 45.6501 76.1784 45.0811 75.7949C44.5244 75.4115 43.7699 75.0404 42.8174 74.6816C41.2093 74.0632 39.793 73.4076 38.5684 72.7148C37.3561 72.0098 36.4098 71.1377 35.7295 70.0986C35.0492 69.0472 34.709 67.7174 34.709 66.1094C34.709 64.5755 35.0739 63.2458 35.8037 62.1201C36.5335 60.9945 37.5417 60.1286 38.8281 59.5225C40.127 58.904 41.6361 58.5947 43.3555 58.5947C44.6667 58.5947 45.8542 58.7926 46.918 59.1885C47.9818 59.5719 48.8971 60.141 49.6641 60.8955C50.431 61.6377 51.0186 62.5469 51.4268 63.623C51.835 64.6992 52.0391 65.93 52.0391 67.3154H46.7139C46.7139 66.5732 46.6335 65.9176 46.4727 65.3486C46.3118 64.7796 46.0768 64.3034 45.7676 63.9199C45.4707 63.5365 45.112 63.252 44.6914 63.0664C44.2708 62.8685 43.807 62.7695 43.2998 62.7695C42.5452 62.7695 41.9268 62.918 41.4443 63.2148C40.9619 63.5117 40.6094 63.9137 40.3867 64.4209C40.1764 64.9157 40.0713 65.4847 40.0713 66.1279C40.0713 66.7588 40.1826 67.3092 40.4053 67.7793C40.6403 68.2493 41.0423 68.6823 41.6113 69.0781C42.1803 69.4616 42.9596 69.8574 43.9492 70.2656C45.5573 70.8841 46.9674 71.5521 48.1797 72.2695C49.3919 72.987 50.3382 73.8652 51.0186 74.9043C51.6989 75.9434 52.0391 77.2669 52.0391 78.875C52.0391 80.4707 51.668 81.8314 50.9258 82.957C50.1836 84.0703 49.1445 84.9238 47.8086 85.5176C46.4727 86.099 44.9264 86.3896 43.1699 86.3896C42.0319 86.3896 40.9001 86.2412 39.7744 85.9443C38.6488 85.6351 37.6283 85.1403 36.7129 84.46C35.7975 83.7796 35.0677 82.8766 34.5234 81.751C33.9792 80.613 33.707 79.2152 33.707 77.5576H39.0508C39.0508 78.4606 39.1683 79.2152 39.4033 79.8213C39.6383 80.415 39.9476 80.8913 40.3311 81.25C40.7269 81.5964 41.1722 81.8438 41.667 81.9922C42.1618 82.1406 42.6628 82.2148 43.1699 82.2148C43.9616 82.2148 44.611 82.0726 45.1182 81.7881C45.6377 81.5036 46.0273 81.1139 46.2871 80.6191C46.5592 80.112 46.6953 79.543 46.6953 78.9121ZM69.4619 58.7061H70.2412V62.9736H69.9258C68.5156 62.9736 67.2601 63.1839 66.1592 63.6045C65.0583 64.0251 64.1243 64.625 63.3574 65.4043C62.6029 66.1712 62.0215 67.099 61.6133 68.1875C61.2174 69.276 61.0195 70.4945 61.0195 71.8428V76.333C61.0195 77.2979 61.1123 78.1514 61.2979 78.8936C61.4958 79.6234 61.7741 80.2357 62.1328 80.7305C62.5039 81.2129 62.9368 81.5778 63.4316 81.8252C63.9264 82.0602 64.4831 82.1777 65.1016 82.1777C65.6829 82.1777 66.2087 82.054 66.6787 81.8066C67.1611 81.5592 67.5693 81.2129 67.9033 80.7676C68.2497 80.3099 68.5094 79.778 68.6826 79.1719C68.8682 78.5534 68.9609 77.8792 68.9609 77.1494C68.9609 76.4196 68.8682 75.7454 68.6826 75.127C68.5094 74.5085 68.2497 73.9766 67.9033 73.5312C67.557 73.0736 67.1364 72.721 66.6416 72.4736C66.1468 72.2262 65.5902 72.1025 64.9717 72.1025C64.1305 72.1025 63.3883 72.3005 62.7451 72.6963C62.1143 73.0798 61.6195 73.5745 61.2607 74.1807C60.902 74.7868 60.7103 75.4238 60.6855 76.0918L59.0713 75.0527C59.1084 74.1003 59.3063 73.1973 59.665 72.3438C60.0361 71.4902 60.5433 70.7357 61.1865 70.0801C61.8421 69.4121 62.6276 68.8926 63.543 68.5215C64.4583 68.138 65.4912 67.9463 66.6416 67.9463C67.9033 67.9463 69.0104 68.1875 69.9629 68.6699C70.9277 69.1523 71.7318 69.8141 72.375 70.6553C73.0182 71.4964 73.5007 72.4674 73.8223 73.5684C74.1439 74.6693 74.3047 75.8444 74.3047 77.0938C74.3047 78.4049 74.0882 79.6234 73.6553 80.749C73.2347 81.8747 72.6224 82.8581 71.8184 83.6992C71.0267 84.5404 70.0742 85.196 68.9609 85.666C67.8477 86.1361 66.5983 86.3711 65.2129 86.3711C63.778 86.3711 62.473 86.1113 61.2979 85.5918C60.1351 85.0599 59.1331 84.3177 58.292 83.3652C57.4508 82.4128 56.8014 81.2809 56.3438 79.9697C55.8984 78.6585 55.6758 77.2236 55.6758 75.665V73.5869C55.6758 71.4098 55.9912 69.4183 56.6221 67.6123C57.2653 65.7939 58.1868 64.223 59.3867 62.8994C60.5866 61.5635 62.0339 60.5306 63.7285 59.8008C65.4232 59.071 67.3343 58.7061 69.4619 58.7061ZM95.9766 81.8252V86H77.4961V82.4375L86.2354 73.0674C87.1136 72.0902 87.8063 71.2305 88.3135 70.4883C88.8206 69.7337 89.1855 69.0596 89.4082 68.4658C89.6432 67.8597 89.7607 67.2845 89.7607 66.7402C89.7607 65.9238 89.6247 65.2249 89.3525 64.6436C89.0804 64.0498 88.6784 63.5921 88.1465 63.2705C87.627 62.9489 86.9837 62.7881 86.2168 62.7881C85.4004 62.7881 84.6953 62.986 84.1016 63.3818C83.5202 63.7777 83.0749 64.3281 82.7656 65.0332C82.4688 65.7383 82.3203 66.5361 82.3203 67.4268H76.958C76.958 65.8187 77.3415 64.3467 78.1084 63.0107C78.8753 61.6624 79.9577 60.5924 81.3555 59.8008C82.7533 58.9967 84.4108 58.5947 86.3281 58.5947C88.2207 58.5947 89.8164 58.904 91.1152 59.5225C92.4264 60.1286 93.416 61.0068 94.084 62.1572C94.7643 63.2952 95.1045 64.6559 95.1045 66.2393C95.1045 67.1299 94.9622 68.002 94.6777 68.8555C94.3932 69.6966 93.985 70.5378 93.4531 71.3789C92.9336 72.2077 92.3027 73.0488 91.5605 73.9023C90.8184 74.7559 89.9958 75.6403 89.0928 76.5557L84.3984 81.8252H95.9766ZM99.7988 83.4209C99.7988 82.6292 100.071 81.9674 100.615 81.4355C101.172 80.9036 101.908 80.6377 102.823 80.6377C103.739 80.6377 104.468 80.9036 105.013 81.4355C105.569 81.9674 105.848 82.6292 105.848 83.4209C105.848 84.2126 105.569 84.8743 105.013 85.4062C104.468 85.9382 103.739 86.2041 102.823 86.2041C101.908 86.2041 101.172 85.9382 100.615 85.4062C100.071 84.8743 99.7988 84.2126 99.7988 83.4209ZM114.123 81.9365H114.476C115.96 81.9365 117.234 81.7572 118.298 81.3984C119.374 81.0273 120.258 80.4954 120.951 79.8027C121.644 79.11 122.157 78.2627 122.491 77.2607C122.825 76.2464 122.992 75.096 122.992 73.8096V68.6885C122.992 67.7113 122.893 66.8516 122.695 66.1094C122.51 65.3672 122.238 64.7549 121.879 64.2725C121.533 63.7777 121.124 63.4066 120.654 63.1592C120.197 62.9118 119.689 62.7881 119.133 62.7881C118.539 62.7881 118.013 62.9365 117.556 63.2334C117.098 63.5179 116.708 63.9076 116.387 64.4023C116.077 64.8971 115.836 65.4661 115.663 66.1094C115.502 66.7402 115.422 67.402 115.422 68.0947C115.422 68.7874 115.502 69.4492 115.663 70.0801C115.824 70.6986 116.065 71.249 116.387 71.7314C116.708 72.2015 117.11 72.5788 117.593 72.8633C118.075 73.1354 118.644 73.2715 119.3 73.2715C119.931 73.2715 120.493 73.154 120.988 72.9189C121.495 72.6715 121.922 72.3499 122.269 71.9541C122.627 71.5583 122.899 71.1191 123.085 70.6367C123.283 70.1543 123.382 69.6657 123.382 69.1709L125.145 70.1357C125.145 71.0016 124.959 71.8551 124.588 72.6963C124.217 73.5374 123.697 74.3044 123.029 74.9971C122.374 75.6774 121.613 76.2217 120.747 76.6299C119.881 77.0381 118.953 77.2422 117.964 77.2422C116.702 77.2422 115.583 77.0133 114.605 76.5557C113.628 76.0856 112.799 75.4424 112.119 74.626C111.451 73.7972 110.944 72.8324 110.598 71.7314C110.251 70.6305 110.078 69.4368 110.078 68.1504C110.078 66.8392 110.288 65.6084 110.709 64.458C111.142 63.3076 111.754 62.2933 112.546 61.415C113.35 60.5368 114.309 59.8503 115.422 59.3555C116.548 58.8483 117.797 58.5947 119.17 58.5947C120.543 58.5947 121.792 58.8607 122.918 59.3926C124.044 59.9245 125.008 60.679 125.812 61.6562C126.617 62.6211 127.235 63.7777 127.668 65.126C128.113 66.4743 128.336 67.971 128.336 69.6162V71.4717C128.336 73.2282 128.144 74.861 127.761 76.3701C127.39 77.8792 126.827 79.2461 126.072 80.4707C125.33 81.6829 124.402 82.722 123.289 83.5879C122.188 84.4538 120.908 85.1156 119.448 85.5732C117.989 86.0309 116.356 86.2598 114.55 86.2598H114.123V81.9365ZM150.36 78.5967C150.36 80.2913 149.965 81.7201 149.173 82.8828C148.381 84.0332 147.293 84.9053 145.907 85.499C144.534 86.0804 142.976 86.3711 141.231 86.3711C139.487 86.3711 137.923 86.0804 136.537 85.499C135.152 84.9053 134.057 84.0332 133.253 82.8828C132.449 81.7201 132.047 80.2913 132.047 78.5967C132.047 77.4587 132.276 76.432 132.733 75.5166C133.191 74.5889 133.828 73.7972 134.645 73.1416C135.473 72.4736 136.444 71.9665 137.558 71.6201C138.671 71.2614 139.883 71.082 141.194 71.082C142.951 71.082 144.522 71.3913 145.907 72.0098C147.293 72.6283 148.381 73.5003 149.173 74.626C149.965 75.7516 150.36 77.0752 150.36 78.5967ZM144.979 78.2441C144.979 77.4154 144.819 76.7041 144.497 76.1104C144.188 75.5042 143.749 75.0404 143.18 74.7188C142.611 74.3971 141.949 74.2363 141.194 74.2363C140.44 74.2363 139.778 74.3971 139.209 74.7188C138.64 75.0404 138.195 75.5042 137.873 76.1104C137.564 76.7041 137.409 77.4154 137.409 78.2441C137.409 79.0605 137.564 79.7656 137.873 80.3594C138.195 80.9531 138.64 81.4108 139.209 81.7324C139.79 82.0417 140.465 82.1963 141.231 82.1963C141.998 82.1963 142.66 82.0417 143.217 81.7324C143.786 81.4108 144.219 80.9531 144.516 80.3594C144.825 79.7656 144.979 79.0605 144.979 78.2441ZM149.785 66.1465C149.785 67.5195 149.42 68.738 148.69 69.8018C147.961 70.8532 146.946 71.6758 145.647 72.2695C144.361 72.8633 142.889 73.1602 141.231 73.1602C139.562 73.1602 138.077 72.8633 136.778 72.2695C135.479 71.6758 134.465 70.8532 133.735 69.8018C133.006 68.738 132.641 67.5195 132.641 66.1465C132.641 64.5137 133.006 63.1406 133.735 62.0273C134.478 60.9017 135.492 60.0482 136.778 59.4668C138.077 58.8854 139.549 58.5947 141.194 58.5947C142.864 58.5947 144.342 58.8854 145.629 59.4668C146.928 60.0482 147.942 60.9017 148.672 62.0273C149.414 63.1406 149.785 64.5137 149.785 66.1465ZM144.441 66.3877C144.441 65.6579 144.312 65.027 144.052 64.4951C143.792 63.9508 143.421 63.5303 142.938 63.2334C142.468 62.9365 141.887 62.7881 141.194 62.7881C140.526 62.7881 139.951 62.9303 139.469 63.2148C138.999 63.4993 138.634 63.9137 138.374 64.458C138.127 64.9899 138.003 65.6331 138.003 66.3877C138.003 67.1175 138.127 67.7607 138.374 68.3174C138.634 68.8617 139.005 69.2884 139.487 69.5977C139.97 69.9069 140.551 70.0615 141.231 70.0615C141.912 70.0615 142.487 69.9069 142.957 69.5977C143.439 69.2884 143.804 68.8617 144.052 68.3174C144.312 67.7607 144.441 67.1175 144.441 66.3877ZM160.102 58.9844V86H154.535V58.9844H160.102ZM176.281 58.9844L165.575 72.3252L159.396 78.9678L158.395 73.6982L162.569 67.9834L169.453 58.9844H176.281ZM169.954 86L161.994 73.5127L166.113 70.0615L176.541 86H169.954Z" fill="white"/>
<path d="M231 97.7679C231 96.2825 231.557 94.8579 232.548 93.8076C233.539 92.7573 234.884 92.1672 236.286 92.1672H246.857C248.259 92.1672 249.603 92.7573 250.595 93.8076C251.586 94.8579 252.143 96.2825 252.143 97.7679V114.57C252.143 116.055 251.586 117.48 250.595 118.53C249.603 119.58 248.259 120.17 246.857 120.17H236.286C234.884 120.17 233.539 119.58 232.548 118.53C231.557 117.48 231 116.055 231 114.57V97.7679ZM257.429 75.3653C257.429 73.8799 257.985 72.4553 258.977 71.405C259.968 70.3547 261.312 69.7646 262.714 69.7646H273.286C274.688 69.7646 276.032 70.3547 277.023 71.405C278.015 72.4553 278.571 73.8799 278.571 75.3653V114.57C278.571 116.055 278.015 117.48 277.023 118.53C276.032 119.58 274.688 120.17 273.286 120.17H262.714C261.312 120.17 259.968 119.58 258.977 118.53C257.985 117.48 257.429 116.055 257.429 114.57V75.3653ZM283.857 47.362C283.857 45.8766 284.414 44.4521 285.405 43.4018C286.397 42.3514 287.741 41.7614 289.143 41.7614H299.714C301.116 41.7614 302.461 42.3514 303.452 43.4018C304.443 44.4521 305 45.8766 305 47.362V114.57C305 116.055 304.443 117.48 303.452 118.53C302.461 119.58 301.116 120.17 299.714 120.17H289.143C287.741 120.17 286.397 119.58 285.405 118.53C284.414 117.48 283.857 116.055 283.857 114.57V47.362Z" fill="white"/>
<path d="M284 97.7679C284 96.2825 284.557 94.8579 285.548 93.8076C286.539 92.7573 287.884 92.1672 289.286 92.1672H299.857C301.259 92.1672 302.603 92.7573 303.595 93.8076C304.586 94.8579 305.143 96.2825 305.143 97.7679V114.57C305.143 116.055 304.586 117.48 303.595 118.53C302.603 119.58 301.259 120.17 299.857 120.17H289.286C287.884 120.17 286.539 119.58 285.548 118.53C284.557 117.48 284 116.055 284 114.57V97.7679ZM310.429 75.3653C310.429 73.8799 310.985 72.4553 311.977 71.405C312.968 70.3547 314.312 69.7646 315.714 69.7646H326.286C327.688 69.7646 329.032 70.3547 330.023 71.405C331.015 72.4553 331.571 73.8799 331.571 75.3653V114.57C331.571 116.055 331.015 117.48 330.023 118.53C329.032 119.58 327.688 120.17 326.286 120.17H315.714C314.312 120.17 312.968 119.58 311.977 118.53C310.985 117.48 310.429 116.055 310.429 114.57V75.3653ZM336.857 47.362C336.857 45.8766 337.414 44.4521 338.405 43.4018C339.397 42.3514 340.741 41.7614 342.143 41.7614H352.714C354.116 41.7614 355.461 42.3514 356.452 43.4018C357.443 44.4521 358 45.8766 358 47.362V114.57C358 116.055 357.443 117.48 356.452 118.53C355.461 119.58 354.116 120.17 352.714 120.17H342.143C340.741 120.17 339.397 119.58 338.405 118.53C337.414 117.48 336.857 116.055 336.857 114.57V47.362Z" fill="white"/>
</svg>
