<svg width="223" height="50" viewBox="0 0 223 50" fill="none" xmlns="http://www.w3.org/2000/svg">
<path d="M0 33.4935C0 35.5412 1.39864 37.2025 3.12517 37.2025H11.4781C17.1467 37.2025 21.7595 31.7288 21.7595 24.9982C21.7595 22.9505 20.3608 21.2892 18.6343 21.2892C16.9078 21.2892 15.5091 22.9505 15.5091 24.9982C15.5091 27.6371 13.7011 29.7845 11.4762 29.7845H6.25034V22.3103H0V33.4935Z" fill="#5D5FEF"/>
<path d="M13.9141 0H3.78836C1.69689 0 0 1.66135 0 3.70901V14.8923H7.57673V7.41802H13.9141C23.8157 7.41802 31.8723 15.3058 31.8723 25C31.8723 34.6942 23.8157 42.582 13.9141 42.582H3.78836C1.69689 42.582 0 44.2433 0 46.291C0 48.3387 1.69689 50 3.78836 50H13.9141C27.9931 50 39.449 38.7859 39.449 25C39.449 11.2141 27.995 0 13.9141 0Z" fill="#5D5FEF"/>
<path d="M18.4806 14.4334L11.6856 26.7829L18.5824 23.9608L25.5367 26.6396L18.4806 14.4334Z" fill="#5D5FEF"/>
<path d="M18.5824 23.9608L25.5367 26.6396L18.4805 14.4334L18.5824 23.9608Z" fill="#5D5FEF"/>
<path d="M53.9923 29H50.2775L50.3009 26.2578H53.9923C54.9142 26.2578 55.6915 26.0508 56.3244 25.6367C56.9572 25.2148 57.4337 24.6016 57.754 23.7969C58.0822 22.9922 58.2462 22.0195 58.2462 20.8789V20.0469C58.2462 19.1719 58.1525 18.4023 57.965 17.7383C57.7853 17.0742 57.5158 16.5156 57.1564 16.0625C56.797 15.6094 56.3556 15.2695 55.8322 15.043C55.3087 14.8086 54.7072 14.6914 54.0275 14.6914H50.2072V11.9375H54.0275C55.1681 11.9375 56.2111 12.1328 57.1564 12.5234C58.1095 12.9062 58.9337 13.457 59.629 14.1758C60.3244 14.8945 60.8595 15.7539 61.2345 16.7539C61.6173 17.7461 61.8087 18.8516 61.8087 20.0703V20.8789C61.8087 22.0898 61.6173 23.1953 61.2345 24.1953C60.8595 25.1953 60.3244 26.0547 59.629 26.7734C58.9415 27.4844 58.1173 28.0352 57.1564 28.4258C56.2033 28.8086 55.1486 29 53.9923 29ZM52.2697 11.9375V29H48.754V11.9375H52.2697ZM68.5817 11.9375V29H65.0778V11.9375H68.5817ZM85.8781 20.082V26.8438C85.6125 27.1641 85.2023 27.5117 84.6476 27.8867C84.0929 28.2539 83.3781 28.5703 82.5031 28.8359C81.6281 29.1016 80.5695 29.2344 79.3273 29.2344C78.2258 29.2344 77.2219 29.0547 76.3156 28.6953C75.4094 28.3281 74.6281 27.793 73.9719 27.0898C73.3234 26.3867 72.8234 25.5273 72.4719 24.5117C72.1203 23.4883 71.9445 22.3203 71.9445 21.0078V19.9414C71.9445 18.6289 72.1125 17.4609 72.4484 16.4375C72.7922 15.4141 73.2804 14.5508 73.9133 13.8477C74.5461 13.1445 75.3 12.6094 76.175 12.2422C77.05 11.875 78.0226 11.6914 79.0929 11.6914C80.5773 11.6914 81.7961 11.9336 82.7492 12.418C83.7023 12.8945 84.4289 13.5586 84.9289 14.4102C85.4367 15.2539 85.7492 16.2227 85.8664 17.3164H82.4562C82.3703 16.7383 82.2062 16.2344 81.964 15.8047C81.7219 15.375 81.3742 15.0391 80.9211 14.7969C80.4758 14.5547 79.8976 14.4336 79.1867 14.4336C78.6008 14.4336 78.0773 14.5547 77.6164 14.7969C77.1633 15.0312 76.7804 15.3789 76.4679 15.8398C76.1554 16.3008 75.9172 16.8711 75.7531 17.5508C75.589 18.2305 75.507 19.0195 75.507 19.918V21.0078C75.507 21.8984 75.5929 22.6875 75.7648 23.375C75.9367 24.0547 76.1906 24.6289 76.5265 25.0977C76.8703 25.5586 77.2922 25.9062 77.7922 26.1406C78.2922 26.375 78.8742 26.4922 79.5383 26.4922C80.0929 26.4922 80.5539 26.4453 80.9211 26.3516C81.2961 26.2578 81.5969 26.1445 81.8234 26.0117C82.0578 25.8711 82.2375 25.7383 82.3625 25.6133V22.5898H79.1515V20.082H85.8781ZM92.9323 11.9375V29H89.4284V11.9375H92.9323ZM103.983 11.9375V29H100.479V11.9375H103.983ZM109.233 11.9375V14.6914H95.3108V11.9375H109.233ZM117.388 14.8555L112.748 29H109.01L115.349 11.9375H117.728L117.388 14.8555ZM121.244 29L116.592 14.8555L116.217 11.9375H118.619L124.994 29H121.244ZM121.033 22.6484V25.4023H112.021V22.6484H121.033ZM138.025 26.2578V29H129.435V26.2578H138.025ZM130.572 11.9375V29H127.056V11.9375H130.572ZM155.86 24.5352C155.86 24.2305 155.813 23.957 155.719 23.7148C155.633 23.4648 155.469 23.2383 155.227 23.0352C154.985 22.8242 154.645 22.6172 154.207 22.4141C153.77 22.2109 153.203 22 152.508 21.7812C151.735 21.5312 151 21.25 150.305 20.9375C149.617 20.625 149.008 20.2617 148.477 19.8477C147.953 19.4258 147.539 18.9375 147.235 18.3828C146.938 17.8281 146.789 17.1836 146.789 16.4492C146.789 15.7383 146.946 15.0938 147.258 14.5156C147.571 13.9297 148.008 13.4297 148.571 13.0156C149.133 12.5938 149.797 12.2695 150.563 12.043C151.336 11.8164 152.184 11.7031 153.106 11.7031C154.364 11.7031 155.461 11.9297 156.399 12.3828C157.336 12.8359 158.063 13.457 158.578 14.2461C159.102 15.0352 159.364 15.9375 159.364 16.9531H155.871C155.871 16.4531 155.766 16.0156 155.555 15.6406C155.352 15.2578 155.039 14.957 154.617 14.7383C154.203 14.5195 153.68 14.4102 153.047 14.4102C152.438 14.4102 151.93 14.5039 151.524 14.6914C151.117 14.8711 150.813 15.1172 150.61 15.4297C150.407 15.7344 150.305 16.0781 150.305 16.4609C150.305 16.75 150.375 17.0117 150.516 17.2461C150.664 17.4805 150.883 17.6992 151.172 17.9023C151.461 18.1055 151.817 18.2969 152.239 18.4766C152.66 18.6562 153.149 18.832 153.703 19.0039C154.633 19.2852 155.45 19.6016 156.153 19.9531C156.864 20.3047 157.457 20.6992 157.934 21.1367C158.41 21.5742 158.77 22.0703 159.012 22.625C159.254 23.1797 159.375 23.8086 159.375 24.5117C159.375 25.2539 159.231 25.918 158.942 26.5039C158.653 27.0898 158.235 27.5859 157.688 27.9922C157.141 28.3984 156.489 28.707 155.731 28.918C154.973 29.1289 154.125 29.2344 153.188 29.2344C152.344 29.2344 151.512 29.125 150.692 28.9062C149.871 28.6797 149.125 28.3398 148.453 27.8867C147.789 27.4336 147.258 26.8555 146.86 26.1523C146.461 25.4492 146.262 24.6172 146.262 23.6562H149.789C149.789 24.1875 149.871 24.6367 150.035 25.0039C150.2 25.3711 150.43 25.668 150.727 25.8945C151.032 26.1211 151.391 26.2852 151.805 26.3867C152.227 26.4883 152.688 26.5391 153.188 26.5391C153.797 26.5391 154.297 26.4531 154.688 26.2812C155.086 26.1094 155.379 25.8711 155.567 25.5664C155.762 25.2617 155.86 24.918 155.86 24.5352ZM168.89 22.918H164.543V20.1758H168.89C169.562 20.1758 170.109 20.0664 170.531 19.8477C170.953 19.6211 171.262 19.3086 171.457 18.9102C171.652 18.5117 171.75 18.0625 171.75 17.5625C171.75 17.0547 171.652 16.582 171.457 16.1445C171.262 15.707 170.953 15.3555 170.531 15.0898C170.109 14.8242 169.562 14.6914 168.89 14.6914H165.762V29H162.246V11.9375H168.89C170.226 11.9375 171.371 12.1797 172.324 12.6641C173.285 13.1406 174.019 13.8008 174.527 14.6445C175.035 15.4883 175.289 16.4531 175.289 17.5391C175.289 18.6406 175.035 19.5938 174.527 20.3984C174.019 21.2031 173.285 21.8242 172.324 22.2617C171.371 22.6992 170.226 22.918 168.89 22.918ZM183.187 14.8555L178.546 29H174.808L181.148 11.9375H183.527L183.187 14.8555ZM187.042 29L182.39 14.8555L182.015 11.9375H184.417L190.792 29H187.042ZM186.831 22.6484V25.4023H177.82V22.6484H186.831ZM202.534 23.3398H206.038C205.968 24.4883 205.651 25.5078 205.089 26.3984C204.534 27.2891 203.757 27.9844 202.757 28.4844C201.765 28.9844 200.569 29.2344 199.171 29.2344C198.077 29.2344 197.097 29.0469 196.229 28.6719C195.362 28.2891 194.62 27.7422 194.003 27.0312C193.393 26.3203 192.929 25.4609 192.608 24.4531C192.288 23.4453 192.128 22.3164 192.128 21.0664V19.8828C192.128 18.6328 192.292 17.5039 192.62 16.4961C192.956 15.4805 193.432 14.6172 194.05 13.9062C194.675 13.1953 195.421 12.6484 196.288 12.2656C197.155 11.8828 198.124 11.6914 199.194 11.6914C200.616 11.6914 201.815 11.9492 202.792 12.4648C203.776 12.9805 204.538 13.6914 205.077 14.5977C205.624 15.5039 205.952 16.5352 206.061 17.6914H202.546C202.507 17.0039 202.37 16.4219 202.136 15.9453C201.901 15.4609 201.546 15.0977 201.069 14.8555C200.6 14.6055 199.975 14.4805 199.194 14.4805C198.608 14.4805 198.097 14.5898 197.659 14.8086C197.222 15.0273 196.854 15.3594 196.557 15.8047C196.261 16.25 196.038 16.8125 195.89 17.4922C195.749 18.1641 195.679 18.9531 195.679 19.8594V21.0664C195.679 21.9492 195.745 22.7266 195.878 23.3984C196.011 24.0625 196.214 24.625 196.487 25.0859C196.768 25.5391 197.128 25.8828 197.565 26.1172C198.011 26.3438 198.546 26.457 199.171 26.457C199.905 26.457 200.511 26.3398 200.987 26.1055C201.464 25.8711 201.827 25.5234 202.077 25.0625C202.335 24.6016 202.487 24.0273 202.534 23.3398ZM220.276 26.2578V29H211.194V26.2578H220.276ZM212.342 11.9375V29H208.827V11.9375H212.342ZM219.092 18.8867V21.5586H211.194V18.8867H219.092ZM220.264 11.9375V14.6914H211.194V11.9375H220.264Z" fill="#5D5FEF"/>
<path d="M51.9357 41.1201L53.4787 35.8906H53.9621L53.5714 37.4434L51.9259 43H51.4621L51.9357 41.1201ZM50.1437 35.8906L51.4425 41.0713L51.8331 43H51.3497L49.5285 35.8906H50.1437ZM56.0421 41.0713L57.3214 35.8906H57.9367L56.1203 43H55.6369L56.0421 41.0713ZM54.0158 35.8906L55.5392 41.1201L56.0079 43H55.5441L53.9328 37.4434L53.5372 35.8906H54.0158ZM59.5431 35.5V43H58.9621V35.5H59.5431ZM59.4113 40.0312L59.1525 39.8848C59.172 39.5723 59.2355 39.2793 59.3429 39.0059C59.4503 38.7324 59.5952 38.4915 59.7775 38.2832C59.963 38.0749 60.1795 37.9121 60.4269 37.7949C60.6775 37.6777 60.9542 37.6191 61.257 37.6191C61.5206 37.6191 61.7566 37.6549 61.965 37.7266C62.1733 37.7982 62.3507 37.9121 62.4972 38.0684C62.6437 38.2246 62.7544 38.4248 62.8292 38.6689C62.9074 38.9131 62.9464 39.2109 62.9464 39.5625V43H62.3605V39.5576C62.3605 39.193 62.31 38.9082 62.2091 38.7031C62.1082 38.4948 61.965 38.3467 61.7794 38.2588C61.5939 38.1709 61.3742 38.127 61.1203 38.127C60.8403 38.127 60.5945 38.1888 60.3829 38.3125C60.1746 38.4329 59.9988 38.5908 59.8556 38.7861C59.7156 38.9782 59.6082 39.1849 59.5333 39.4062C59.4585 39.6243 59.4178 39.8327 59.4113 40.0312ZM66.4913 43.0977C66.1463 43.0977 65.8289 43.0342 65.5392 42.9072C65.2527 42.7803 65.0021 42.6012 64.7872 42.3701C64.5757 42.139 64.4113 41.8656 64.2941 41.5498C64.1802 41.2308 64.1232 40.8825 64.1232 40.5049V40.2949C64.1232 39.888 64.1834 39.5202 64.3038 39.1914C64.4243 38.8626 64.5903 38.5811 64.8019 38.3467C65.0135 38.1123 65.2544 37.9333 65.5246 37.8096C65.798 37.6826 66.0844 37.6191 66.3839 37.6191C66.7192 37.6191 67.0171 37.6794 67.2775 37.7998C67.5379 37.917 67.756 38.0846 67.9318 38.3027C68.1108 38.5176 68.2459 38.7731 68.3371 39.0693C68.4282 39.3623 68.4738 39.6862 68.4738 40.041V40.3975H64.4747V39.8994H67.8927V39.8311C67.8862 39.5348 67.826 39.2581 67.7121 39.001C67.6014 38.7406 67.4354 38.529 67.214 38.3662C66.9927 38.2035 66.716 38.1221 66.3839 38.1221C66.1365 38.1221 65.9087 38.1742 65.7003 38.2783C65.4953 38.3825 65.3178 38.5322 65.1681 38.7275C65.0216 38.9196 64.9077 39.1491 64.8263 39.416C64.7482 39.6797 64.7091 39.9727 64.7091 40.2949V40.5049C64.7091 40.7979 64.7514 41.0713 64.8361 41.3252C64.924 41.5758 65.0477 41.7972 65.2072 41.9893C65.3699 42.1813 65.562 42.3311 65.7833 42.4385C66.0047 42.5459 66.2488 42.5996 66.5158 42.5996C66.8283 42.5996 67.105 42.5426 67.3458 42.4287C67.5867 42.3115 67.8032 42.1276 67.9953 41.877L68.3615 42.1602C68.2475 42.3294 68.1043 42.4857 67.9318 42.6289C67.7625 42.7721 67.5591 42.8861 67.3214 42.9707C67.0838 43.0553 66.8071 43.0977 66.4913 43.0977ZM70.2072 38.5908V43H69.6261V37.7168H70.1925L70.2072 38.5908ZM72.0773 37.6777L72.0626 38.2148C71.9975 38.2051 71.9341 38.1969 71.8722 38.1904C71.8104 38.1839 71.7436 38.1807 71.672 38.1807C71.4181 38.1807 71.1951 38.2279 71.0031 38.3223C70.8143 38.4134 70.6548 38.542 70.5246 38.708C70.3943 38.8708 70.2951 39.0628 70.2267 39.2842C70.1583 39.5023 70.1193 39.7367 70.1095 39.9873L69.8947 40.0703C69.8947 39.7253 69.9305 39.4046 70.0021 39.1084C70.0737 38.8122 70.1828 38.5534 70.3292 38.332C70.479 38.1074 70.6662 37.9333 70.8908 37.8096C71.1186 37.6826 71.3856 37.6191 71.6915 37.6191C71.7664 37.6191 71.8397 37.6257 71.9113 37.6387C71.9861 37.6484 72.0415 37.6615 72.0773 37.6777ZM74.9386 43.0977C74.5936 43.0977 74.2762 43.0342 73.9865 42.9072C73.7 42.7803 73.4494 42.6012 73.2345 42.3701C73.0229 42.139 72.8585 41.8656 72.7413 41.5498C72.6274 41.2308 72.5704 40.8825 72.5704 40.5049V40.2949C72.5704 39.888 72.6307 39.5202 72.7511 39.1914C72.8716 38.8626 73.0376 38.5811 73.2492 38.3467C73.4607 38.1123 73.7016 37.9333 73.9718 37.8096C74.2453 37.6826 74.5317 37.6191 74.8312 37.6191C75.1665 37.6191 75.4643 37.6794 75.7247 37.7998C75.9852 37.917 76.2033 38.0846 76.379 38.3027C76.5581 38.5176 76.6932 38.7731 76.7843 39.0693C76.8755 39.3623 76.921 39.6862 76.921 40.041V40.3975H72.922V39.8994H76.34V39.8311C76.3335 39.5348 76.2732 39.2581 76.1593 39.001C76.0486 38.7406 75.8826 38.529 75.6613 38.3662C75.4399 38.2035 75.1632 38.1221 74.8312 38.1221C74.5838 38.1221 74.3559 38.1742 74.1476 38.2783C73.9425 38.3825 73.7651 38.5322 73.6154 38.7275C73.4689 38.9196 73.355 39.1491 73.2736 39.416C73.1954 39.6797 73.1564 39.9727 73.1564 40.2949V40.5049C73.1564 40.7979 73.1987 41.0713 73.2833 41.3252C73.3712 41.5758 73.4949 41.7972 73.6544 41.9893C73.8172 42.1813 74.0093 42.3311 74.2306 42.4385C74.452 42.5459 74.6961 42.5996 74.963 42.5996C75.2755 42.5996 75.5522 42.5426 75.7931 42.4287C76.034 42.3115 76.2505 42.1276 76.4425 41.877L76.8087 42.1602C76.6948 42.3294 76.5516 42.4857 76.379 42.6289C76.2098 42.7721 76.0063 42.8861 75.7687 42.9707C75.5311 43.0553 75.2544 43.0977 74.9386 43.0977ZM82.0822 42.4727L83.7277 37.7168H84.3576L82.1212 43.8496C82.0757 43.9701 82.0171 44.1035 81.9454 44.25C81.8771 44.3965 81.7859 44.5365 81.672 44.6699C81.5613 44.8066 81.4214 44.9173 81.2521 45.002C81.0861 45.0898 80.8826 45.1338 80.6417 45.1338C80.5799 45.1338 80.5001 45.1257 80.4025 45.1094C80.3081 45.0964 80.2397 45.0833 80.1974 45.0703L80.1925 44.5771C80.2283 44.5869 80.2804 44.5951 80.3488 44.6016C80.4171 44.6081 80.4643 44.6113 80.4904 44.6113C80.702 44.6113 80.8794 44.5755 81.0226 44.5039C81.1691 44.4323 81.2912 44.3249 81.3888 44.1816C81.4865 44.0417 81.5727 43.8659 81.6476 43.6543L82.0822 42.4727ZM80.5441 37.7168L82.2287 42.2529L82.3849 42.8633L81.9601 43.1025L79.9093 37.7168H80.5441ZM84.8703 40.4414V40.2803C84.8703 39.8962 84.9256 39.5413 85.0363 39.2158C85.1469 38.8903 85.3048 38.6087 85.5099 38.3711C85.7182 38.1335 85.9673 37.9495 86.257 37.8193C86.5467 37.6859 86.869 37.6191 87.2238 37.6191C87.5818 37.6191 87.9057 37.6859 88.1954 37.8193C88.4852 37.9495 88.7342 38.1335 88.9425 38.3711C89.1509 38.6087 89.3104 38.8903 89.421 39.2158C89.5317 39.5413 89.5871 39.8962 89.5871 40.2803V40.4414C89.5871 40.8255 89.5317 41.1803 89.421 41.5059C89.3104 41.8281 89.1509 42.1081 88.9425 42.3457C88.7374 42.5833 88.49 42.7689 88.2003 42.9023C87.9106 43.0326 87.5884 43.0977 87.2335 43.0977C86.8755 43.0977 86.5516 43.0326 86.2619 42.9023C85.9721 42.7689 85.7231 42.5833 85.5148 42.3457C85.3065 42.1081 85.1469 41.8281 85.0363 41.5059C84.9256 41.1803 84.8703 40.8255 84.8703 40.4414ZM85.4513 40.2803V40.4414C85.4513 40.7311 85.4904 41.0062 85.5685 41.2666C85.6466 41.5238 85.7606 41.7533 85.9103 41.9551C86.06 42.1536 86.2456 42.3099 86.4669 42.4238C86.6883 42.5378 86.9438 42.5947 87.2335 42.5947C87.52 42.5947 87.7723 42.5378 87.9904 42.4238C88.2117 42.3099 88.3973 42.1536 88.547 41.9551C88.6968 41.7533 88.8091 41.5238 88.8839 41.2666C88.9621 41.0062 89.0011 40.7311 89.0011 40.4414V40.2803C89.0011 39.9938 88.9621 39.722 88.8839 39.4648C88.8091 39.2077 88.6951 38.9782 88.5421 38.7764C88.3924 38.5745 88.2068 38.415 87.9855 38.2979C87.7641 38.1807 87.5102 38.1221 87.2238 38.1221C86.9373 38.1221 86.6834 38.1807 86.4621 38.2979C86.244 38.415 86.0584 38.5745 85.9054 38.7764C85.7557 38.9782 85.6417 39.2077 85.5636 39.4648C85.4887 39.722 85.4513 39.9938 85.4513 40.2803ZM94.1818 41.7793V37.7168H94.7677V43H94.2062L94.1818 41.7793ZM94.2892 40.8027L94.5919 40.793C94.5919 41.125 94.5529 41.431 94.4747 41.7109C94.3966 41.9909 94.2746 42.235 94.1085 42.4434C93.9425 42.6517 93.7277 42.8128 93.464 42.9268C93.2003 43.0407 92.8829 43.0977 92.5119 43.0977C92.2547 43.0977 92.0187 43.0618 91.8038 42.9902C91.5923 42.9154 91.41 42.7982 91.257 42.6387C91.104 42.4792 90.9852 42.2725 90.9005 42.0186C90.8191 41.7646 90.7785 41.457 90.7785 41.0957V37.7168H91.3595V41.1055C91.3595 41.3887 91.3904 41.6247 91.4523 41.8135C91.5174 42.0023 91.6053 42.1536 91.716 42.2676C91.8299 42.3815 91.9601 42.4629 92.1066 42.5117C92.2531 42.5605 92.4109 42.585 92.5802 42.585C93.0099 42.585 93.3484 42.502 93.5958 42.3359C93.8465 42.1699 94.0239 41.9518 94.1281 41.6816C94.2355 41.4082 94.2892 41.1152 94.2892 40.8027ZM96.8771 38.5908V43H96.296V37.7168H96.8624L96.8771 38.5908ZM98.7472 37.6777L98.7326 38.2148C98.6675 38.2051 98.604 38.1969 98.5421 38.1904C98.4803 38.1839 98.4135 38.1807 98.3419 38.1807C98.088 38.1807 97.865 38.2279 97.673 38.3223C97.4842 38.4134 97.3247 38.542 97.1945 38.708C97.0643 38.8708 96.965 39.0628 96.8966 39.2842C96.8283 39.5023 96.7892 39.7367 96.7794 39.9873L96.5646 40.0703C96.5646 39.7253 96.6004 39.4046 96.672 39.1084C96.7436 38.8122 96.8527 38.5534 96.9992 38.332C97.1489 38.1074 97.3361 37.9333 97.5607 37.8096C97.7885 37.6826 98.0555 37.6191 98.3615 37.6191C98.4363 37.6191 98.5096 37.6257 98.5812 37.6387C98.6561 37.6484 98.7114 37.6615 98.7472 37.6777ZM102.097 35.5H102.683V41.9746L102.644 43H102.097V35.5ZM106.36 40.3096V40.4121C106.36 40.806 106.314 41.1673 106.223 41.4961C106.132 41.8249 106 42.1097 105.827 42.3506C105.655 42.5882 105.443 42.7721 105.193 42.9023C104.945 43.0326 104.66 43.0977 104.338 43.0977C104.022 43.0977 103.742 43.0488 103.498 42.9512C103.254 42.8503 103.046 42.7087 102.873 42.5264C102.701 42.3408 102.562 42.1243 102.458 41.877C102.354 41.6263 102.281 41.3512 102.238 41.0518V39.748C102.287 39.429 102.365 39.1393 102.473 38.8789C102.58 38.6185 102.719 38.3939 102.888 38.2051C103.06 38.0163 103.265 37.8714 103.503 37.7705C103.744 37.6696 104.019 37.6191 104.328 37.6191C104.651 37.6191 104.937 37.6826 105.188 37.8096C105.442 37.9333 105.655 38.1139 105.827 38.3516C106 38.5859 106.132 38.8691 106.223 39.2012C106.314 39.5299 106.36 39.8994 106.36 40.3096ZM105.769 40.4121V40.3096C105.769 40.0003 105.739 39.7139 105.681 39.4502C105.622 39.1865 105.529 38.957 105.402 38.7617C105.279 38.5632 105.119 38.4085 104.924 38.2979C104.729 38.1872 104.494 38.1318 104.221 38.1318C103.941 38.1318 103.702 38.179 103.503 38.2734C103.308 38.3646 103.145 38.4867 103.015 38.6396C102.888 38.7894 102.787 38.9538 102.712 39.1328C102.637 39.3118 102.582 39.4876 102.546 39.6602V41.1787C102.601 41.4229 102.697 41.6523 102.834 41.8672C102.971 42.082 103.155 42.2562 103.386 42.3896C103.617 42.5199 103.899 42.585 104.231 42.585C104.498 42.585 104.727 42.5296 104.919 42.4189C105.114 42.3083 105.274 42.1553 105.398 41.96C105.525 41.7646 105.617 41.5352 105.676 41.2715C105.738 41.0078 105.769 40.7214 105.769 40.4121ZM111.037 41.7793V37.7168H111.623V43H111.062L111.037 41.7793ZM111.145 40.8027L111.447 40.793C111.447 41.125 111.408 41.431 111.33 41.7109C111.252 41.9909 111.13 42.235 110.964 42.4434C110.798 42.6517 110.583 42.8128 110.319 42.9268C110.056 43.0407 109.738 43.0977 109.367 43.0977C109.11 43.0977 108.874 43.0618 108.659 42.9902C108.448 42.9154 108.265 42.7982 108.112 42.6387C107.959 42.4792 107.841 42.2725 107.756 42.0186C107.675 41.7646 107.634 41.457 107.634 41.0957V37.7168H108.215V41.1055C108.215 41.3887 108.246 41.6247 108.308 41.8135C108.373 42.0023 108.461 42.1536 108.571 42.2676C108.685 42.3815 108.816 42.4629 108.962 42.5117C109.109 42.5605 109.266 42.585 109.436 42.585C109.865 42.585 110.204 42.502 110.451 42.3359C110.702 42.1699 110.879 41.9518 110.984 41.6816C111.091 41.4082 111.145 41.1152 111.145 40.8027ZM116.316 41.6523C116.316 41.5091 116.28 41.3675 116.208 41.2275C116.137 41.0876 115.998 40.959 115.793 40.8418C115.591 40.7246 115.293 40.6253 114.9 40.5439C114.607 40.4788 114.345 40.4056 114.113 40.3242C113.886 40.2428 113.693 40.1452 113.537 40.0312C113.381 39.9173 113.262 39.7806 113.181 39.6211C113.099 39.4616 113.059 39.2728 113.059 39.0547C113.059 38.8594 113.101 38.6755 113.186 38.5029C113.274 38.3271 113.397 38.1742 113.557 38.0439C113.72 37.9105 113.915 37.8063 114.143 37.7314C114.374 37.6566 114.633 37.6191 114.919 37.6191C115.326 37.6191 115.674 37.6891 115.964 37.8291C116.257 37.9658 116.48 38.153 116.633 38.3906C116.789 38.6283 116.867 38.8968 116.867 39.1963H116.286C116.286 39.014 116.233 38.8415 116.125 38.6787C116.021 38.516 115.866 38.3825 115.661 38.2783C115.459 38.1742 115.212 38.1221 114.919 38.1221C114.616 38.1221 114.371 38.1676 114.182 38.2588C113.993 38.3499 113.855 38.4655 113.767 38.6055C113.682 38.7454 113.64 38.8903 113.64 39.04C113.64 39.1572 113.658 39.2646 113.693 39.3623C113.733 39.4567 113.801 39.5446 113.899 39.626C113.999 39.7074 114.143 39.7839 114.328 39.8555C114.514 39.9271 114.755 39.9971 115.051 40.0654C115.477 40.1598 115.826 40.2754 116.096 40.4121C116.369 40.5456 116.571 40.7116 116.701 40.9102C116.832 41.1055 116.897 41.3431 116.897 41.623C116.897 41.8411 116.851 42.0413 116.76 42.2236C116.669 42.4027 116.537 42.5573 116.364 42.6875C116.195 42.8177 115.99 42.9186 115.749 42.9902C115.512 43.0618 115.245 43.0977 114.948 43.0977C114.502 43.0977 114.125 43.0244 113.816 42.8779C113.51 42.7282 113.277 42.5329 113.117 42.292C112.961 42.0479 112.883 41.7891 112.883 41.5156H113.464C113.484 41.7891 113.57 42.0055 113.723 42.165C113.876 42.3213 114.063 42.432 114.284 42.4971C114.509 42.5622 114.73 42.5947 114.948 42.5947C115.248 42.5947 115.499 42.5508 115.7 42.4629C115.902 42.375 116.055 42.2594 116.159 42.1162C116.263 41.973 116.316 41.8184 116.316 41.6523ZM118.869 37.7168V43H118.288V37.7168H118.869ZM118.186 36.1885C118.186 36.0778 118.22 35.985 118.288 35.9102C118.36 35.832 118.457 35.793 118.581 35.793C118.705 35.793 118.803 35.832 118.874 35.9102C118.949 35.985 118.986 36.0778 118.986 36.1885C118.986 36.2959 118.949 36.3887 118.874 36.4668C118.803 36.5417 118.705 36.5791 118.581 36.5791C118.457 36.5791 118.36 36.5417 118.288 36.4668C118.22 36.3887 118.186 36.2959 118.186 36.1885ZM121.047 38.8447V43H120.466V37.7168H121.023L121.047 38.8447ZM120.915 40.0312L120.656 39.8848C120.676 39.5723 120.739 39.2793 120.847 39.0059C120.954 38.7324 121.099 38.4915 121.281 38.2832C121.467 38.0749 121.683 37.9121 121.931 37.7949C122.181 37.6777 122.458 37.6191 122.761 37.6191C123.025 37.6191 123.261 37.6549 123.469 37.7266C123.677 37.7982 123.855 37.9121 124.001 38.0684C124.148 38.2246 124.258 38.4248 124.333 38.6689C124.411 38.9131 124.45 39.2109 124.45 39.5625V43H123.864V39.5576C123.864 39.193 123.814 38.9082 123.713 38.7031C123.612 38.4948 123.469 38.3467 123.283 38.2588C123.098 38.1709 122.878 38.127 122.624 38.127C122.344 38.127 122.098 38.1888 121.887 38.3125C121.679 38.4329 121.503 38.5908 121.36 38.7861C121.22 38.9782 121.112 39.1849 121.037 39.4062C120.962 39.6243 120.922 39.8327 120.915 40.0312ZM128.005 43.0977C127.66 43.0977 127.343 43.0342 127.053 42.9072C126.766 42.7803 126.516 42.6012 126.301 42.3701C126.089 42.139 125.925 41.8656 125.808 41.5498C125.694 41.2308 125.637 40.8825 125.637 40.5049V40.2949C125.637 39.888 125.697 39.5202 125.818 39.1914C125.938 38.8626 126.104 38.5811 126.316 38.3467C126.527 38.1123 126.768 37.9333 127.038 37.8096C127.312 37.6826 127.598 37.6191 127.898 37.6191C128.233 37.6191 128.531 37.6794 128.791 37.7998C129.052 37.917 129.27 38.0846 129.445 38.3027C129.624 38.5176 129.76 38.7731 129.851 39.0693C129.942 39.3623 129.987 39.6862 129.987 40.041V40.3975H125.988V39.8994H129.406V39.8311C129.4 39.5348 129.34 39.2581 129.226 39.001C129.115 38.7406 128.949 38.529 128.728 38.3662C128.506 38.2035 128.23 38.1221 127.898 38.1221C127.65 38.1221 127.422 38.1742 127.214 38.2783C127.009 38.3825 126.832 38.5322 126.682 38.7275C126.535 38.9196 126.421 39.1491 126.34 39.416C126.262 39.6797 126.223 39.9727 126.223 40.2949V40.5049C126.223 40.7979 126.265 41.0713 126.35 41.3252C126.438 41.5758 126.561 41.7972 126.721 41.9893C126.884 42.1813 127.076 42.3311 127.297 42.4385C127.518 42.5459 127.763 42.5996 128.029 42.5996C128.342 42.5996 128.619 42.5426 128.86 42.4287C129.1 42.3115 129.317 42.1276 129.509 41.877L129.875 42.1602C129.761 42.3294 129.618 42.4857 129.445 42.6289C129.276 42.7721 129.073 42.8861 128.835 42.9707C128.597 43.0553 128.321 43.0977 128.005 43.0977ZM134.304 41.6523C134.304 41.5091 134.268 41.3675 134.196 41.2275C134.125 41.0876 133.986 40.959 133.781 40.8418C133.58 40.7246 133.282 40.6253 132.888 40.5439C132.595 40.4788 132.333 40.4056 132.102 40.3242C131.874 40.2428 131.682 40.1452 131.526 40.0312C131.369 39.9173 131.25 39.7806 131.169 39.6211C131.088 39.4616 131.047 39.2728 131.047 39.0547C131.047 38.8594 131.089 38.6755 131.174 38.5029C131.262 38.3271 131.386 38.1742 131.545 38.0439C131.708 37.9105 131.903 37.8063 132.131 37.7314C132.362 37.6566 132.621 37.6191 132.907 37.6191C133.314 37.6191 133.663 37.6891 133.952 37.8291C134.245 37.9658 134.468 38.153 134.621 38.3906C134.777 38.6283 134.856 38.8968 134.856 39.1963H134.275C134.275 39.014 134.221 38.8415 134.113 38.6787C134.009 38.516 133.855 38.3825 133.65 38.2783C133.448 38.1742 133.2 38.1221 132.907 38.1221C132.605 38.1221 132.359 38.1676 132.17 38.2588C131.981 38.3499 131.843 38.4655 131.755 38.6055C131.67 38.7454 131.628 38.8903 131.628 39.04C131.628 39.1572 131.646 39.2646 131.682 39.3623C131.721 39.4567 131.789 39.5446 131.887 39.626C131.988 39.7074 132.131 39.7839 132.317 39.8555C132.502 39.9271 132.743 39.9971 133.039 40.0654C133.466 40.1598 133.814 40.2754 134.084 40.4121C134.358 40.5456 134.559 40.7116 134.69 40.9102C134.82 41.1055 134.885 41.3431 134.885 41.623C134.885 41.8411 134.839 42.0413 134.748 42.2236C134.657 42.4027 134.525 42.5573 134.353 42.6875C134.183 42.8177 133.978 42.9186 133.737 42.9902C133.5 43.0618 133.233 43.0977 132.937 43.0977C132.491 43.0977 132.113 43.0244 131.804 42.8779C131.498 42.7282 131.265 42.5329 131.106 42.292C130.949 42.0479 130.871 41.7891 130.871 41.5156H131.452C131.472 41.7891 131.558 42.0055 131.711 42.165C131.864 42.3213 132.051 42.432 132.273 42.4971C132.497 42.5622 132.719 42.5947 132.937 42.5947C133.236 42.5947 133.487 42.5508 133.689 42.4629C133.89 42.375 134.043 42.2594 134.148 42.1162C134.252 41.973 134.304 41.8184 134.304 41.6523ZM139.372 41.6523C139.372 41.5091 139.336 41.3675 139.265 41.2275C139.193 41.0876 139.055 40.959 138.85 40.8418C138.648 40.7246 138.35 40.6253 137.956 40.5439C137.663 40.4788 137.401 40.4056 137.17 40.3242C136.942 40.2428 136.75 40.1452 136.594 40.0312C136.438 39.9173 136.319 39.7806 136.237 39.6211C136.156 39.4616 136.115 39.2728 136.115 39.0547C136.115 38.8594 136.158 38.6755 136.242 38.5029C136.33 38.3271 136.454 38.1742 136.613 38.0439C136.776 37.9105 136.971 37.8063 137.199 37.7314C137.43 37.6566 137.689 37.6191 137.976 37.6191C138.383 37.6191 138.731 37.6891 139.021 37.8291C139.314 37.9658 139.537 38.153 139.69 38.3906C139.846 38.6283 139.924 38.8968 139.924 39.1963H139.343C139.343 39.014 139.289 38.8415 139.182 38.6787C139.078 38.516 138.923 38.3825 138.718 38.2783C138.516 38.1742 138.269 38.1221 137.976 38.1221C137.673 38.1221 137.427 38.1676 137.238 38.2588C137.05 38.3499 136.911 38.4655 136.823 38.6055C136.739 38.7454 136.696 38.8903 136.696 39.04C136.696 39.1572 136.714 39.2646 136.75 39.3623C136.789 39.4567 136.858 39.5446 136.955 39.626C137.056 39.7074 137.199 39.7839 137.385 39.8555C137.57 39.9271 137.811 39.9971 138.108 40.0654C138.534 40.1598 138.882 40.2754 139.152 40.4121C139.426 40.5456 139.628 40.7116 139.758 40.9102C139.888 41.1055 139.953 41.3431 139.953 41.623C139.953 41.8411 139.908 42.0413 139.817 42.2236C139.725 42.4027 139.594 42.5573 139.421 42.6875C139.252 42.8177 139.047 42.9186 138.806 42.9902C138.568 43.0618 138.301 43.0977 138.005 43.0977C137.559 43.0977 137.181 43.0244 136.872 42.8779C136.566 42.7282 136.333 42.5329 136.174 42.292C136.018 42.0479 135.94 41.7891 135.94 41.5156H136.521C136.54 41.7891 136.626 42.0055 136.779 42.165C136.932 42.3213 137.12 42.432 137.341 42.4971C137.566 42.5622 137.787 42.5947 138.005 42.5947C138.304 42.5947 138.555 42.5508 138.757 42.4629C138.959 42.375 139.112 42.2594 139.216 42.1162C139.32 41.973 139.372 41.8184 139.372 41.6523ZM145.715 37.7168V38.1953H143.068V37.7168H145.715ZM144.04 36.3594H144.621V41.7158C144.621 41.96 144.654 42.1439 144.719 42.2676C144.784 42.3913 144.869 42.4743 144.973 42.5166C145.077 42.5589 145.189 42.5801 145.31 42.5801C145.398 42.5801 145.482 42.5752 145.564 42.5654C145.645 42.5524 145.718 42.5394 145.783 42.5264L145.808 43.0195C145.736 43.0423 145.643 43.0602 145.529 43.0732C145.416 43.0895 145.302 43.0977 145.188 43.0977C144.963 43.0977 144.764 43.057 144.592 42.9756C144.419 42.891 144.284 42.7477 144.187 42.5459C144.089 42.3408 144.04 42.0625 144.04 41.7109V36.3594ZM150.153 42.0527V39.3281C150.153 39.0775 150.101 38.861 149.997 38.6787C149.893 38.4964 149.74 38.3564 149.538 38.2588C149.336 38.1611 149.087 38.1123 148.791 38.1123C148.518 38.1123 148.274 38.1611 148.059 38.2588C147.847 38.3532 147.679 38.4818 147.556 38.6445C147.435 38.804 147.375 38.9814 147.375 39.1768L146.789 39.1719C146.789 38.9733 146.838 38.7812 146.936 38.5957C147.033 38.4102 147.172 38.2441 147.351 38.0977C147.53 37.9512 147.743 37.8356 147.99 37.751C148.241 37.6631 148.516 37.6191 148.816 37.6191C149.193 37.6191 149.525 37.6826 149.812 37.8096C150.101 37.9365 150.328 38.127 150.49 38.3809C150.653 38.6348 150.735 38.9538 150.735 39.3379V41.8916C150.735 42.0739 150.748 42.2627 150.774 42.458C150.803 42.6533 150.844 42.8145 150.896 42.9414V43H150.276C150.236 42.8828 150.206 42.7363 150.183 42.5605C150.163 42.3815 150.153 42.2122 150.153 42.0527ZM150.29 39.9238L150.3 40.373H149.152C148.853 40.373 148.584 40.4007 148.347 40.4561C148.112 40.5081 147.914 40.5863 147.751 40.6904C147.588 40.7913 147.463 40.9134 147.375 41.0566C147.291 41.1999 147.248 41.3626 147.248 41.5449C147.248 41.7337 147.295 41.9062 147.39 42.0625C147.487 42.2188 147.624 42.3441 147.8 42.4385C147.979 42.5296 148.191 42.5752 148.435 42.5752C148.76 42.5752 149.047 42.515 149.294 42.3945C149.545 42.2741 149.751 42.1162 149.914 41.9209C150.077 41.7256 150.186 41.5124 150.241 41.2812L150.495 41.6182C150.453 41.7809 150.375 41.9486 150.261 42.1211C150.15 42.2904 150.005 42.4499 149.826 42.5996C149.647 42.7461 149.436 42.8665 149.192 42.9609C148.951 43.0521 148.677 43.0977 148.371 43.0977C148.026 43.0977 147.725 43.0326 147.468 42.9023C147.214 42.7721 147.015 42.5947 146.872 42.3701C146.732 42.1423 146.662 41.8851 146.662 41.5986C146.662 41.3382 146.718 41.1055 146.828 40.9004C146.939 40.6921 147.098 40.5163 147.307 40.373C147.518 40.2266 147.772 40.1159 148.068 40.041C148.368 39.9629 148.703 39.9238 149.074 39.9238H150.29ZM152.883 35.5V43H152.302V35.5H152.883ZM156.198 37.7168L153.728 40.168L152.678 41.1836L152.59 40.6123L153.435 39.6992L155.461 37.7168H156.198ZM155.691 43L153.484 40.2559L153.806 39.7529L156.394 43H155.691ZM159.148 43.0977C158.803 43.0977 158.485 43.0342 158.195 42.9072C157.909 42.7803 157.658 42.6012 157.443 42.3701C157.232 42.139 157.068 41.8656 156.95 41.5498C156.836 41.2308 156.779 40.8825 156.779 40.5049V40.2949C156.779 39.888 156.84 39.5202 156.96 39.1914C157.081 38.8626 157.247 38.5811 157.458 38.3467C157.67 38.1123 157.911 37.9333 158.181 37.8096C158.454 37.6826 158.741 37.6191 159.04 37.6191C159.375 37.6191 159.673 37.6794 159.934 37.7998C160.194 37.917 160.412 38.0846 160.588 38.3027C160.767 38.5176 160.902 38.7731 160.993 39.0693C161.084 39.3623 161.13 39.6862 161.13 40.041V40.3975H157.131V39.8994H160.549V39.8311C160.542 39.5348 160.482 39.2581 160.368 39.001C160.258 38.7406 160.092 38.529 159.87 38.3662C159.649 38.2035 159.372 38.1221 159.04 38.1221C158.793 38.1221 158.565 38.1742 158.357 38.2783C158.152 38.3825 157.974 38.5322 157.824 38.7275C157.678 38.9196 157.564 39.1491 157.483 39.416C157.404 39.6797 157.365 39.9727 157.365 40.2949V40.5049C157.365 40.7979 157.408 41.0713 157.492 41.3252C157.58 41.5758 157.704 41.7972 157.863 41.9893C158.026 42.1813 158.218 42.3311 158.44 42.4385C158.661 42.5459 158.905 42.5996 159.172 42.5996C159.485 42.5996 159.761 42.5426 160.002 42.4287C160.243 42.3115 160.459 42.1276 160.652 41.877L161.018 42.1602C160.904 42.3294 160.761 42.4857 160.588 42.6289C160.419 42.7721 160.215 42.8861 159.978 42.9707C159.74 43.0553 159.463 43.0977 159.148 43.0977ZM165.446 41.6523C165.446 41.5091 165.411 41.3675 165.339 41.2275C165.267 41.0876 165.129 40.959 164.924 40.8418C164.722 40.7246 164.424 40.6253 164.03 40.5439C163.737 40.4788 163.475 40.4056 163.244 40.3242C163.016 40.2428 162.824 40.1452 162.668 40.0312C162.512 39.9173 162.393 39.7806 162.312 39.6211C162.23 39.4616 162.19 39.2728 162.19 39.0547C162.19 38.8594 162.232 38.6755 162.317 38.5029C162.404 38.3271 162.528 38.1742 162.688 38.0439C162.85 37.9105 163.046 37.8063 163.274 37.7314C163.505 37.6566 163.763 37.6191 164.05 37.6191C164.457 37.6191 164.805 37.6891 165.095 37.8291C165.388 37.9658 165.611 38.153 165.764 38.3906C165.92 38.6283 165.998 38.8968 165.998 39.1963H165.417C165.417 39.014 165.363 38.8415 165.256 38.6787C165.152 38.516 164.997 38.3825 164.792 38.2783C164.59 38.1742 164.343 38.1221 164.05 38.1221C163.747 38.1221 163.501 38.1676 163.313 38.2588C163.124 38.3499 162.985 38.4655 162.898 38.6055C162.813 38.7454 162.771 38.8903 162.771 39.04C162.771 39.1572 162.789 39.2646 162.824 39.3623C162.863 39.4567 162.932 39.5446 163.029 39.626C163.13 39.7074 163.274 39.7839 163.459 39.8555C163.645 39.9271 163.886 39.9971 164.182 40.0654C164.608 40.1598 164.957 40.2754 165.227 40.4121C165.5 40.5456 165.702 40.7116 165.832 40.9102C165.962 41.1055 166.027 41.3431 166.027 41.623C166.027 41.8411 165.982 42.0413 165.891 42.2236C165.8 42.4027 165.668 42.5573 165.495 42.6875C165.326 42.8177 165.121 42.9186 164.88 42.9902C164.642 43.0618 164.375 43.0977 164.079 43.0977C163.633 43.0977 163.256 43.0244 162.946 42.8779C162.64 42.7282 162.408 42.5329 162.248 42.292C162.092 42.0479 162.014 41.7891 162.014 41.5156H162.595C162.614 41.7891 162.701 42.0055 162.854 42.165C163.007 42.3213 163.194 42.432 163.415 42.4971C163.64 42.5622 163.861 42.5947 164.079 42.5947C164.379 42.5947 164.629 42.5508 164.831 42.4629C165.033 42.375 165.186 42.2594 165.29 42.1162C165.394 41.973 165.446 41.8184 165.446 41.6523ZM170.793 43H170.212V37.0625C170.212 36.7012 170.276 36.3968 170.402 36.1494C170.529 35.902 170.71 35.7148 170.944 35.5879C171.182 35.4609 171.469 35.3975 171.804 35.3975C171.954 35.3975 172.129 35.4121 172.331 35.4414C172.536 35.4674 172.751 35.5033 172.976 35.5488C173.2 35.5944 173.418 35.6432 173.63 35.6953L173.327 36.1152C173.044 36.0599 172.779 36.0127 172.531 35.9736C172.284 35.9346 172.054 35.915 171.843 35.915C171.622 35.915 171.433 35.9606 171.277 36.0518C171.12 36.1396 171 36.2682 170.915 36.4375C170.834 36.6068 170.793 36.8151 170.793 37.0625V43ZM173.049 43V35.6953H173.63V43H173.049ZM172.053 37.7168V38.1953H169.338V37.7168H172.053ZM175.891 37.7168V43H175.31V37.7168H175.891ZM175.207 36.1885C175.207 36.0778 175.241 35.985 175.31 35.9102C175.381 35.832 175.479 35.793 175.603 35.793C175.726 35.793 175.824 35.832 175.896 35.9102C175.971 35.985 176.008 36.0778 176.008 36.1885C176.008 36.2959 175.971 36.3887 175.896 36.4668C175.824 36.5417 175.726 36.5791 175.603 36.5791C175.479 36.5791 175.381 36.5417 175.31 36.4668C175.241 36.3887 175.207 36.2959 175.207 36.1885ZM180.964 37.7168H181.506V42.9072C181.506 43.3662 181.418 43.7601 181.242 44.0889C181.07 44.4176 180.824 44.6699 180.505 44.8457C180.189 45.0215 179.817 45.1094 179.387 45.1094C179.169 45.1094 178.944 45.0752 178.713 45.0068C178.485 44.9417 178.269 44.8408 178.064 44.7041C177.862 44.5706 177.689 44.4046 177.546 44.2061L177.873 43.8496C178.088 44.11 178.318 44.3005 178.562 44.4209C178.806 44.5446 179.069 44.6064 179.353 44.6064C179.688 44.6064 179.971 44.5397 180.202 44.4062C180.437 44.2728 180.614 44.0807 180.735 43.8301C180.858 43.5794 180.92 43.2783 180.92 42.9268V38.8789L180.964 37.7168ZM177.253 40.4121V40.3096C177.253 39.8994 177.299 39.5299 177.39 39.2012C177.484 38.8691 177.619 38.5859 177.795 38.3516C177.971 38.1139 178.184 37.9333 178.435 37.8096C178.689 37.6826 178.975 37.6191 179.294 37.6191C179.6 37.6191 179.872 37.6696 180.11 37.7705C180.347 37.8714 180.552 38.0163 180.725 38.2051C180.897 38.3939 181.036 38.6185 181.14 38.8789C181.247 39.1393 181.325 39.429 181.374 39.748V41.0518C181.335 41.3512 181.263 41.6263 181.159 41.877C181.055 42.1243 180.917 42.3408 180.744 42.5264C180.572 42.7087 180.363 42.8503 180.119 42.9512C179.878 43.0488 179.6 43.0977 179.284 43.0977C178.969 43.0977 178.685 43.0326 178.435 42.9023C178.184 42.7721 177.971 42.5882 177.795 42.3506C177.619 42.1097 177.484 41.8249 177.39 41.4961C177.299 41.1673 177.253 40.806 177.253 40.4121ZM177.839 40.3096V40.4121C177.839 40.7214 177.87 41.0078 177.932 41.2715C177.994 41.5352 178.088 41.7646 178.215 41.96C178.342 42.1553 178.503 42.3083 178.698 42.4189C178.894 42.5296 179.123 42.585 179.387 42.585C179.722 42.585 180.004 42.5215 180.232 42.3945C180.459 42.2643 180.64 42.0934 180.774 41.8818C180.907 41.667 181.005 41.4326 181.067 41.1787V39.6602C181.031 39.4876 180.975 39.3118 180.901 39.1328C180.829 38.9538 180.728 38.7894 180.598 38.6396C180.471 38.4867 180.308 38.3646 180.11 38.2734C179.914 38.179 179.677 38.1318 179.397 38.1318C179.13 38.1318 178.897 38.1872 178.698 38.2979C178.503 38.4085 178.342 38.5632 178.215 38.7617C178.088 38.957 177.994 39.1865 177.932 39.4502C177.87 39.7139 177.839 40.0003 177.839 40.3096ZM183.615 35.5V43H183.034V35.5H183.615ZM183.484 40.0312L183.225 39.8848C183.244 39.5723 183.308 39.2793 183.415 39.0059C183.523 38.7324 183.667 38.4915 183.85 38.2832C184.035 38.0749 184.252 37.9121 184.499 37.7949C184.75 37.6777 185.027 37.6191 185.329 37.6191C185.593 37.6191 185.829 37.6549 186.037 37.7266C186.246 37.7982 186.423 37.9121 186.569 38.0684C186.716 38.2246 186.827 38.4248 186.902 38.6689C186.98 38.9131 187.019 39.2109 187.019 39.5625V43H186.433V39.5576C186.433 39.193 186.382 38.9082 186.281 38.7031C186.18 38.4948 186.037 38.3467 185.852 38.2588C185.666 38.1709 185.446 38.127 185.193 38.127C184.913 38.127 184.667 38.1888 184.455 38.3125C184.247 38.4329 184.071 38.5908 183.928 38.7861C183.788 38.9782 183.68 39.1849 183.606 39.4062C183.531 39.6243 183.49 39.8327 183.484 40.0312ZM190.52 37.7168V38.1953H187.873V37.7168H190.52ZM188.845 36.3594H189.426V41.7158C189.426 41.96 189.458 42.1439 189.524 42.2676C189.589 42.3913 189.673 42.4743 189.777 42.5166C189.882 42.5589 189.994 42.5801 190.114 42.5801C190.202 42.5801 190.287 42.5752 190.368 42.5654C190.45 42.5524 190.523 42.5394 190.588 42.5264L190.612 43.0195C190.541 43.0423 190.448 43.0602 190.334 43.0732C190.22 43.0895 190.106 43.0977 189.992 43.0977C189.768 43.0977 189.569 43.057 189.397 42.9756C189.224 42.891 189.089 42.7477 188.991 42.5459C188.894 42.3408 188.845 42.0625 188.845 41.7109V36.3594ZM191.692 42.6436C191.692 42.5296 191.727 42.4336 191.799 42.3555C191.874 42.2741 191.975 42.2334 192.102 42.2334C192.232 42.2334 192.334 42.2725 192.409 42.3506C192.484 42.4287 192.522 42.5264 192.522 42.6436C192.522 42.7542 192.484 42.8486 192.409 42.9268C192.334 43.0049 192.232 43.0439 192.102 43.0439C191.975 43.0439 191.874 43.0049 191.799 42.9268C191.727 42.8486 191.692 42.7542 191.692 42.6436Z" fill="#828489"/>
</svg>
