<svg width="223" height="50" viewBox="0 0 223 50" fill="none" xmlns="http://www.w3.org/2000/svg">
<path d="M0.769394 33.4935C0.769394 35.5412 2.16803 37.2025 3.89456 37.2025H12.2475C17.9161 37.2025 22.5289 31.7288 22.5289 24.9982C22.5289 22.9505 21.1302 21.2892 19.4037 21.2892C17.6772 21.2892 16.2785 22.9505 16.2785 24.9982C16.2785 27.6371 14.4705 29.7845 12.2456 29.7845H7.01973V22.3103H0.769394V33.4935Z" fill="white"/>
<path d="M14.6835 0H4.55776C2.46628 0 0.769394 1.66135 0.769394 3.70901V14.8923H8.34612V7.41802H14.6835C24.5851 7.41802 32.6417 15.3058 32.6417 25C32.6417 34.6942 24.5851 42.582 14.6835 42.582H4.55776C2.46628 42.582 0.769394 44.2433 0.769394 46.291C0.769394 48.3387 2.46628 50 4.55776 50H14.6835C28.7625 50 40.2184 38.7859 40.2184 25C40.2184 11.2141 28.7644 0 14.6835 0Z" fill="white"/>
<path d="M19.2499 14.4334L12.455 26.7829L19.3518 23.9608L26.3061 26.6396L19.2499 14.4334Z" fill="white"/>
<path d="M19.3518 23.9608L26.3061 26.6396L19.2499 14.4334L19.3518 23.9608Z" fill="white"/>
<path d="M54.7617 29H51.0469L51.0703 26.2578H54.7617C55.6836 26.2578 56.4609 26.0508 57.0938 25.6367C57.7266 25.2148 58.2031 24.6016 58.5234 23.7969C58.8516 22.9922 59.0156 22.0195 59.0156 20.8789V20.0469C59.0156 19.1719 58.9219 18.4023 58.7344 17.7383C58.5547 17.0742 58.2852 16.5156 57.9258 16.0625C57.5664 15.6094 57.125 15.2695 56.6016 15.043C56.0781 14.8086 55.4766 14.6914 54.7969 14.6914H50.9766V11.9375H54.7969C55.9375 11.9375 56.9805 12.1328 57.9258 12.5234C58.8789 12.9062 59.7031 13.457 60.3984 14.1758C61.0938 14.8945 61.6289 15.7539 62.0039 16.7539C62.3867 17.7461 62.5781 18.8516 62.5781 20.0703V20.8789C62.5781 22.0898 62.3867 23.1953 62.0039 24.1953C61.6289 25.1953 61.0938 26.0547 60.3984 26.7734C59.7109 27.4844 58.8867 28.0352 57.9258 28.4258C56.9727 28.8086 55.918 29 54.7617 29ZM53.0391 11.9375V29H49.5234V11.9375H53.0391ZM69.3511 11.9375V29H65.8472V11.9375H69.3511ZM86.6475 20.082V26.8438C86.3819 27.1641 85.9717 27.5117 85.417 27.8867C84.8623 28.2539 84.1475 28.5703 83.2725 28.8359C82.3975 29.1016 81.3389 29.2344 80.0967 29.2344C78.9952 29.2344 77.9912 29.0547 77.085 28.6953C76.1787 28.3281 75.3975 27.793 74.7412 27.0898C74.0928 26.3867 73.5928 25.5273 73.2412 24.5117C72.8897 23.4883 72.7139 22.3203 72.7139 21.0078V19.9414C72.7139 18.6289 72.8819 17.4609 73.2178 16.4375C73.5616 15.4141 74.0498 14.5508 74.6827 13.8477C75.3155 13.1445 76.0694 12.6094 76.9444 12.2422C77.8194 11.875 78.792 11.6914 79.8623 11.6914C81.3467 11.6914 82.5655 11.9336 83.5186 12.418C84.4717 12.8945 85.1983 13.5586 85.6983 14.4102C86.2061 15.2539 86.5186 16.2227 86.6358 17.3164H83.2256C83.1397 16.7383 82.9756 16.2344 82.7334 15.8047C82.4912 15.375 82.1436 15.0391 81.6905 14.7969C81.2452 14.5547 80.667 14.4336 79.9561 14.4336C79.3702 14.4336 78.8467 14.5547 78.3858 14.7969C77.9327 15.0312 77.5498 15.3789 77.2373 15.8398C76.9248 16.3008 76.6866 16.8711 76.5225 17.5508C76.3584 18.2305 76.2764 19.0195 76.2764 19.918V21.0078C76.2764 21.8984 76.3623 22.6875 76.5342 23.375C76.7061 24.0547 76.96 24.6289 77.2959 25.0977C77.6397 25.5586 78.0616 25.9062 78.5616 26.1406C79.0616 26.375 79.6436 26.4922 80.3077 26.4922C80.8623 26.4922 81.3233 26.4453 81.6905 26.3516C82.0655 26.2578 82.3662 26.1445 82.5928 26.0117C82.8272 25.8711 83.0069 25.7383 83.1319 25.6133V22.5898H79.9209V20.082H86.6475ZM93.7017 11.9375V29H90.1978V11.9375H93.7017ZM104.752 11.9375V29H101.248V11.9375H104.752ZM110.002 11.9375V14.6914H96.0802V11.9375H110.002ZM118.158 14.8555L113.517 29H109.779L116.119 11.9375H118.498L118.158 14.8555ZM122.013 29L117.361 14.8555L116.986 11.9375H119.388L125.763 29H122.013ZM121.802 22.6484V25.4023H112.791V22.6484H121.802ZM138.794 26.2578V29H130.204V26.2578H138.794ZM131.341 11.9375V29H127.825V11.9375H131.341ZM156.629 24.5352C156.629 24.2305 156.582 23.957 156.488 23.7148C156.402 23.4648 156.238 23.2383 155.996 23.0352C155.754 22.8242 155.414 22.6172 154.977 22.4141C154.539 22.2109 153.973 22 153.277 21.7812C152.504 21.5312 151.77 21.25 151.074 20.9375C150.387 20.625 149.777 20.2617 149.246 19.8477C148.723 19.4258 148.309 18.9375 148.004 18.3828C147.707 17.8281 147.559 17.1836 147.559 16.4492C147.559 15.7383 147.715 15.0938 148.027 14.5156C148.34 13.9297 148.777 13.4297 149.34 13.0156C149.902 12.5938 150.567 12.2695 151.332 12.043C152.106 11.8164 152.953 11.7031 153.875 11.7031C155.133 11.7031 156.231 11.9297 157.168 12.3828C158.106 12.8359 158.832 13.457 159.348 14.2461C159.871 15.0352 160.133 15.9375 160.133 16.9531H156.641C156.641 16.4531 156.535 16.0156 156.324 15.6406C156.121 15.2578 155.809 14.957 155.387 14.7383C154.973 14.5195 154.449 14.4102 153.817 14.4102C153.207 14.4102 152.699 14.5039 152.293 14.6914C151.887 14.8711 151.582 15.1172 151.379 15.4297C151.176 15.7344 151.074 16.0781 151.074 16.4609C151.074 16.75 151.145 17.0117 151.285 17.2461C151.434 17.4805 151.652 17.6992 151.942 17.9023C152.231 18.1055 152.586 18.2969 153.008 18.4766C153.43 18.6562 153.918 18.832 154.473 19.0039C155.402 19.2852 156.219 19.6016 156.922 19.9531C157.633 20.3047 158.227 20.6992 158.703 21.1367C159.18 21.5742 159.539 22.0703 159.781 22.625C160.024 23.1797 160.145 23.8086 160.145 24.5117C160.145 25.2539 160 25.918 159.711 26.5039C159.422 27.0898 159.004 27.5859 158.457 27.9922C157.91 28.3984 157.258 28.707 156.5 28.918C155.742 29.1289 154.895 29.2344 153.957 29.2344C153.113 29.2344 152.281 29.125 151.461 28.9062C150.641 28.6797 149.895 28.3398 149.223 27.8867C148.559 27.4336 148.027 26.8555 147.629 26.1523C147.231 25.4492 147.031 24.6172 147.031 23.6562H150.559C150.559 24.1875 150.641 24.6367 150.805 25.0039C150.969 25.3711 151.199 25.668 151.496 25.8945C151.801 26.1211 152.16 26.2852 152.574 26.3867C152.996 26.4883 153.457 26.5391 153.957 26.5391C154.567 26.5391 155.067 26.4531 155.457 26.2812C155.856 26.1094 156.149 25.8711 156.336 25.5664C156.531 25.2617 156.629 24.918 156.629 24.5352ZM169.66 22.918H165.312V20.1758H169.66C170.332 20.1758 170.879 20.0664 171.3 19.8477C171.722 19.6211 172.031 19.3086 172.226 18.9102C172.422 18.5117 172.519 18.0625 172.519 17.5625C172.519 17.0547 172.422 16.582 172.226 16.1445C172.031 15.707 171.722 15.3555 171.3 15.0898C170.879 14.8242 170.332 14.6914 169.66 14.6914H166.531V29H163.015V11.9375H169.66C170.996 11.9375 172.14 12.1797 173.093 12.6641C174.054 13.1406 174.789 13.8008 175.297 14.6445C175.804 15.4883 176.058 16.4531 176.058 17.5391C176.058 18.6406 175.804 19.5938 175.297 20.3984C174.789 21.2031 174.054 21.8242 173.093 22.2617C172.14 22.6992 170.996 22.918 169.66 22.918ZM183.956 14.8555L179.316 29H175.577L181.917 11.9375H184.296L183.956 14.8555ZM187.812 29L183.159 14.8555L182.784 11.9375H185.187L191.562 29H187.812ZM187.601 22.6484V25.4023H178.589V22.6484H187.601ZM203.303 23.3398H206.807C206.737 24.4883 206.421 25.5078 205.858 26.3984C205.303 27.2891 204.526 27.9844 203.526 28.4844C202.534 28.9844 201.339 29.2344 199.94 29.2344C198.846 29.2344 197.866 29.0469 196.999 28.6719C196.132 28.2891 195.389 27.7422 194.772 27.0312C194.163 26.3203 193.698 25.4609 193.378 24.4531C193.057 23.4453 192.897 22.3164 192.897 21.0664V19.8828C192.897 18.6328 193.061 17.5039 193.389 16.4961C193.725 15.4805 194.202 14.6172 194.819 13.9062C195.444 13.1953 196.19 12.6484 197.057 12.2656C197.925 11.8828 198.893 11.6914 199.964 11.6914C201.385 11.6914 202.585 11.9492 203.561 12.4648C204.546 12.9805 205.307 13.6914 205.846 14.5977C206.393 15.5039 206.721 16.5352 206.831 17.6914H203.315C203.276 17.0039 203.139 16.4219 202.905 15.9453C202.671 15.4609 202.315 15.0977 201.839 14.8555C201.37 14.6055 200.745 14.4805 199.964 14.4805C199.378 14.4805 198.866 14.5898 198.428 14.8086C197.991 15.0273 197.624 15.3594 197.327 15.8047C197.03 16.25 196.807 16.8125 196.659 17.4922C196.518 18.1641 196.448 18.9531 196.448 19.8594V21.0664C196.448 21.9492 196.514 22.7266 196.647 23.3984C196.78 24.0625 196.983 24.625 197.257 25.0859C197.538 25.5391 197.897 25.8828 198.335 26.1172C198.78 26.3438 199.315 26.457 199.94 26.457C200.675 26.457 201.28 26.3398 201.757 26.1055C202.233 25.8711 202.596 25.5234 202.846 25.0625C203.104 24.6016 203.257 24.0273 203.303 23.3398ZM221.045 26.2578V29H211.963V26.2578H221.045ZM213.112 11.9375V29H209.596V11.9375H213.112ZM219.862 18.8867V21.5586H211.963V18.8867H219.862ZM221.033 11.9375V14.6914H211.963V11.9375H221.033Z" fill="white"/>
<path d="M52.7051 41.1201L54.248 35.8906H54.7314L54.3408 37.4434L52.6953 43H52.2314L52.7051 41.1201ZM50.9131 35.8906L52.2119 41.0713L52.6025 43H52.1191L50.2979 35.8906H50.9131ZM56.8115 41.0713L58.0908 35.8906H58.7061L56.8896 43H56.4062L56.8115 41.0713ZM54.7852 35.8906L56.3086 41.1201L56.7773 43H56.3135L54.7021 37.4434L54.3066 35.8906H54.7852ZM60.3125 35.5V43H59.7314V35.5H60.3125ZM60.1807 40.0312L59.9219 39.8848C59.9414 39.5723 60.0049 39.2793 60.1123 39.0059C60.2197 38.7324 60.3646 38.4915 60.5469 38.2832C60.7324 38.0749 60.9489 37.9121 61.1963 37.7949C61.4469 37.6777 61.7236 37.6191 62.0264 37.6191C62.29 37.6191 62.526 37.6549 62.7344 37.7266C62.9427 37.7982 63.1201 37.9121 63.2666 38.0684C63.4131 38.2246 63.5238 38.4248 63.5986 38.6689C63.6768 38.9131 63.7158 39.2109 63.7158 39.5625V43H63.1299V39.5576C63.1299 39.193 63.0794 38.9082 62.9785 38.7031C62.8776 38.4948 62.7344 38.3467 62.5488 38.2588C62.3633 38.1709 62.1436 38.127 61.8896 38.127C61.6097 38.127 61.3639 38.1888 61.1523 38.3125C60.944 38.4329 60.7682 38.5908 60.625 38.7861C60.485 38.9782 60.3776 39.1849 60.3027 39.4062C60.2279 39.6243 60.1872 39.8327 60.1807 40.0312ZM67.2607 43.0977C66.9157 43.0977 66.5983 43.0342 66.3086 42.9072C66.0221 42.7803 65.7715 42.6012 65.5566 42.3701C65.3451 42.139 65.1807 41.8656 65.0635 41.5498C64.9495 41.2308 64.8926 40.8825 64.8926 40.5049V40.2949C64.8926 39.888 64.9528 39.5202 65.0732 39.1914C65.1937 38.8626 65.3597 38.5811 65.5713 38.3467C65.7829 38.1123 66.0238 37.9333 66.2939 37.8096C66.5674 37.6826 66.8538 37.6191 67.1533 37.6191C67.4886 37.6191 67.7865 37.6794 68.0469 37.7998C68.3073 37.917 68.5254 38.0846 68.7012 38.3027C68.8802 38.5176 69.0153 38.7731 69.1064 39.0693C69.1976 39.3623 69.2432 39.6862 69.2432 40.041V40.3975H65.2441V39.8994H68.6621V39.8311C68.6556 39.5348 68.5954 39.2581 68.4814 39.001C68.3708 38.7406 68.2048 38.529 67.9834 38.3662C67.762 38.2035 67.4854 38.1221 67.1533 38.1221C66.9059 38.1221 66.6781 38.1742 66.4697 38.2783C66.2646 38.3825 66.0872 38.5322 65.9375 38.7275C65.791 38.9196 65.6771 39.1491 65.5957 39.416C65.5176 39.6797 65.4785 39.9727 65.4785 40.2949V40.5049C65.4785 40.7979 65.5208 41.0713 65.6055 41.3252C65.6934 41.5758 65.8171 41.7972 65.9766 41.9893C66.1393 42.1813 66.3314 42.3311 66.5527 42.4385C66.7741 42.5459 67.0182 42.5996 67.2852 42.5996C67.5977 42.5996 67.8743 42.5426 68.1152 42.4287C68.3561 42.3115 68.5726 42.1276 68.7646 41.877L69.1309 42.1602C69.0169 42.3294 68.8737 42.4857 68.7012 42.6289C68.5319 42.7721 68.3285 42.8861 68.0908 42.9707C67.8532 43.0553 67.5765 43.0977 67.2607 43.0977ZM70.9766 38.5908V43H70.3955V37.7168H70.9619L70.9766 38.5908ZM72.8467 37.6777L72.832 38.2148C72.7669 38.2051 72.7035 38.1969 72.6416 38.1904C72.5798 38.1839 72.513 38.1807 72.4414 38.1807C72.1875 38.1807 71.9645 38.2279 71.7725 38.3223C71.5837 38.4134 71.4242 38.542 71.2939 38.708C71.1637 38.8708 71.0645 39.0628 70.9961 39.2842C70.9277 39.5023 70.8887 39.7367 70.8789 39.9873L70.6641 40.0703C70.6641 39.7253 70.6999 39.4046 70.7715 39.1084C70.8431 38.8122 70.9521 38.5534 71.0986 38.332C71.2484 38.1074 71.4355 37.9333 71.6602 37.8096C71.888 37.6826 72.1549 37.6191 72.4609 37.6191C72.5358 37.6191 72.609 37.6257 72.6807 37.6387C72.7555 37.6484 72.8109 37.6615 72.8467 37.6777ZM75.708 43.0977C75.363 43.0977 75.0456 43.0342 74.7559 42.9072C74.4694 42.7803 74.2188 42.6012 74.0039 42.3701C73.7923 42.139 73.6279 41.8656 73.5107 41.5498C73.3968 41.2308 73.3398 40.8825 73.3398 40.5049V40.2949C73.3398 39.888 73.4001 39.5202 73.5205 39.1914C73.641 38.8626 73.807 38.5811 74.0186 38.3467C74.2301 38.1123 74.471 37.9333 74.7412 37.8096C75.0146 37.6826 75.3011 37.6191 75.6006 37.6191C75.9359 37.6191 76.2337 37.6794 76.4941 37.7998C76.7546 37.917 76.9727 38.0846 77.1484 38.3027C77.3275 38.5176 77.4626 38.7731 77.5537 39.0693C77.6449 39.3623 77.6904 39.6862 77.6904 40.041V40.3975H73.6914V39.8994H77.1094V39.8311C77.1029 39.5348 77.0426 39.2581 76.9287 39.001C76.818 38.7406 76.652 38.529 76.4307 38.3662C76.2093 38.2035 75.9326 38.1221 75.6006 38.1221C75.3532 38.1221 75.1253 38.1742 74.917 38.2783C74.7119 38.3825 74.5345 38.5322 74.3848 38.7275C74.2383 38.9196 74.1243 39.1491 74.043 39.416C73.9648 39.6797 73.9258 39.9727 73.9258 40.2949V40.5049C73.9258 40.7979 73.9681 41.0713 74.0527 41.3252C74.1406 41.5758 74.2643 41.7972 74.4238 41.9893C74.5866 42.1813 74.7786 42.3311 75 42.4385C75.2214 42.5459 75.4655 42.5996 75.7324 42.5996C76.0449 42.5996 76.3216 42.5426 76.5625 42.4287C76.8034 42.3115 77.0199 42.1276 77.2119 41.877L77.5781 42.1602C77.4642 42.3294 77.321 42.4857 77.1484 42.6289C76.9792 42.7721 76.7757 42.8861 76.5381 42.9707C76.3005 43.0553 76.0238 43.0977 75.708 43.0977ZM82.8516 42.4727L84.4971 37.7168H85.127L82.8906 43.8496C82.8451 43.9701 82.7865 44.1035 82.7148 44.25C82.6465 44.3965 82.5553 44.5365 82.4414 44.6699C82.3307 44.8066 82.1908 44.9173 82.0215 45.002C81.8555 45.0898 81.652 45.1338 81.4111 45.1338C81.3493 45.1338 81.2695 45.1257 81.1719 45.1094C81.0775 45.0964 81.0091 45.0833 80.9668 45.0703L80.9619 44.5771C80.9977 44.5869 81.0498 44.5951 81.1182 44.6016C81.1865 44.6081 81.2337 44.6113 81.2598 44.6113C81.4714 44.6113 81.6488 44.5755 81.792 44.5039C81.9385 44.4323 82.0605 44.3249 82.1582 44.1816C82.2559 44.0417 82.3421 43.8659 82.417 43.6543L82.8516 42.4727ZM81.3135 37.7168L82.998 42.2529L83.1543 42.8633L82.7295 43.1025L80.6787 37.7168H81.3135ZM85.6396 40.4414V40.2803C85.6396 39.8962 85.695 39.5413 85.8057 39.2158C85.9163 38.8903 86.0742 38.6087 86.2793 38.3711C86.4876 38.1335 86.7367 37.9495 87.0264 37.8193C87.3161 37.6859 87.6383 37.6191 87.9932 37.6191C88.3512 37.6191 88.6751 37.6859 88.9648 37.8193C89.2546 37.9495 89.5036 38.1335 89.7119 38.3711C89.9202 38.6087 90.0798 38.8903 90.1904 39.2158C90.3011 39.5413 90.3564 39.8962 90.3564 40.2803V40.4414C90.3564 40.8255 90.3011 41.1803 90.1904 41.5059C90.0798 41.8281 89.9202 42.1081 89.7119 42.3457C89.5068 42.5833 89.2594 42.7689 88.9697 42.9023C88.68 43.0326 88.3577 43.0977 88.0029 43.0977C87.6449 43.0977 87.321 43.0326 87.0312 42.9023C86.7415 42.7689 86.4925 42.5833 86.2842 42.3457C86.0758 42.1081 85.9163 41.8281 85.8057 41.5059C85.695 41.1803 85.6396 40.8255 85.6396 40.4414ZM86.2207 40.2803V40.4414C86.2207 40.7311 86.2598 41.0062 86.3379 41.2666C86.416 41.5238 86.5299 41.7533 86.6797 41.9551C86.8294 42.1536 87.015 42.3099 87.2363 42.4238C87.4577 42.5378 87.7132 42.5947 88.0029 42.5947C88.2894 42.5947 88.5417 42.5378 88.7598 42.4238C88.9811 42.3099 89.1667 42.1536 89.3164 41.9551C89.4661 41.7533 89.5785 41.5238 89.6533 41.2666C89.7314 41.0062 89.7705 40.7311 89.7705 40.4414V40.2803C89.7705 39.9938 89.7314 39.722 89.6533 39.4648C89.5785 39.2077 89.4645 38.9782 89.3115 38.7764C89.1618 38.5745 88.9762 38.415 88.7549 38.2979C88.5335 38.1807 88.2796 38.1221 87.9932 38.1221C87.7067 38.1221 87.4528 38.1807 87.2314 38.2979C87.0133 38.415 86.8278 38.5745 86.6748 38.7764C86.5251 38.9782 86.4111 39.2077 86.333 39.4648C86.2581 39.722 86.2207 39.9938 86.2207 40.2803ZM94.9512 41.7793V37.7168H95.5371V43H94.9756L94.9512 41.7793ZM95.0586 40.8027L95.3613 40.793C95.3613 41.125 95.3223 41.431 95.2441 41.7109C95.166 41.9909 95.0439 42.235 94.8779 42.4434C94.7119 42.6517 94.4971 42.8128 94.2334 42.9268C93.9697 43.0407 93.6523 43.0977 93.2812 43.0977C93.0241 43.0977 92.7881 43.0618 92.5732 42.9902C92.3617 42.9154 92.1794 42.7982 92.0264 42.6387C91.8734 42.4792 91.7546 42.2725 91.6699 42.0186C91.5885 41.7646 91.5479 41.457 91.5479 41.0957V37.7168H92.1289V41.1055C92.1289 41.3887 92.1598 41.6247 92.2217 41.8135C92.2868 42.0023 92.3747 42.1536 92.4854 42.2676C92.5993 42.3815 92.7295 42.4629 92.876 42.5117C93.0225 42.5605 93.1803 42.585 93.3496 42.585C93.7793 42.585 94.1178 42.502 94.3652 42.3359C94.6159 42.1699 94.7933 41.9518 94.8975 41.6816C95.0049 41.4082 95.0586 41.1152 95.0586 40.8027ZM97.6465 38.5908V43H97.0654V37.7168H97.6318L97.6465 38.5908ZM99.5166 37.6777L99.502 38.2148C99.4368 38.2051 99.3734 38.1969 99.3115 38.1904C99.2497 38.1839 99.1829 38.1807 99.1113 38.1807C98.8574 38.1807 98.6344 38.2279 98.4424 38.3223C98.2536 38.4134 98.0941 38.542 97.9639 38.708C97.8337 38.8708 97.7344 39.0628 97.666 39.2842C97.5977 39.5023 97.5586 39.7367 97.5488 39.9873L97.334 40.0703C97.334 39.7253 97.3698 39.4046 97.4414 39.1084C97.513 38.8122 97.6221 38.5534 97.7686 38.332C97.9183 38.1074 98.1055 37.9333 98.3301 37.8096C98.5579 37.6826 98.8249 37.6191 99.1309 37.6191C99.2057 37.6191 99.279 37.6257 99.3506 37.6387C99.4255 37.6484 99.4808 37.6615 99.5166 37.6777ZM102.866 35.5H103.452V41.9746L103.413 43H102.866V35.5ZM107.129 40.3096V40.4121C107.129 40.806 107.083 41.1673 106.992 41.4961C106.901 41.8249 106.769 42.1097 106.597 42.3506C106.424 42.5882 106.213 42.7721 105.962 42.9023C105.715 43.0326 105.43 43.0977 105.107 43.0977C104.792 43.0977 104.512 43.0488 104.268 42.9512C104.023 42.8503 103.815 42.7087 103.643 42.5264C103.47 42.3408 103.332 42.1243 103.228 41.877C103.123 41.6263 103.05 41.3512 103.008 41.0518V39.748C103.057 39.429 103.135 39.1393 103.242 38.8789C103.35 38.6185 103.488 38.3939 103.657 38.2051C103.83 38.0163 104.035 37.8714 104.272 37.7705C104.513 37.6696 104.788 37.6191 105.098 37.6191C105.42 37.6191 105.706 37.6826 105.957 37.8096C106.211 37.9333 106.424 38.1139 106.597 38.3516C106.769 38.5859 106.901 38.8691 106.992 39.2012C107.083 39.5299 107.129 39.8994 107.129 40.3096ZM106.538 40.4121V40.3096C106.538 40.0003 106.509 39.7139 106.45 39.4502C106.392 39.1865 106.299 38.957 106.172 38.7617C106.048 38.5632 105.889 38.4085 105.693 38.2979C105.498 38.1872 105.264 38.1318 104.99 38.1318C104.71 38.1318 104.471 38.179 104.272 38.2734C104.077 38.3646 103.914 38.4867 103.784 38.6396C103.657 38.7894 103.556 38.9538 103.481 39.1328C103.407 39.3118 103.351 39.4876 103.315 39.6602V41.1787C103.371 41.4229 103.467 41.6523 103.604 41.8672C103.74 42.082 103.924 42.2562 104.155 42.3896C104.386 42.5199 104.668 42.585 105 42.585C105.267 42.585 105.496 42.5296 105.688 42.4189C105.884 42.3083 106.043 42.1553 106.167 41.96C106.294 41.7646 106.387 41.5352 106.445 41.2715C106.507 41.0078 106.538 40.7214 106.538 40.4121ZM111.807 41.7793V37.7168H112.393V43H111.831L111.807 41.7793ZM111.914 40.8027L112.217 40.793C112.217 41.125 112.178 41.431 112.1 41.7109C112.021 41.9909 111.899 42.235 111.733 42.4434C111.567 42.6517 111.353 42.8128 111.089 42.9268C110.825 43.0407 110.508 43.0977 110.137 43.0977C109.88 43.0977 109.644 43.0618 109.429 42.9902C109.217 42.9154 109.035 42.7982 108.882 42.6387C108.729 42.4792 108.61 42.2725 108.525 42.0186C108.444 41.7646 108.403 41.457 108.403 41.0957V37.7168H108.984V41.1055C108.984 41.3887 109.015 41.6247 109.077 41.8135C109.142 42.0023 109.23 42.1536 109.341 42.2676C109.455 42.3815 109.585 42.4629 109.731 42.5117C109.878 42.5605 110.036 42.585 110.205 42.585C110.635 42.585 110.973 42.502 111.221 42.3359C111.471 42.1699 111.649 41.9518 111.753 41.6816C111.86 41.4082 111.914 41.1152 111.914 40.8027ZM117.085 41.6523C117.085 41.5091 117.049 41.3675 116.978 41.2275C116.906 41.0876 116.768 40.959 116.562 40.8418C116.361 40.7246 116.063 40.6253 115.669 40.5439C115.376 40.4788 115.114 40.4056 114.883 40.3242C114.655 40.2428 114.463 40.1452 114.307 40.0312C114.15 39.9173 114.032 39.7806 113.95 39.6211C113.869 39.4616 113.828 39.2728 113.828 39.0547C113.828 38.8594 113.87 38.6755 113.955 38.5029C114.043 38.3271 114.167 38.1742 114.326 38.0439C114.489 37.9105 114.684 37.8063 114.912 37.7314C115.143 37.6566 115.402 37.6191 115.688 37.6191C116.095 37.6191 116.444 37.6891 116.733 37.8291C117.026 37.9658 117.249 38.153 117.402 38.3906C117.559 38.6283 117.637 38.8968 117.637 39.1963H117.056C117.056 39.014 117.002 38.8415 116.895 38.6787C116.79 38.516 116.636 38.3825 116.431 38.2783C116.229 38.1742 115.981 38.1221 115.688 38.1221C115.386 38.1221 115.14 38.1676 114.951 38.2588C114.762 38.3499 114.624 38.4655 114.536 38.6055C114.451 38.7454 114.409 38.8903 114.409 39.04C114.409 39.1572 114.427 39.2646 114.463 39.3623C114.502 39.4567 114.57 39.5446 114.668 39.626C114.769 39.7074 114.912 39.7839 115.098 39.8555C115.283 39.9271 115.524 39.9971 115.82 40.0654C116.247 40.1598 116.595 40.2754 116.865 40.4121C117.139 40.5456 117.34 40.7116 117.471 40.9102C117.601 41.1055 117.666 41.3431 117.666 41.623C117.666 41.8411 117.62 42.0413 117.529 42.2236C117.438 42.4027 117.306 42.5573 117.134 42.6875C116.965 42.8177 116.759 42.9186 116.519 42.9902C116.281 43.0618 116.014 43.0977 115.718 43.0977C115.272 43.0977 114.894 43.0244 114.585 42.8779C114.279 42.7282 114.046 42.5329 113.887 42.292C113.73 42.0479 113.652 41.7891 113.652 41.5156H114.233C114.253 41.7891 114.339 42.0055 114.492 42.165C114.645 42.3213 114.832 42.432 115.054 42.4971C115.278 42.5622 115.5 42.5947 115.718 42.5947C116.017 42.5947 116.268 42.5508 116.47 42.4629C116.672 42.375 116.825 42.2594 116.929 42.1162C117.033 41.973 117.085 41.8184 117.085 41.6523ZM119.639 37.7168V43H119.058V37.7168H119.639ZM118.955 36.1885C118.955 36.0778 118.989 35.985 119.058 35.9102C119.129 35.832 119.227 35.793 119.351 35.793C119.474 35.793 119.572 35.832 119.644 35.9102C119.718 35.985 119.756 36.0778 119.756 36.1885C119.756 36.2959 119.718 36.3887 119.644 36.4668C119.572 36.5417 119.474 36.5791 119.351 36.5791C119.227 36.5791 119.129 36.5417 119.058 36.4668C118.989 36.3887 118.955 36.2959 118.955 36.1885ZM121.816 38.8447V43H121.235V37.7168H121.792L121.816 38.8447ZM121.685 40.0312L121.426 39.8848C121.445 39.5723 121.509 39.2793 121.616 39.0059C121.724 38.7324 121.868 38.4915 122.051 38.2832C122.236 38.0749 122.453 37.9121 122.7 37.7949C122.951 37.6777 123.228 37.6191 123.53 37.6191C123.794 37.6191 124.03 37.6549 124.238 37.7266C124.447 37.7982 124.624 37.9121 124.771 38.0684C124.917 38.2246 125.028 38.4248 125.103 38.6689C125.181 38.9131 125.22 39.2109 125.22 39.5625V43H124.634V39.5576C124.634 39.193 124.583 38.9082 124.482 38.7031C124.382 38.4948 124.238 38.3467 124.053 38.2588C123.867 38.1709 123.647 38.127 123.394 38.127C123.114 38.127 122.868 38.1888 122.656 38.3125C122.448 38.4329 122.272 38.5908 122.129 38.7861C121.989 38.9782 121.882 39.1849 121.807 39.4062C121.732 39.6243 121.691 39.8327 121.685 40.0312ZM128.774 43.0977C128.429 43.0977 128.112 43.0342 127.822 42.9072C127.536 42.7803 127.285 42.6012 127.07 42.3701C126.859 42.139 126.694 41.8656 126.577 41.5498C126.463 41.2308 126.406 40.8825 126.406 40.5049V40.2949C126.406 39.888 126.466 39.5202 126.587 39.1914C126.707 38.8626 126.873 38.5811 127.085 38.3467C127.297 38.1123 127.537 37.9333 127.808 37.8096C128.081 37.6826 128.368 37.6191 128.667 37.6191C129.002 37.6191 129.3 37.6794 129.561 37.7998C129.821 37.917 130.039 38.0846 130.215 38.3027C130.394 38.5176 130.529 38.7731 130.62 39.0693C130.711 39.3623 130.757 39.6862 130.757 40.041V40.3975H126.758V39.8994H130.176V39.8311C130.169 39.5348 130.109 39.2581 129.995 39.001C129.884 38.7406 129.718 38.529 129.497 38.3662C129.276 38.2035 128.999 38.1221 128.667 38.1221C128.42 38.1221 128.192 38.1742 127.983 38.2783C127.778 38.3825 127.601 38.5322 127.451 38.7275C127.305 38.9196 127.191 39.1491 127.109 39.416C127.031 39.6797 126.992 39.9727 126.992 40.2949V40.5049C126.992 40.7979 127.035 41.0713 127.119 41.3252C127.207 41.5758 127.331 41.7972 127.49 41.9893C127.653 42.1813 127.845 42.3311 128.066 42.4385C128.288 42.5459 128.532 42.5996 128.799 42.5996C129.111 42.5996 129.388 42.5426 129.629 42.4287C129.87 42.3115 130.086 42.1276 130.278 41.877L130.645 42.1602C130.531 42.3294 130.387 42.4857 130.215 42.6289C130.046 42.7721 129.842 42.8861 129.604 42.9707C129.367 43.0553 129.09 43.0977 128.774 43.0977ZM135.073 41.6523C135.073 41.5091 135.037 41.3675 134.966 41.2275C134.894 41.0876 134.756 40.959 134.551 40.8418C134.349 40.7246 134.051 40.6253 133.657 40.5439C133.364 40.4788 133.102 40.4056 132.871 40.3242C132.643 40.2428 132.451 40.1452 132.295 40.0312C132.139 39.9173 132.02 39.7806 131.938 39.6211C131.857 39.4616 131.816 39.2728 131.816 39.0547C131.816 38.8594 131.859 38.6755 131.943 38.5029C132.031 38.3271 132.155 38.1742 132.314 38.0439C132.477 37.9105 132.673 37.8063 132.9 37.7314C133.132 37.6566 133.39 37.6191 133.677 37.6191C134.084 37.6191 134.432 37.6891 134.722 37.8291C135.015 37.9658 135.238 38.153 135.391 38.3906C135.547 38.6283 135.625 38.8968 135.625 39.1963H135.044C135.044 39.014 134.99 38.8415 134.883 38.6787C134.779 38.516 134.624 38.3825 134.419 38.2783C134.217 38.1742 133.97 38.1221 133.677 38.1221C133.374 38.1221 133.128 38.1676 132.939 38.2588C132.751 38.3499 132.612 38.4655 132.524 38.6055C132.44 38.7454 132.397 38.8903 132.397 39.04C132.397 39.1572 132.415 39.2646 132.451 39.3623C132.49 39.4567 132.559 39.5446 132.656 39.626C132.757 39.7074 132.9 39.7839 133.086 39.8555C133.271 39.9271 133.512 39.9971 133.809 40.0654C134.235 40.1598 134.583 40.2754 134.854 40.4121C135.127 40.5456 135.329 40.7116 135.459 40.9102C135.589 41.1055 135.654 41.3431 135.654 41.623C135.654 41.8411 135.609 42.0413 135.518 42.2236C135.426 42.4027 135.295 42.5573 135.122 42.6875C134.953 42.8177 134.748 42.9186 134.507 42.9902C134.269 43.0618 134.002 43.0977 133.706 43.0977C133.26 43.0977 132.882 43.0244 132.573 42.8779C132.267 42.7282 132.035 42.5329 131.875 42.292C131.719 42.0479 131.641 41.7891 131.641 41.5156H132.222C132.241 41.7891 132.327 42.0055 132.48 42.165C132.633 42.3213 132.821 42.432 133.042 42.4971C133.267 42.5622 133.488 42.5947 133.706 42.5947C134.006 42.5947 134.256 42.5508 134.458 42.4629C134.66 42.375 134.813 42.2594 134.917 42.1162C135.021 41.973 135.073 41.8184 135.073 41.6523ZM140.142 41.6523C140.142 41.5091 140.106 41.3675 140.034 41.2275C139.963 41.0876 139.824 40.959 139.619 40.8418C139.417 40.7246 139.119 40.6253 138.726 40.5439C138.433 40.4788 138.171 40.4056 137.939 40.3242C137.712 40.2428 137.52 40.1452 137.363 40.0312C137.207 39.9173 137.088 39.7806 137.007 39.6211C136.925 39.4616 136.885 39.2728 136.885 39.0547C136.885 38.8594 136.927 38.6755 137.012 38.5029C137.1 38.3271 137.223 38.1742 137.383 38.0439C137.546 37.9105 137.741 37.8063 137.969 37.7314C138.2 37.6566 138.459 37.6191 138.745 37.6191C139.152 37.6191 139.5 37.6891 139.79 37.8291C140.083 37.9658 140.306 38.153 140.459 38.3906C140.615 38.6283 140.693 38.8968 140.693 39.1963H140.112C140.112 39.014 140.059 38.8415 139.951 38.6787C139.847 38.516 139.692 38.3825 139.487 38.2783C139.285 38.1742 139.038 38.1221 138.745 38.1221C138.442 38.1221 138.197 38.1676 138.008 38.2588C137.819 38.3499 137.681 38.4655 137.593 38.6055C137.508 38.7454 137.466 38.8903 137.466 39.04C137.466 39.1572 137.484 39.2646 137.52 39.3623C137.559 39.4567 137.627 39.5446 137.725 39.626C137.826 39.7074 137.969 39.7839 138.154 39.8555C138.34 39.9271 138.581 39.9971 138.877 40.0654C139.303 40.1598 139.652 40.2754 139.922 40.4121C140.195 40.5456 140.397 40.7116 140.527 40.9102C140.658 41.1055 140.723 41.3431 140.723 41.623C140.723 41.8411 140.677 42.0413 140.586 42.2236C140.495 42.4027 140.363 42.5573 140.19 42.6875C140.021 42.8177 139.816 42.9186 139.575 42.9902C139.338 43.0618 139.071 43.0977 138.774 43.0977C138.328 43.0977 137.951 43.0244 137.642 42.8779C137.336 42.7282 137.103 42.5329 136.943 42.292C136.787 42.0479 136.709 41.7891 136.709 41.5156H137.29C137.31 41.7891 137.396 42.0055 137.549 42.165C137.702 42.3213 137.889 42.432 138.11 42.4971C138.335 42.5622 138.556 42.5947 138.774 42.5947C139.074 42.5947 139.325 42.5508 139.526 42.4629C139.728 42.375 139.881 42.2594 139.985 42.1162C140.09 41.973 140.142 41.8184 140.142 41.6523ZM146.484 37.7168V38.1953H143.838V37.7168H146.484ZM144.81 36.3594H145.391V41.7158C145.391 41.96 145.423 42.1439 145.488 42.2676C145.553 42.3913 145.638 42.4743 145.742 42.5166C145.846 42.5589 145.959 42.5801 146.079 42.5801C146.167 42.5801 146.252 42.5752 146.333 42.5654C146.414 42.5524 146.488 42.5394 146.553 42.5264L146.577 43.0195C146.506 43.0423 146.413 43.0602 146.299 43.0732C146.185 43.0895 146.071 43.0977 145.957 43.0977C145.732 43.0977 145.534 43.057 145.361 42.9756C145.189 42.891 145.054 42.7477 144.956 42.5459C144.858 42.3408 144.81 42.0625 144.81 41.7109V36.3594ZM150.923 42.0527V39.3281C150.923 39.0775 150.871 38.861 150.767 38.6787C150.662 38.4964 150.509 38.3564 150.308 38.2588C150.106 38.1611 149.857 38.1123 149.561 38.1123C149.287 38.1123 149.043 38.1611 148.828 38.2588C148.617 38.3532 148.449 38.4818 148.325 38.6445C148.205 38.804 148.145 38.9814 148.145 39.1768L147.559 39.1719C147.559 38.9733 147.607 38.7812 147.705 38.5957C147.803 38.4102 147.941 38.2441 148.12 38.0977C148.299 37.9512 148.512 37.8356 148.76 37.751C149.01 37.6631 149.285 37.6191 149.585 37.6191C149.963 37.6191 150.295 37.6826 150.581 37.8096C150.871 37.9365 151.097 38.127 151.26 38.3809C151.423 38.6348 151.504 38.9538 151.504 39.3379V41.8916C151.504 42.0739 151.517 42.2627 151.543 42.458C151.572 42.6533 151.613 42.8145 151.665 42.9414V43H151.045C151.006 42.8828 150.975 42.7363 150.952 42.5605C150.933 42.3815 150.923 42.2122 150.923 42.0527ZM151.06 39.9238L151.069 40.373H149.922C149.622 40.373 149.354 40.4007 149.116 40.4561C148.882 40.5081 148.683 40.5863 148.521 40.6904C148.358 40.7913 148.232 40.9134 148.145 41.0566C148.06 41.1999 148.018 41.3626 148.018 41.5449C148.018 41.7337 148.065 41.9062 148.159 42.0625C148.257 42.2188 148.394 42.3441 148.569 42.4385C148.748 42.5296 148.96 42.5752 149.204 42.5752C149.53 42.5752 149.816 42.515 150.063 42.3945C150.314 42.2741 150.521 42.1162 150.684 41.9209C150.846 41.7256 150.955 41.5124 151.011 41.2812L151.265 41.6182C151.222 41.7809 151.144 41.9486 151.03 42.1211C150.92 42.2904 150.775 42.4499 150.596 42.5996C150.417 42.7461 150.205 42.8665 149.961 42.9609C149.72 43.0521 149.447 43.0977 149.141 43.0977C148.796 43.0977 148.494 43.0326 148.237 42.9023C147.983 42.7721 147.785 42.5947 147.642 42.3701C147.502 42.1423 147.432 41.8851 147.432 41.5986C147.432 41.3382 147.487 41.1055 147.598 40.9004C147.708 40.6921 147.868 40.5163 148.076 40.373C148.288 40.2266 148.542 40.1159 148.838 40.041C149.137 39.9629 149.473 39.9238 149.844 39.9238H151.06ZM153.652 35.5V43H153.071V35.5H153.652ZM156.968 37.7168L154.497 40.168L153.447 41.1836L153.359 40.6123L154.204 39.6992L156.23 37.7168H156.968ZM156.46 43L154.253 40.2559L154.575 39.7529L157.163 43H156.46ZM159.917 43.0977C159.572 43.0977 159.255 43.0342 158.965 42.9072C158.678 42.7803 158.428 42.6012 158.213 42.3701C158.001 42.139 157.837 41.8656 157.72 41.5498C157.606 41.2308 157.549 40.8825 157.549 40.5049V40.2949C157.549 39.888 157.609 39.5202 157.729 39.1914C157.85 38.8626 158.016 38.5811 158.228 38.3467C158.439 38.1123 158.68 37.9333 158.95 37.8096C159.224 37.6826 159.51 37.6191 159.81 37.6191C160.145 37.6191 160.443 37.6794 160.703 37.7998C160.964 37.917 161.182 38.0846 161.357 38.3027C161.536 38.5176 161.672 38.7731 161.763 39.0693C161.854 39.3623 161.899 39.6862 161.899 40.041V40.3975H157.9V39.8994H161.318V39.8311C161.312 39.5348 161.252 39.2581 161.138 39.001C161.027 38.7406 160.861 38.529 160.64 38.3662C160.418 38.2035 160.142 38.1221 159.81 38.1221C159.562 38.1221 159.334 38.1742 159.126 38.2783C158.921 38.3825 158.743 38.5322 158.594 38.7275C158.447 38.9196 158.333 39.1491 158.252 39.416C158.174 39.6797 158.135 39.9727 158.135 40.2949V40.5049C158.135 40.7979 158.177 41.0713 158.262 41.3252C158.35 41.5758 158.473 41.7972 158.633 41.9893C158.796 42.1813 158.988 42.3311 159.209 42.4385C159.43 42.5459 159.674 42.5996 159.941 42.5996C160.254 42.5996 160.531 42.5426 160.771 42.4287C161.012 42.3115 161.229 42.1276 161.421 41.877L161.787 42.1602C161.673 42.3294 161.53 42.4857 161.357 42.6289C161.188 42.7721 160.985 42.8861 160.747 42.9707C160.509 43.0553 160.233 43.0977 159.917 43.0977ZM166.216 41.6523C166.216 41.5091 166.18 41.3675 166.108 41.2275C166.037 41.0876 165.898 40.959 165.693 40.8418C165.492 40.7246 165.194 40.6253 164.8 40.5439C164.507 40.4788 164.245 40.4056 164.014 40.3242C163.786 40.2428 163.594 40.1452 163.438 40.0312C163.281 39.9173 163.162 39.7806 163.081 39.6211C163 39.4616 162.959 39.2728 162.959 39.0547C162.959 38.8594 163.001 38.6755 163.086 38.5029C163.174 38.3271 163.298 38.1742 163.457 38.0439C163.62 37.9105 163.815 37.8063 164.043 37.7314C164.274 37.6566 164.533 37.6191 164.819 37.6191C165.226 37.6191 165.575 37.6891 165.864 37.8291C166.157 37.9658 166.38 38.153 166.533 38.3906C166.689 38.6283 166.768 38.8968 166.768 39.1963H166.187C166.187 39.014 166.133 38.8415 166.025 38.6787C165.921 38.516 165.767 38.3825 165.562 38.2783C165.36 38.1742 165.112 38.1221 164.819 38.1221C164.517 38.1221 164.271 38.1676 164.082 38.2588C163.893 38.3499 163.755 38.4655 163.667 38.6055C163.582 38.7454 163.54 38.8903 163.54 39.04C163.54 39.1572 163.558 39.2646 163.594 39.3623C163.633 39.4567 163.701 39.5446 163.799 39.626C163.9 39.7074 164.043 39.7839 164.229 39.8555C164.414 39.9271 164.655 39.9971 164.951 40.0654C165.378 40.1598 165.726 40.2754 165.996 40.4121C166.27 40.5456 166.471 40.7116 166.602 40.9102C166.732 41.1055 166.797 41.3431 166.797 41.623C166.797 41.8411 166.751 42.0413 166.66 42.2236C166.569 42.4027 166.437 42.5573 166.265 42.6875C166.095 42.8177 165.89 42.9186 165.649 42.9902C165.412 43.0618 165.145 43.0977 164.849 43.0977C164.403 43.0977 164.025 43.0244 163.716 42.8779C163.41 42.7282 163.177 42.5329 163.018 42.292C162.861 42.0479 162.783 41.7891 162.783 41.5156H163.364C163.384 41.7891 163.47 42.0055 163.623 42.165C163.776 42.3213 163.963 42.432 164.185 42.4971C164.409 42.5622 164.631 42.5947 164.849 42.5947C165.148 42.5947 165.399 42.5508 165.601 42.4629C165.802 42.375 165.955 42.2594 166.06 42.1162C166.164 41.973 166.216 41.8184 166.216 41.6523ZM171.562 43H170.981V37.0625C170.981 36.7012 171.045 36.3968 171.172 36.1494C171.299 35.902 171.479 35.7148 171.714 35.5879C171.951 35.4609 172.238 35.3975 172.573 35.3975C172.723 35.3975 172.899 35.4121 173.101 35.4414C173.306 35.4674 173.521 35.5033 173.745 35.5488C173.97 35.5944 174.188 35.6432 174.399 35.6953L174.097 36.1152C173.813 36.0599 173.548 36.0127 173.301 35.9736C173.053 35.9346 172.824 35.915 172.612 35.915C172.391 35.915 172.202 35.9606 172.046 36.0518C171.89 36.1396 171.769 36.2682 171.685 36.4375C171.603 36.6068 171.562 36.8151 171.562 37.0625V43ZM173.818 43V35.6953H174.399V43H173.818ZM172.822 37.7168V38.1953H170.107V37.7168H172.822ZM176.66 37.7168V43H176.079V37.7168H176.66ZM175.977 36.1885C175.977 36.0778 176.011 35.985 176.079 35.9102C176.151 35.832 176.248 35.793 176.372 35.793C176.496 35.793 176.593 35.832 176.665 35.9102C176.74 35.985 176.777 36.0778 176.777 36.1885C176.777 36.2959 176.74 36.3887 176.665 36.4668C176.593 36.5417 176.496 36.5791 176.372 36.5791C176.248 36.5791 176.151 36.5417 176.079 36.4668C176.011 36.3887 175.977 36.2959 175.977 36.1885ZM181.733 37.7168H182.275V42.9072C182.275 43.3662 182.188 43.7601 182.012 44.0889C181.839 44.4176 181.593 44.6699 181.274 44.8457C180.959 45.0215 180.586 45.1094 180.156 45.1094C179.938 45.1094 179.714 45.0752 179.482 45.0068C179.255 44.9417 179.038 44.8408 178.833 44.7041C178.631 44.5706 178.459 44.4046 178.315 44.2061L178.643 43.8496C178.857 44.11 179.087 44.3005 179.331 44.4209C179.575 44.5446 179.839 44.6064 180.122 44.6064C180.457 44.6064 180.741 44.5397 180.972 44.4062C181.206 44.2728 181.383 44.0807 181.504 43.8301C181.628 43.5794 181.689 43.2783 181.689 42.9268V38.8789L181.733 37.7168ZM178.022 40.4121V40.3096C178.022 39.8994 178.068 39.5299 178.159 39.2012C178.254 38.8691 178.389 38.5859 178.564 38.3516C178.74 38.1139 178.953 37.9333 179.204 37.8096C179.458 37.6826 179.744 37.6191 180.063 37.6191C180.369 37.6191 180.641 37.6696 180.879 37.7705C181.117 37.8714 181.322 38.0163 181.494 38.2051C181.667 38.3939 181.805 38.6185 181.909 38.8789C182.017 39.1393 182.095 39.429 182.144 39.748V41.0518C182.104 41.3512 182.033 41.6263 181.929 41.877C181.825 42.1243 181.686 42.3408 181.514 42.5264C181.341 42.7087 181.133 42.8503 180.889 42.9512C180.648 43.0488 180.369 43.0977 180.054 43.0977C179.738 43.0977 179.455 43.0326 179.204 42.9023C178.953 42.7721 178.74 42.5882 178.564 42.3506C178.389 42.1097 178.254 41.8249 178.159 41.4961C178.068 41.1673 178.022 40.806 178.022 40.4121ZM178.608 40.3096V40.4121C178.608 40.7214 178.639 41.0078 178.701 41.2715C178.763 41.5352 178.857 41.7646 178.984 41.96C179.111 42.1553 179.272 42.3083 179.468 42.4189C179.663 42.5296 179.893 42.585 180.156 42.585C180.492 42.585 180.773 42.5215 181.001 42.3945C181.229 42.2643 181.41 42.0934 181.543 41.8818C181.676 41.667 181.774 41.4326 181.836 41.1787V39.6602C181.8 39.4876 181.745 39.3118 181.67 39.1328C181.598 38.9538 181.497 38.7894 181.367 38.6396C181.24 38.4867 181.077 38.3646 180.879 38.2734C180.684 38.179 180.446 38.1318 180.166 38.1318C179.899 38.1318 179.666 38.1872 179.468 38.2979C179.272 38.4085 179.111 38.5632 178.984 38.7617C178.857 38.957 178.763 39.1865 178.701 39.4502C178.639 39.7139 178.608 40.0003 178.608 40.3096ZM184.385 35.5V43H183.804V35.5H184.385ZM184.253 40.0312L183.994 39.8848C184.014 39.5723 184.077 39.2793 184.185 39.0059C184.292 38.7324 184.437 38.4915 184.619 38.2832C184.805 38.0749 185.021 37.9121 185.269 37.7949C185.519 37.6777 185.796 37.6191 186.099 37.6191C186.362 37.6191 186.598 37.6549 186.807 37.7266C187.015 37.7982 187.192 37.9121 187.339 38.0684C187.485 38.2246 187.596 38.4248 187.671 38.6689C187.749 38.9131 187.788 39.2109 187.788 39.5625V43H187.202V39.5576C187.202 39.193 187.152 38.9082 187.051 38.7031C186.95 38.4948 186.807 38.3467 186.621 38.2588C186.436 38.1709 186.216 38.127 185.962 38.127C185.682 38.127 185.436 38.1888 185.225 38.3125C185.016 38.4329 184.84 38.5908 184.697 38.7861C184.557 38.9782 184.45 39.1849 184.375 39.4062C184.3 39.6243 184.259 39.8327 184.253 40.0312ZM191.289 37.7168V38.1953H188.643V37.7168H191.289ZM189.614 36.3594H190.195V41.7158C190.195 41.96 190.228 42.1439 190.293 42.2676C190.358 42.3913 190.443 42.4743 190.547 42.5166C190.651 42.5589 190.763 42.5801 190.884 42.5801C190.972 42.5801 191.056 42.5752 191.138 42.5654C191.219 42.5524 191.292 42.5394 191.357 42.5264L191.382 43.0195C191.31 43.0423 191.217 43.0602 191.104 43.0732C190.99 43.0895 190.876 43.0977 190.762 43.0977C190.537 43.0977 190.339 43.057 190.166 42.9756C189.993 42.891 189.858 42.7477 189.761 42.5459C189.663 42.3408 189.614 42.0625 189.614 41.7109V36.3594ZM192.461 42.6436C192.461 42.5296 192.497 42.4336 192.568 42.3555C192.643 42.2741 192.744 42.2334 192.871 42.2334C193.001 42.2334 193.104 42.2725 193.179 42.3506C193.254 42.4287 193.291 42.5264 193.291 42.6436C193.291 42.7542 193.254 42.8486 193.179 42.9268C193.104 43.0049 193.001 43.0439 192.871 43.0439C192.744 43.0439 192.643 43.0049 192.568 42.9268C192.497 42.8486 192.461 42.7542 192.461 42.6436Z" fill="#D9D9FF"/>
</svg>
