<svg width="237" height="50" viewBox="0 0 237 50" fill="none" xmlns="http://www.w3.org/2000/svg">
<path d="M0 33.4936C0 35.5412 1.39864 37.2026 3.12517 37.2026H11.4781C17.1467 37.2026 21.7595 31.7288 21.7595 24.9982C21.7595 22.9505 20.3608 21.2892 18.6343 21.2892C16.9078 21.2892 15.5091 22.9505 15.5091 24.9982C15.5091 27.6371 13.7011 29.7845 11.4762 29.7845H6.25034V22.3103H0V33.4936Z" fill="#5D5FEF"/>
<path d="M13.9141 0H3.78836C1.69689 0 0 1.66135 0 3.70901V14.8923H7.57673V7.41802H13.9141C23.8157 7.41802 31.8723 15.3058 31.8723 25C31.8723 34.6942 23.8157 42.582 13.9141 42.582H3.78836C1.69689 42.582 0 44.2433 0 46.291C0 48.3387 1.69689 50 3.78836 50H13.9141C27.9931 50 39.449 38.7859 39.449 25C39.449 11.2141 27.995 0 13.9141 0Z" fill="#5D5FEF"/>
<path d="M55.3252 30H51.3008L51.3262 27.0293H55.3252C56.3239 27.0293 57.166 26.805 57.8516 26.3564C58.5371 25.8994 59.0534 25.235 59.4004 24.3633C59.7559 23.4915 59.9336 22.4378 59.9336 21.2021V20.3008C59.9336 19.3529 59.832 18.5192 59.6289 17.7998C59.4342 17.0804 59.1423 16.4753 58.7529 15.9844C58.3636 15.4935 57.8854 15.1253 57.3184 14.8799C56.7513 14.626 56.0996 14.499 55.3633 14.499H51.2246V11.5156H55.3633C56.599 11.5156 57.7288 11.7272 58.7529 12.1504C59.7855 12.5651 60.6784 13.1618 61.4316 13.9404C62.1849 14.7191 62.7646 15.6501 63.1709 16.7334C63.5856 17.8083 63.793 19.0059 63.793 20.3262V21.2021C63.793 22.514 63.5856 23.7116 63.1709 24.7949C62.7646 25.8783 62.1849 26.8092 61.4316 27.5879C60.6868 28.3581 59.7939 28.9548 58.7529 29.3779C57.7204 29.7926 56.5778 30 55.3252 30ZM53.459 11.5156V30H49.6504V11.5156H53.459ZM71.1304 11.5156V30H67.3345V11.5156H71.1304ZM89.8681 20.3389V27.6641C89.5804 28.0111 89.136 28.3877 88.5351 28.7939C87.9342 29.1917 87.1598 29.5345 86.2119 29.8223C85.264 30.11 84.1171 30.2539 82.7714 30.2539C81.5781 30.2539 80.4905 30.0592 79.5088 29.6699C78.527 29.2721 77.6806 28.6924 76.9697 27.9307C76.2672 27.1689 75.7255 26.238 75.3447 25.1377C74.9638 24.029 74.7734 22.7637 74.7734 21.3418V20.1865C74.7734 18.7646 74.9554 17.4993 75.3193 16.3906C75.6917 15.2819 76.2207 14.3467 76.9062 13.585C77.5918 12.8232 78.4085 12.2435 79.3564 11.8457C80.3043 11.4479 81.358 11.249 82.5175 11.249C84.1256 11.249 85.4459 11.5114 86.4785 12.0361C87.511 12.5524 88.2981 13.2718 88.8398 14.1943C89.3899 15.1084 89.7285 16.1579 89.8554 17.3428H86.1611C86.068 16.7165 85.8903 16.1706 85.6279 15.7051C85.3655 15.2396 84.9889 14.8757 84.498 14.6133C84.0156 14.3509 83.3893 14.2197 82.6191 14.2197C81.9843 14.2197 81.4173 14.3509 80.9179 14.6133C80.427 14.8672 80.0123 15.2438 79.6738 15.7432C79.3352 16.2425 79.0771 16.8604 78.8994 17.5967C78.7216 18.333 78.6328 19.1878 78.6328 20.1611V21.3418C78.6328 22.3066 78.7259 23.1615 78.9121 23.9062C79.0983 24.6426 79.3733 25.2646 79.7373 25.7725C80.1097 26.2718 80.5667 26.6484 81.1084 26.9023C81.65 27.1562 82.2806 27.2832 83 27.2832C83.6009 27.2832 84.1002 27.2324 84.498 27.1309C84.9043 27.0293 85.2301 26.9066 85.4755 26.7627C85.7295 26.6104 85.9241 26.4665 86.0595 26.3311V23.0557H82.581V20.3389H89.8681ZM97.5102 11.5156V30H93.7143V11.5156H97.5102ZM109.481 11.5156V30H105.685V11.5156H109.481ZM115.169 11.5156V14.499H100.087V11.5156H115.169ZM124.004 14.6768L118.977 30H114.927L121.795 11.5156H124.372L124.004 14.6768ZM128.181 30L123.141 14.6768L122.735 11.5156H125.337L132.244 30H128.181ZM127.953 23.1191V26.1025H118.19V23.1191H127.953ZM146.36 27.0293V30H137.055V27.0293H146.36ZM138.286 11.5156V30H134.477V11.5156H138.286ZM165.681 25.1631C165.681 24.833 165.631 24.5368 165.529 24.2744C165.436 24.0036 165.258 23.7581 164.996 23.5381C164.734 23.3096 164.365 23.0853 163.891 22.8652C163.417 22.6452 162.804 22.4167 162.051 22.1797C161.213 21.9089 160.417 21.6042 159.664 21.2656C158.919 20.9271 158.259 20.5335 157.683 20.085C157.116 19.6279 156.668 19.099 156.338 18.498C156.016 17.8971 155.855 17.1989 155.855 16.4033C155.855 15.6331 156.025 14.9349 156.363 14.3086C156.702 13.6738 157.176 13.1322 157.785 12.6836C158.394 12.2266 159.114 11.8753 159.943 11.6299C160.781 11.3844 161.699 11.2617 162.698 11.2617C164.061 11.2617 165.25 11.5072 166.265 11.998C167.281 12.4889 168.068 13.1618 168.627 14.0166C169.194 14.8714 169.477 15.849 169.477 16.9492H165.694C165.694 16.4076 165.58 15.9336 165.351 15.5273C165.131 15.1126 164.793 14.7868 164.336 14.5498C163.887 14.3128 163.32 14.1943 162.635 14.1943C161.974 14.1943 161.424 14.2959 160.984 14.499C160.544 14.6937 160.214 14.9603 159.994 15.2988C159.774 15.6289 159.664 16.0013 159.664 16.416C159.664 16.7292 159.74 17.0127 159.892 17.2666C160.053 17.5205 160.29 17.7575 160.603 17.9775C160.917 18.1976 161.302 18.4049 161.759 18.5996C162.216 18.7943 162.745 18.9847 163.346 19.1709C164.353 19.4756 165.237 19.8184 165.999 20.1992C166.769 20.5801 167.412 21.0075 167.929 21.4814C168.445 21.9554 168.834 22.4928 169.097 23.0938C169.359 23.6947 169.49 24.376 169.49 25.1377C169.49 25.9417 169.334 26.6611 169.02 27.2959C168.707 27.9307 168.254 28.4681 167.662 28.9082C167.07 29.3483 166.363 29.6826 165.542 29.9111C164.721 30.1396 163.803 30.2539 162.787 30.2539C161.873 30.2539 160.972 30.1354 160.083 29.8984C159.194 29.653 158.386 29.2848 157.658 28.7939C156.939 28.3031 156.363 27.6768 155.931 26.915C155.5 26.1533 155.284 25.252 155.284 24.2109H159.105C159.105 24.7865 159.194 25.2731 159.372 25.6709C159.55 26.0687 159.799 26.3903 160.121 26.6357C160.451 26.8812 160.84 27.0589 161.289 27.1689C161.746 27.279 162.245 27.334 162.787 27.334C163.447 27.334 163.989 27.2409 164.412 27.0547C164.844 26.8685 165.161 26.6104 165.364 26.2803C165.576 25.9502 165.681 25.5778 165.681 25.1631ZM179.798 23.4111H175.088V20.4404H179.798C180.526 20.4404 181.118 20.3219 181.576 20.085C182.033 19.8395 182.367 19.501 182.578 19.0693C182.79 18.6377 182.896 18.151 182.896 17.6094C182.896 17.0592 182.79 16.5472 182.578 16.0732C182.367 15.5993 182.033 15.2184 181.576 14.9307C181.118 14.6429 180.526 14.499 179.798 14.499H176.409V30H172.6V11.5156H179.798C181.245 11.5156 182.485 11.778 183.518 12.3027C184.559 12.819 185.354 13.5342 185.905 14.4482C186.455 15.3623 186.73 16.4076 186.73 17.584C186.73 18.7773 186.455 19.8099 185.905 20.6816C185.354 21.5534 184.559 22.2262 183.518 22.7002C182.485 23.1742 181.245 23.4111 179.798 23.4111ZM195.286 14.6768L190.259 30H186.209L193.077 11.5156H195.654L195.286 14.6768ZM199.463 30L194.423 14.6768L194.016 11.5156H196.619L203.525 30H199.463ZM199.234 23.1191V26.1025H189.471V23.1191H199.234ZM216.245 23.8682H220.041C219.965 25.1123 219.622 26.2168 219.013 27.1816C218.412 28.1465 217.57 28.8997 216.487 29.4414C215.412 29.9831 214.117 30.2539 212.602 30.2539C211.417 30.2539 210.355 30.0508 209.415 29.6445C208.476 29.2298 207.672 28.6374 207.003 27.8672C206.343 27.097 205.839 26.166 205.492 25.0742C205.145 23.9824 204.972 22.7594 204.972 21.4053V20.123C204.972 18.7689 205.15 17.5459 205.505 16.4541C205.869 15.3538 206.385 14.4186 207.054 13.6484C207.731 12.8783 208.539 12.2858 209.479 11.8711C210.418 11.4564 211.468 11.249 212.627 11.249C214.168 11.249 215.467 11.5283 216.525 12.0869C217.591 12.6455 218.416 13.4157 219 14.3975C219.593 15.3792 219.948 16.4964 220.067 17.749H216.258C216.216 17.0042 216.068 16.3737 215.814 15.8574C215.56 15.3327 215.175 14.9391 214.658 14.6768C214.151 14.4059 213.474 14.2705 212.627 14.2705C211.992 14.2705 211.438 14.389 210.964 14.626C210.49 14.863 210.092 15.2227 209.771 15.7051C209.449 16.1875 209.208 16.7969 209.047 17.5332C208.895 18.2611 208.819 19.1159 208.819 20.0977V21.4053C208.819 22.3617 208.891 23.2038 209.034 23.9316C209.178 24.651 209.398 25.2604 209.695 25.7598C209.999 26.2507 210.389 26.623 210.863 26.877C211.345 27.1224 211.925 27.2451 212.602 27.2451C213.397 27.2451 214.053 27.1182 214.57 26.8643C215.086 26.6104 215.479 26.2337 215.75 25.7344C216.03 25.235 216.195 24.613 216.245 23.8682ZM235.466 27.0293V30H225.627V27.0293H235.466ZM226.871 11.5156V30H223.062V11.5156H226.871ZM234.183 19.0439V21.9385H225.627V19.0439H234.183ZM235.453 11.5156V14.499H225.627V11.5156H235.453Z" fill="#5D5FEF"/>
<path d="M51.7051 44.1201L53.248 38.8906H53.7314L53.3408 40.4434L51.6953 46H51.2314L51.7051 44.1201ZM49.9131 38.8906L51.2119 44.0713L51.6025 46H51.1191L49.2979 38.8906H49.9131ZM55.8115 44.0713L57.0908 38.8906H57.7061L55.8896 46H55.4062L55.8115 44.0713ZM53.7852 38.8906L55.3086 44.1201L55.7773 46H55.3135L53.7021 40.4434L53.3066 38.8906H53.7852ZM59.3125 38.5V46H58.7314V38.5H59.3125ZM59.1807 43.0312L58.9219 42.8848C58.9414 42.5723 59.0049 42.2793 59.1123 42.0059C59.2197 41.7324 59.3646 41.4915 59.5469 41.2832C59.7324 41.0749 59.9489 40.9121 60.1963 40.7949C60.4469 40.6777 60.7236 40.6191 61.0264 40.6191C61.29 40.6191 61.526 40.6549 61.7344 40.7266C61.9427 40.7982 62.1201 40.9121 62.2666 41.0684C62.4131 41.2246 62.5238 41.4248 62.5986 41.6689C62.6768 41.9131 62.7158 42.2109 62.7158 42.5625V46H62.1299V42.5576C62.1299 42.193 62.0794 41.9082 61.9785 41.7031C61.8776 41.4948 61.7344 41.3467 61.5488 41.2588C61.3633 41.1709 61.1436 41.127 60.8896 41.127C60.6097 41.127 60.3639 41.1888 60.1523 41.3125C59.944 41.4329 59.7682 41.5908 59.625 41.7861C59.485 41.9782 59.3776 42.1849 59.3027 42.4062C59.2279 42.6243 59.1872 42.8327 59.1807 43.0312ZM66.2607 46.0977C65.9157 46.0977 65.5983 46.0342 65.3086 45.9072C65.0221 45.7803 64.7715 45.6012 64.5566 45.3701C64.3451 45.139 64.1807 44.8656 64.0635 44.5498C63.9495 44.2308 63.8926 43.8825 63.8926 43.5049V43.2949C63.8926 42.888 63.9528 42.5202 64.0732 42.1914C64.1937 41.8626 64.3597 41.5811 64.5713 41.3467C64.7829 41.1123 65.0238 40.9333 65.2939 40.8096C65.5674 40.6826 65.8538 40.6191 66.1533 40.6191C66.4886 40.6191 66.7865 40.6794 67.0469 40.7998C67.3073 40.917 67.5254 41.0846 67.7012 41.3027C67.8802 41.5176 68.0153 41.7731 68.1064 42.0693C68.1976 42.3623 68.2432 42.6862 68.2432 43.041V43.3975H64.2441V42.8994H67.6621V42.8311C67.6556 42.5348 67.5954 42.2581 67.4814 42.001C67.3708 41.7406 67.2048 41.529 66.9834 41.3662C66.762 41.2035 66.4854 41.1221 66.1533 41.1221C65.9059 41.1221 65.6781 41.1742 65.4697 41.2783C65.2646 41.3825 65.0872 41.5322 64.9375 41.7275C64.791 41.9196 64.6771 42.1491 64.5957 42.416C64.5176 42.6797 64.4785 42.9727 64.4785 43.2949V43.5049C64.4785 43.7979 64.5208 44.0713 64.6055 44.3252C64.6934 44.5758 64.8171 44.7972 64.9766 44.9893C65.1393 45.1813 65.3314 45.3311 65.5527 45.4385C65.7741 45.5459 66.0182 45.5996 66.2852 45.5996C66.5977 45.5996 66.8743 45.5426 67.1152 45.4287C67.3561 45.3115 67.5726 45.1276 67.7646 44.877L68.1309 45.1602C68.0169 45.3294 67.8737 45.4857 67.7012 45.6289C67.5319 45.7721 67.3285 45.8861 67.0908 45.9707C66.8532 46.0553 66.5765 46.0977 66.2607 46.0977ZM69.9766 41.5908V46H69.3955V40.7168H69.9619L69.9766 41.5908ZM71.8467 40.6777L71.832 41.2148C71.7669 41.2051 71.7035 41.1969 71.6416 41.1904C71.5798 41.1839 71.513 41.1807 71.4414 41.1807C71.1875 41.1807 70.9645 41.2279 70.7725 41.3223C70.5837 41.4134 70.4242 41.542 70.2939 41.708C70.1637 41.8708 70.0645 42.0628 69.9961 42.2842C69.9277 42.5023 69.8887 42.7367 69.8789 42.9873L69.6641 43.0703C69.6641 42.7253 69.6999 42.4046 69.7715 42.1084C69.8431 41.8122 69.9521 41.5534 70.0986 41.332C70.2484 41.1074 70.4355 40.9333 70.6602 40.8096C70.888 40.6826 71.1549 40.6191 71.4609 40.6191C71.5358 40.6191 71.609 40.6257 71.6807 40.6387C71.7555 40.6484 71.8109 40.6615 71.8467 40.6777ZM74.708 46.0977C74.363 46.0977 74.0456 46.0342 73.7559 45.9072C73.4694 45.7803 73.2188 45.6012 73.0039 45.3701C72.7923 45.139 72.6279 44.8656 72.5107 44.5498C72.3968 44.2308 72.3398 43.8825 72.3398 43.5049V43.2949C72.3398 42.888 72.4001 42.5202 72.5205 42.1914C72.641 41.8626 72.807 41.5811 73.0186 41.3467C73.2301 41.1123 73.471 40.9333 73.7412 40.8096C74.0146 40.6826 74.3011 40.6191 74.6006 40.6191C74.9359 40.6191 75.2337 40.6794 75.4941 40.7998C75.7546 40.917 75.9727 41.0846 76.1484 41.3027C76.3275 41.5176 76.4626 41.7731 76.5537 42.0693C76.6449 42.3623 76.6904 42.6862 76.6904 43.041V43.3975H72.6914V42.8994H76.1094V42.8311C76.1029 42.5348 76.0426 42.2581 75.9287 42.001C75.818 41.7406 75.652 41.529 75.4307 41.3662C75.2093 41.2035 74.9326 41.1221 74.6006 41.1221C74.3532 41.1221 74.1253 41.1742 73.917 41.2783C73.7119 41.3825 73.5345 41.5322 73.3848 41.7275C73.2383 41.9196 73.1243 42.1491 73.043 42.416C72.9648 42.6797 72.9258 42.9727 72.9258 43.2949V43.5049C72.9258 43.7979 72.9681 44.0713 73.0527 44.3252C73.1406 44.5758 73.2643 44.7972 73.4238 44.9893C73.5866 45.1813 73.7786 45.3311 74 45.4385C74.2214 45.5459 74.4655 45.5996 74.7324 45.5996C75.0449 45.5996 75.3216 45.5426 75.5625 45.4287C75.8034 45.3115 76.0199 45.1276 76.2119 44.877L76.5781 45.1602C76.4642 45.3294 76.321 45.4857 76.1484 45.6289C75.9792 45.7721 75.7757 45.8861 75.5381 45.9707C75.3005 46.0553 75.0238 46.0977 74.708 46.0977ZM81.8516 45.4727L83.4971 40.7168H84.127L81.8906 46.8496C81.8451 46.9701 81.7865 47.1035 81.7148 47.25C81.6465 47.3965 81.5553 47.5365 81.4414 47.6699C81.3307 47.8066 81.1908 47.9173 81.0215 48.002C80.8555 48.0898 80.652 48.1338 80.4111 48.1338C80.3493 48.1338 80.2695 48.1257 80.1719 48.1094C80.0775 48.0964 80.0091 48.0833 79.9668 48.0703L79.9619 47.5771C79.9977 47.5869 80.0498 47.5951 80.1182 47.6016C80.1865 47.6081 80.2337 47.6113 80.2598 47.6113C80.4714 47.6113 80.6488 47.5755 80.792 47.5039C80.9385 47.4323 81.0605 47.3249 81.1582 47.1816C81.2559 47.0417 81.3421 46.8659 81.417 46.6543L81.8516 45.4727ZM80.3135 40.7168L81.998 45.2529L82.1543 45.8633L81.7295 46.1025L79.6787 40.7168H80.3135ZM84.6396 43.4414V43.2803C84.6396 42.8962 84.695 42.5413 84.8057 42.2158C84.9163 41.8903 85.0742 41.6087 85.2793 41.3711C85.4876 41.1335 85.7367 40.9495 86.0264 40.8193C86.3161 40.6859 86.6383 40.6191 86.9932 40.6191C87.3512 40.6191 87.6751 40.6859 87.9648 40.8193C88.2546 40.9495 88.5036 41.1335 88.7119 41.3711C88.9202 41.6087 89.0798 41.8903 89.1904 42.2158C89.3011 42.5413 89.3564 42.8962 89.3564 43.2803V43.4414C89.3564 43.8255 89.3011 44.1803 89.1904 44.5059C89.0798 44.8281 88.9202 45.1081 88.7119 45.3457C88.5068 45.5833 88.2594 45.7689 87.9697 45.9023C87.68 46.0326 87.3577 46.0977 87.0029 46.0977C86.6449 46.0977 86.321 46.0326 86.0312 45.9023C85.7415 45.7689 85.4925 45.5833 85.2842 45.3457C85.0758 45.1081 84.9163 44.8281 84.8057 44.5059C84.695 44.1803 84.6396 43.8255 84.6396 43.4414ZM85.2207 43.2803V43.4414C85.2207 43.7311 85.2598 44.0062 85.3379 44.2666C85.416 44.5238 85.5299 44.7533 85.6797 44.9551C85.8294 45.1536 86.015 45.3099 86.2363 45.4238C86.4577 45.5378 86.7132 45.5947 87.0029 45.5947C87.2894 45.5947 87.5417 45.5378 87.7598 45.4238C87.9811 45.3099 88.1667 45.1536 88.3164 44.9551C88.4661 44.7533 88.5785 44.5238 88.6533 44.2666C88.7314 44.0062 88.7705 43.7311 88.7705 43.4414V43.2803C88.7705 42.9938 88.7314 42.722 88.6533 42.4648C88.5785 42.2077 88.4645 41.9782 88.3115 41.7764C88.1618 41.5745 87.9762 41.415 87.7549 41.2979C87.5335 41.1807 87.2796 41.1221 86.9932 41.1221C86.7067 41.1221 86.4528 41.1807 86.2314 41.2979C86.0133 41.415 85.8278 41.5745 85.6748 41.7764C85.5251 41.9782 85.4111 42.2077 85.333 42.4648C85.2581 42.722 85.2207 42.9938 85.2207 43.2803ZM93.9512 44.7793V40.7168H94.5371V46H93.9756L93.9512 44.7793ZM94.0586 43.8027L94.3613 43.793C94.3613 44.125 94.3223 44.431 94.2441 44.7109C94.166 44.9909 94.0439 45.235 93.8779 45.4434C93.7119 45.6517 93.4971 45.8128 93.2334 45.9268C92.9697 46.0407 92.6523 46.0977 92.2812 46.0977C92.0241 46.0977 91.7881 46.0618 91.5732 45.9902C91.3617 45.9154 91.1794 45.7982 91.0264 45.6387C90.8734 45.4792 90.7546 45.2725 90.6699 45.0186C90.5885 44.7646 90.5479 44.457 90.5479 44.0957V40.7168H91.1289V44.1055C91.1289 44.3887 91.1598 44.6247 91.2217 44.8135C91.2868 45.0023 91.3747 45.1536 91.4854 45.2676C91.5993 45.3815 91.7295 45.4629 91.876 45.5117C92.0225 45.5605 92.1803 45.585 92.3496 45.585C92.7793 45.585 93.1178 45.502 93.3652 45.3359C93.6159 45.1699 93.7933 44.9518 93.8975 44.6816C94.0049 44.4082 94.0586 44.1152 94.0586 43.8027ZM96.6465 41.5908V46H96.0654V40.7168H96.6318L96.6465 41.5908ZM98.5166 40.6777L98.502 41.2148C98.4368 41.2051 98.3734 41.1969 98.3115 41.1904C98.2497 41.1839 98.1829 41.1807 98.1113 41.1807C97.8574 41.1807 97.6344 41.2279 97.4424 41.3223C97.2536 41.4134 97.0941 41.542 96.9639 41.708C96.8337 41.8708 96.7344 42.0628 96.666 42.2842C96.5977 42.5023 96.5586 42.7367 96.5488 42.9873L96.334 43.0703C96.334 42.7253 96.3698 42.4046 96.4414 42.1084C96.513 41.8122 96.6221 41.5534 96.7686 41.332C96.9183 41.1074 97.1055 40.9333 97.3301 40.8096C97.5579 40.6826 97.8249 40.6191 98.1309 40.6191C98.2057 40.6191 98.279 40.6257 98.3506 40.6387C98.4255 40.6484 98.4808 40.6615 98.5166 40.6777ZM101.866 38.5H102.452V44.9746L102.413 46H101.866V38.5ZM106.129 43.3096V43.4121C106.129 43.806 106.083 44.1673 105.992 44.4961C105.901 44.8249 105.769 45.1097 105.597 45.3506C105.424 45.5882 105.213 45.7721 104.962 45.9023C104.715 46.0326 104.43 46.0977 104.107 46.0977C103.792 46.0977 103.512 46.0488 103.268 45.9512C103.023 45.8503 102.815 45.7087 102.643 45.5264C102.47 45.3408 102.332 45.1243 102.228 44.877C102.123 44.6263 102.05 44.3512 102.008 44.0518V42.748C102.057 42.429 102.135 42.1393 102.242 41.8789C102.35 41.6185 102.488 41.3939 102.657 41.2051C102.83 41.0163 103.035 40.8714 103.272 40.7705C103.513 40.6696 103.788 40.6191 104.098 40.6191C104.42 40.6191 104.706 40.6826 104.957 40.8096C105.211 40.9333 105.424 41.1139 105.597 41.3516C105.769 41.5859 105.901 41.8691 105.992 42.2012C106.083 42.5299 106.129 42.8994 106.129 43.3096ZM105.538 43.4121V43.3096C105.538 43.0003 105.509 42.7139 105.45 42.4502C105.392 42.1865 105.299 41.957 105.172 41.7617C105.048 41.5632 104.889 41.4085 104.693 41.2979C104.498 41.1872 104.264 41.1318 103.99 41.1318C103.71 41.1318 103.471 41.179 103.272 41.2734C103.077 41.3646 102.914 41.4867 102.784 41.6396C102.657 41.7894 102.556 41.9538 102.481 42.1328C102.407 42.3118 102.351 42.4876 102.315 42.6602V44.1787C102.371 44.4229 102.467 44.6523 102.604 44.8672C102.74 45.082 102.924 45.2562 103.155 45.3896C103.386 45.5199 103.668 45.585 104 45.585C104.267 45.585 104.496 45.5296 104.688 45.4189C104.884 45.3083 105.043 45.1553 105.167 44.96C105.294 44.7646 105.387 44.5352 105.445 44.2715C105.507 44.0078 105.538 43.7214 105.538 43.4121ZM110.807 44.7793V40.7168H111.393V46H110.831L110.807 44.7793ZM110.914 43.8027L111.217 43.793C111.217 44.125 111.178 44.431 111.1 44.7109C111.021 44.9909 110.899 45.235 110.733 45.4434C110.567 45.6517 110.353 45.8128 110.089 45.9268C109.825 46.0407 109.508 46.0977 109.137 46.0977C108.88 46.0977 108.644 46.0618 108.429 45.9902C108.217 45.9154 108.035 45.7982 107.882 45.6387C107.729 45.4792 107.61 45.2725 107.525 45.0186C107.444 44.7646 107.403 44.457 107.403 44.0957V40.7168H107.984V44.1055C107.984 44.3887 108.015 44.6247 108.077 44.8135C108.142 45.0023 108.23 45.1536 108.341 45.2676C108.455 45.3815 108.585 45.4629 108.731 45.5117C108.878 45.5605 109.036 45.585 109.205 45.585C109.635 45.585 109.973 45.502 110.221 45.3359C110.471 45.1699 110.649 44.9518 110.753 44.6816C110.86 44.4082 110.914 44.1152 110.914 43.8027ZM116.085 44.6523C116.085 44.5091 116.049 44.3675 115.978 44.2275C115.906 44.0876 115.768 43.959 115.562 43.8418C115.361 43.7246 115.063 43.6253 114.669 43.5439C114.376 43.4788 114.114 43.4056 113.883 43.3242C113.655 43.2428 113.463 43.1452 113.307 43.0312C113.15 42.9173 113.032 42.7806 112.95 42.6211C112.869 42.4616 112.828 42.2728 112.828 42.0547C112.828 41.8594 112.87 41.6755 112.955 41.5029C113.043 41.3271 113.167 41.1742 113.326 41.0439C113.489 40.9105 113.684 40.8063 113.912 40.7314C114.143 40.6566 114.402 40.6191 114.688 40.6191C115.095 40.6191 115.444 40.6891 115.733 40.8291C116.026 40.9658 116.249 41.153 116.402 41.3906C116.559 41.6283 116.637 41.8968 116.637 42.1963H116.056C116.056 42.014 116.002 41.8415 115.895 41.6787C115.79 41.516 115.636 41.3825 115.431 41.2783C115.229 41.1742 114.981 41.1221 114.688 41.1221C114.386 41.1221 114.14 41.1676 113.951 41.2588C113.762 41.3499 113.624 41.4655 113.536 41.6055C113.451 41.7454 113.409 41.8903 113.409 42.04C113.409 42.1572 113.427 42.2646 113.463 42.3623C113.502 42.4567 113.57 42.5446 113.668 42.626C113.769 42.7074 113.912 42.7839 114.098 42.8555C114.283 42.9271 114.524 42.9971 114.82 43.0654C115.247 43.1598 115.595 43.2754 115.865 43.4121C116.139 43.5456 116.34 43.7116 116.471 43.9102C116.601 44.1055 116.666 44.3431 116.666 44.623C116.666 44.8411 116.62 45.0413 116.529 45.2236C116.438 45.4027 116.306 45.5573 116.134 45.6875C115.965 45.8177 115.759 45.9186 115.519 45.9902C115.281 46.0618 115.014 46.0977 114.718 46.0977C114.272 46.0977 113.894 46.0244 113.585 45.8779C113.279 45.7282 113.046 45.5329 112.887 45.292C112.73 45.0479 112.652 44.7891 112.652 44.5156H113.233C113.253 44.7891 113.339 45.0055 113.492 45.165C113.645 45.3213 113.832 45.432 114.054 45.4971C114.278 45.5622 114.5 45.5947 114.718 45.5947C115.017 45.5947 115.268 45.5508 115.47 45.4629C115.672 45.375 115.825 45.2594 115.929 45.1162C116.033 44.973 116.085 44.8184 116.085 44.6523ZM118.639 40.7168V46H118.058V40.7168H118.639ZM117.955 39.1885C117.955 39.0778 117.989 38.985 118.058 38.9102C118.129 38.832 118.227 38.793 118.351 38.793C118.474 38.793 118.572 38.832 118.644 38.9102C118.718 38.985 118.756 39.0778 118.756 39.1885C118.756 39.2959 118.718 39.3887 118.644 39.4668C118.572 39.5417 118.474 39.5791 118.351 39.5791C118.227 39.5791 118.129 39.5417 118.058 39.4668C117.989 39.3887 117.955 39.2959 117.955 39.1885ZM120.816 41.8447V46H120.235V40.7168H120.792L120.816 41.8447ZM120.685 43.0312L120.426 42.8848C120.445 42.5723 120.509 42.2793 120.616 42.0059C120.724 41.7324 120.868 41.4915 121.051 41.2832C121.236 41.0749 121.453 40.9121 121.7 40.7949C121.951 40.6777 122.228 40.6191 122.53 40.6191C122.794 40.6191 123.03 40.6549 123.238 40.7266C123.447 40.7982 123.624 40.9121 123.771 41.0684C123.917 41.2246 124.028 41.4248 124.103 41.6689C124.181 41.9131 124.22 42.2109 124.22 42.5625V46H123.634V42.5576C123.634 42.193 123.583 41.9082 123.482 41.7031C123.382 41.4948 123.238 41.3467 123.053 41.2588C122.867 41.1709 122.647 41.127 122.394 41.127C122.114 41.127 121.868 41.1888 121.656 41.3125C121.448 41.4329 121.272 41.5908 121.129 41.7861C120.989 41.9782 120.882 42.1849 120.807 42.4062C120.732 42.6243 120.691 42.8327 120.685 43.0312ZM127.774 46.0977C127.429 46.0977 127.112 46.0342 126.822 45.9072C126.536 45.7803 126.285 45.6012 126.07 45.3701C125.859 45.139 125.694 44.8656 125.577 44.5498C125.463 44.2308 125.406 43.8825 125.406 43.5049V43.2949C125.406 42.888 125.466 42.5202 125.587 42.1914C125.707 41.8626 125.873 41.5811 126.085 41.3467C126.297 41.1123 126.537 40.9333 126.808 40.8096C127.081 40.6826 127.368 40.6191 127.667 40.6191C128.002 40.6191 128.3 40.6794 128.561 40.7998C128.821 40.917 129.039 41.0846 129.215 41.3027C129.394 41.5176 129.529 41.7731 129.62 42.0693C129.711 42.3623 129.757 42.6862 129.757 43.041V43.3975H125.758V42.8994H129.176V42.8311C129.169 42.5348 129.109 42.2581 128.995 42.001C128.884 41.7406 128.718 41.529 128.497 41.3662C128.276 41.2035 127.999 41.1221 127.667 41.1221C127.42 41.1221 127.192 41.1742 126.983 41.2783C126.778 41.3825 126.601 41.5322 126.451 41.7275C126.305 41.9196 126.191 42.1491 126.109 42.416C126.031 42.6797 125.992 42.9727 125.992 43.2949V43.5049C125.992 43.7979 126.035 44.0713 126.119 44.3252C126.207 44.5758 126.331 44.7972 126.49 44.9893C126.653 45.1813 126.845 45.3311 127.066 45.4385C127.288 45.5459 127.532 45.5996 127.799 45.5996C128.111 45.5996 128.388 45.5426 128.629 45.4287C128.87 45.3115 129.086 45.1276 129.278 44.877L129.645 45.1602C129.531 45.3294 129.387 45.4857 129.215 45.6289C129.046 45.7721 128.842 45.8861 128.604 45.9707C128.367 46.0553 128.09 46.0977 127.774 46.0977ZM134.073 44.6523C134.073 44.5091 134.037 44.3675 133.966 44.2275C133.894 44.0876 133.756 43.959 133.551 43.8418C133.349 43.7246 133.051 43.6253 132.657 43.5439C132.364 43.4788 132.102 43.4056 131.871 43.3242C131.643 43.2428 131.451 43.1452 131.295 43.0312C131.139 42.9173 131.02 42.7806 130.938 42.6211C130.857 42.4616 130.816 42.2728 130.816 42.0547C130.816 41.8594 130.859 41.6755 130.943 41.5029C131.031 41.3271 131.155 41.1742 131.314 41.0439C131.477 40.9105 131.673 40.8063 131.9 40.7314C132.132 40.6566 132.39 40.6191 132.677 40.6191C133.084 40.6191 133.432 40.6891 133.722 40.8291C134.015 40.9658 134.238 41.153 134.391 41.3906C134.547 41.6283 134.625 41.8968 134.625 42.1963H134.044C134.044 42.014 133.99 41.8415 133.883 41.6787C133.779 41.516 133.624 41.3825 133.419 41.2783C133.217 41.1742 132.97 41.1221 132.677 41.1221C132.374 41.1221 132.128 41.1676 131.939 41.2588C131.751 41.3499 131.612 41.4655 131.524 41.6055C131.44 41.7454 131.397 41.8903 131.397 42.04C131.397 42.1572 131.415 42.2646 131.451 42.3623C131.49 42.4567 131.559 42.5446 131.656 42.626C131.757 42.7074 131.9 42.7839 132.086 42.8555C132.271 42.9271 132.512 42.9971 132.809 43.0654C133.235 43.1598 133.583 43.2754 133.854 43.4121C134.127 43.5456 134.329 43.7116 134.459 43.9102C134.589 44.1055 134.654 44.3431 134.654 44.623C134.654 44.8411 134.609 45.0413 134.518 45.2236C134.426 45.4027 134.295 45.5573 134.122 45.6875C133.953 45.8177 133.748 45.9186 133.507 45.9902C133.269 46.0618 133.002 46.0977 132.706 46.0977C132.26 46.0977 131.882 46.0244 131.573 45.8779C131.267 45.7282 131.035 45.5329 130.875 45.292C130.719 45.0479 130.641 44.7891 130.641 44.5156H131.222C131.241 44.7891 131.327 45.0055 131.48 45.165C131.633 45.3213 131.821 45.432 132.042 45.4971C132.267 45.5622 132.488 45.5947 132.706 45.5947C133.006 45.5947 133.256 45.5508 133.458 45.4629C133.66 45.375 133.813 45.2594 133.917 45.1162C134.021 44.973 134.073 44.8184 134.073 44.6523ZM139.142 44.6523C139.142 44.5091 139.106 44.3675 139.034 44.2275C138.963 44.0876 138.824 43.959 138.619 43.8418C138.417 43.7246 138.119 43.6253 137.726 43.5439C137.433 43.4788 137.171 43.4056 136.939 43.3242C136.712 43.2428 136.52 43.1452 136.363 43.0312C136.207 42.9173 136.088 42.7806 136.007 42.6211C135.925 42.4616 135.885 42.2728 135.885 42.0547C135.885 41.8594 135.927 41.6755 136.012 41.5029C136.1 41.3271 136.223 41.1742 136.383 41.0439C136.546 40.9105 136.741 40.8063 136.969 40.7314C137.2 40.6566 137.459 40.6191 137.745 40.6191C138.152 40.6191 138.5 40.6891 138.79 40.8291C139.083 40.9658 139.306 41.153 139.459 41.3906C139.615 41.6283 139.693 41.8968 139.693 42.1963H139.112C139.112 42.014 139.059 41.8415 138.951 41.6787C138.847 41.516 138.692 41.3825 138.487 41.2783C138.285 41.1742 138.038 41.1221 137.745 41.1221C137.442 41.1221 137.197 41.1676 137.008 41.2588C136.819 41.3499 136.681 41.4655 136.593 41.6055C136.508 41.7454 136.466 41.8903 136.466 42.04C136.466 42.1572 136.484 42.2646 136.52 42.3623C136.559 42.4567 136.627 42.5446 136.725 42.626C136.826 42.7074 136.969 42.7839 137.154 42.8555C137.34 42.9271 137.581 42.9971 137.877 43.0654C138.303 43.1598 138.652 43.2754 138.922 43.4121C139.195 43.5456 139.397 43.7116 139.527 43.9102C139.658 44.1055 139.723 44.3431 139.723 44.623C139.723 44.8411 139.677 45.0413 139.586 45.2236C139.495 45.4027 139.363 45.5573 139.19 45.6875C139.021 45.8177 138.816 45.9186 138.575 45.9902C138.338 46.0618 138.071 46.0977 137.774 46.0977C137.328 46.0977 136.951 46.0244 136.642 45.8779C136.336 45.7282 136.103 45.5329 135.943 45.292C135.787 45.0479 135.709 44.7891 135.709 44.5156H136.29C136.31 44.7891 136.396 45.0055 136.549 45.165C136.702 45.3213 136.889 45.432 137.11 45.4971C137.335 45.5622 137.556 45.5947 137.774 45.5947C138.074 45.5947 138.325 45.5508 138.526 45.4629C138.728 45.375 138.881 45.2594 138.985 45.1162C139.09 44.973 139.142 44.8184 139.142 44.6523ZM145.484 40.7168V41.1953H142.838V40.7168H145.484ZM143.81 39.3594H144.391V44.7158C144.391 44.96 144.423 45.1439 144.488 45.2676C144.553 45.3913 144.638 45.4743 144.742 45.5166C144.846 45.5589 144.959 45.5801 145.079 45.5801C145.167 45.5801 145.252 45.5752 145.333 45.5654C145.414 45.5524 145.488 45.5394 145.553 45.5264L145.577 46.0195C145.506 46.0423 145.413 46.0602 145.299 46.0732C145.185 46.0895 145.071 46.0977 144.957 46.0977C144.732 46.0977 144.534 46.057 144.361 45.9756C144.189 45.891 144.054 45.7477 143.956 45.5459C143.858 45.3408 143.81 45.0625 143.81 44.7109V39.3594ZM149.923 45.0527V42.3281C149.923 42.0775 149.871 41.861 149.767 41.6787C149.662 41.4964 149.509 41.3564 149.308 41.2588C149.106 41.1611 148.857 41.1123 148.561 41.1123C148.287 41.1123 148.043 41.1611 147.828 41.2588C147.617 41.3532 147.449 41.4818 147.325 41.6445C147.205 41.804 147.145 41.9814 147.145 42.1768L146.559 42.1719C146.559 41.9733 146.607 41.7812 146.705 41.5957C146.803 41.4102 146.941 41.2441 147.12 41.0977C147.299 40.9512 147.512 40.8356 147.76 40.751C148.01 40.6631 148.285 40.6191 148.585 40.6191C148.963 40.6191 149.295 40.6826 149.581 40.8096C149.871 40.9365 150.097 41.127 150.26 41.3809C150.423 41.6348 150.504 41.9538 150.504 42.3379V44.8916C150.504 45.0739 150.517 45.2627 150.543 45.458C150.572 45.6533 150.613 45.8145 150.665 45.9414V46H150.045C150.006 45.8828 149.975 45.7363 149.952 45.5605C149.933 45.3815 149.923 45.2122 149.923 45.0527ZM150.06 42.9238L150.069 43.373H148.922C148.622 43.373 148.354 43.4007 148.116 43.4561C147.882 43.5081 147.683 43.5863 147.521 43.6904C147.358 43.7913 147.232 43.9134 147.145 44.0566C147.06 44.1999 147.018 44.3626 147.018 44.5449C147.018 44.7337 147.065 44.9062 147.159 45.0625C147.257 45.2188 147.394 45.3441 147.569 45.4385C147.748 45.5296 147.96 45.5752 148.204 45.5752C148.53 45.5752 148.816 45.515 149.063 45.3945C149.314 45.2741 149.521 45.1162 149.684 44.9209C149.846 44.7256 149.955 44.5124 150.011 44.2812L150.265 44.6182C150.222 44.7809 150.144 44.9486 150.03 45.1211C149.92 45.2904 149.775 45.4499 149.596 45.5996C149.417 45.7461 149.205 45.8665 148.961 45.9609C148.72 46.0521 148.447 46.0977 148.141 46.0977C147.796 46.0977 147.494 46.0326 147.237 45.9023C146.983 45.7721 146.785 45.5947 146.642 45.3701C146.502 45.1423 146.432 44.8851 146.432 44.5986C146.432 44.3382 146.487 44.1055 146.598 43.9004C146.708 43.6921 146.868 43.5163 147.076 43.373C147.288 43.2266 147.542 43.1159 147.838 43.041C148.137 42.9629 148.473 42.9238 148.844 42.9238H150.06ZM152.652 38.5V46H152.071V38.5H152.652ZM155.968 40.7168L153.497 43.168L152.447 44.1836L152.359 43.6123L153.204 42.6992L155.23 40.7168H155.968ZM155.46 46L153.253 43.2559L153.575 42.7529L156.163 46H155.46ZM158.917 46.0977C158.572 46.0977 158.255 46.0342 157.965 45.9072C157.678 45.7803 157.428 45.6012 157.213 45.3701C157.001 45.139 156.837 44.8656 156.72 44.5498C156.606 44.2308 156.549 43.8825 156.549 43.5049V43.2949C156.549 42.888 156.609 42.5202 156.729 42.1914C156.85 41.8626 157.016 41.5811 157.228 41.3467C157.439 41.1123 157.68 40.9333 157.95 40.8096C158.224 40.6826 158.51 40.6191 158.81 40.6191C159.145 40.6191 159.443 40.6794 159.703 40.7998C159.964 40.917 160.182 41.0846 160.357 41.3027C160.536 41.5176 160.672 41.7731 160.763 42.0693C160.854 42.3623 160.899 42.6862 160.899 43.041V43.3975H156.9V42.8994H160.318V42.8311C160.312 42.5348 160.252 42.2581 160.138 42.001C160.027 41.7406 159.861 41.529 159.64 41.3662C159.418 41.2035 159.142 41.1221 158.81 41.1221C158.562 41.1221 158.334 41.1742 158.126 41.2783C157.921 41.3825 157.743 41.5322 157.594 41.7275C157.447 41.9196 157.333 42.1491 157.252 42.416C157.174 42.6797 157.135 42.9727 157.135 43.2949V43.5049C157.135 43.7979 157.177 44.0713 157.262 44.3252C157.35 44.5758 157.473 44.7972 157.633 44.9893C157.796 45.1813 157.988 45.3311 158.209 45.4385C158.43 45.5459 158.674 45.5996 158.941 45.5996C159.254 45.5996 159.531 45.5426 159.771 45.4287C160.012 45.3115 160.229 45.1276 160.421 44.877L160.787 45.1602C160.673 45.3294 160.53 45.4857 160.357 45.6289C160.188 45.7721 159.985 45.8861 159.747 45.9707C159.509 46.0553 159.233 46.0977 158.917 46.0977ZM165.216 44.6523C165.216 44.5091 165.18 44.3675 165.108 44.2275C165.037 44.0876 164.898 43.959 164.693 43.8418C164.492 43.7246 164.194 43.6253 163.8 43.5439C163.507 43.4788 163.245 43.4056 163.014 43.3242C162.786 43.2428 162.594 43.1452 162.438 43.0312C162.281 42.9173 162.162 42.7806 162.081 42.6211C162 42.4616 161.959 42.2728 161.959 42.0547C161.959 41.8594 162.001 41.6755 162.086 41.5029C162.174 41.3271 162.298 41.1742 162.457 41.0439C162.62 40.9105 162.815 40.8063 163.043 40.7314C163.274 40.6566 163.533 40.6191 163.819 40.6191C164.226 40.6191 164.575 40.6891 164.864 40.8291C165.157 40.9658 165.38 41.153 165.533 41.3906C165.689 41.6283 165.768 41.8968 165.768 42.1963H165.187C165.187 42.014 165.133 41.8415 165.025 41.6787C164.921 41.516 164.767 41.3825 164.562 41.2783C164.36 41.1742 164.112 41.1221 163.819 41.1221C163.517 41.1221 163.271 41.1676 163.082 41.2588C162.893 41.3499 162.755 41.4655 162.667 41.6055C162.582 41.7454 162.54 41.8903 162.54 42.04C162.54 42.1572 162.558 42.2646 162.594 42.3623C162.633 42.4567 162.701 42.5446 162.799 42.626C162.9 42.7074 163.043 42.7839 163.229 42.8555C163.414 42.9271 163.655 42.9971 163.951 43.0654C164.378 43.1598 164.726 43.2754 164.996 43.4121C165.27 43.5456 165.471 43.7116 165.602 43.9102C165.732 44.1055 165.797 44.3431 165.797 44.623C165.797 44.8411 165.751 45.0413 165.66 45.2236C165.569 45.4027 165.437 45.5573 165.265 45.6875C165.095 45.8177 164.89 45.9186 164.649 45.9902C164.412 46.0618 164.145 46.0977 163.849 46.0977C163.403 46.0977 163.025 46.0244 162.716 45.8779C162.41 45.7282 162.177 45.5329 162.018 45.292C161.861 45.0479 161.783 44.7891 161.783 44.5156H162.364C162.384 44.7891 162.47 45.0055 162.623 45.165C162.776 45.3213 162.963 45.432 163.185 45.4971C163.409 45.5622 163.631 45.5947 163.849 45.5947C164.148 45.5947 164.399 45.5508 164.601 45.4629C164.802 45.375 164.955 45.2594 165.06 45.1162C165.164 44.973 165.216 44.8184 165.216 44.6523ZM170.562 46H169.981V40.0625C169.981 39.7012 170.045 39.3968 170.172 39.1494C170.299 38.902 170.479 38.7148 170.714 38.5879C170.951 38.4609 171.238 38.3975 171.573 38.3975C171.723 38.3975 171.899 38.4121 172.101 38.4414C172.306 38.4674 172.521 38.5033 172.745 38.5488C172.97 38.5944 173.188 38.6432 173.399 38.6953L173.097 39.1152C172.813 39.0599 172.548 39.0127 172.301 38.9736C172.053 38.9346 171.824 38.915 171.612 38.915C171.391 38.915 171.202 38.9606 171.046 39.0518C170.89 39.1396 170.769 39.2682 170.685 39.4375C170.603 39.6068 170.562 39.8151 170.562 40.0625V46ZM172.818 46V38.6953H173.399V46H172.818ZM171.822 40.7168V41.1953H169.107V40.7168H171.822ZM175.66 40.7168V46H175.079V40.7168H175.66ZM174.977 39.1885C174.977 39.0778 175.011 38.985 175.079 38.9102C175.151 38.832 175.248 38.793 175.372 38.793C175.496 38.793 175.593 38.832 175.665 38.9102C175.74 38.985 175.777 39.0778 175.777 39.1885C175.777 39.2959 175.74 39.3887 175.665 39.4668C175.593 39.5417 175.496 39.5791 175.372 39.5791C175.248 39.5791 175.151 39.5417 175.079 39.4668C175.011 39.3887 174.977 39.2959 174.977 39.1885ZM180.733 40.7168H181.275V45.9072C181.275 46.3662 181.188 46.7601 181.012 47.0889C180.839 47.4176 180.593 47.6699 180.274 47.8457C179.959 48.0215 179.586 48.1094 179.156 48.1094C178.938 48.1094 178.714 48.0752 178.482 48.0068C178.255 47.9417 178.038 47.8408 177.833 47.7041C177.631 47.5706 177.459 47.4046 177.315 47.2061L177.643 46.8496C177.857 47.11 178.087 47.3005 178.331 47.4209C178.575 47.5446 178.839 47.6064 179.122 47.6064C179.457 47.6064 179.741 47.5397 179.972 47.4062C180.206 47.2728 180.383 47.0807 180.504 46.8301C180.628 46.5794 180.689 46.2783 180.689 45.9268V41.8789L180.733 40.7168ZM177.022 43.4121V43.3096C177.022 42.8994 177.068 42.5299 177.159 42.2012C177.254 41.8691 177.389 41.5859 177.564 41.3516C177.74 41.1139 177.953 40.9333 178.204 40.8096C178.458 40.6826 178.744 40.6191 179.063 40.6191C179.369 40.6191 179.641 40.6696 179.879 40.7705C180.117 40.8714 180.322 41.0163 180.494 41.2051C180.667 41.3939 180.805 41.6185 180.909 41.8789C181.017 42.1393 181.095 42.429 181.144 42.748V44.0518C181.104 44.3512 181.033 44.6263 180.929 44.877C180.825 45.1243 180.686 45.3408 180.514 45.5264C180.341 45.7087 180.133 45.8503 179.889 45.9512C179.648 46.0488 179.369 46.0977 179.054 46.0977C178.738 46.0977 178.455 46.0326 178.204 45.9023C177.953 45.7721 177.74 45.5882 177.564 45.3506C177.389 45.1097 177.254 44.8249 177.159 44.4961C177.068 44.1673 177.022 43.806 177.022 43.4121ZM177.608 43.3096V43.4121C177.608 43.7214 177.639 44.0078 177.701 44.2715C177.763 44.5352 177.857 44.7646 177.984 44.96C178.111 45.1553 178.272 45.3083 178.468 45.4189C178.663 45.5296 178.893 45.585 179.156 45.585C179.492 45.585 179.773 45.5215 180.001 45.3945C180.229 45.2643 180.41 45.0934 180.543 44.8818C180.676 44.667 180.774 44.4326 180.836 44.1787V42.6602C180.8 42.4876 180.745 42.3118 180.67 42.1328C180.598 41.9538 180.497 41.7894 180.367 41.6396C180.24 41.4867 180.077 41.3646 179.879 41.2734C179.684 41.179 179.446 41.1318 179.166 41.1318C178.899 41.1318 178.666 41.1872 178.468 41.2979C178.272 41.4085 178.111 41.5632 177.984 41.7617C177.857 41.957 177.763 42.1865 177.701 42.4502C177.639 42.7139 177.608 43.0003 177.608 43.3096ZM183.385 38.5V46H182.804V38.5H183.385ZM183.253 43.0312L182.994 42.8848C183.014 42.5723 183.077 42.2793 183.185 42.0059C183.292 41.7324 183.437 41.4915 183.619 41.2832C183.805 41.0749 184.021 40.9121 184.269 40.7949C184.519 40.6777 184.796 40.6191 185.099 40.6191C185.362 40.6191 185.598 40.6549 185.807 40.7266C186.015 40.7982 186.192 40.9121 186.339 41.0684C186.485 41.2246 186.596 41.4248 186.671 41.6689C186.749 41.9131 186.788 42.2109 186.788 42.5625V46H186.202V42.5576C186.202 42.193 186.152 41.9082 186.051 41.7031C185.95 41.4948 185.807 41.3467 185.621 41.2588C185.436 41.1709 185.216 41.127 184.962 41.127C184.682 41.127 184.436 41.1888 184.225 41.3125C184.016 41.4329 183.84 41.5908 183.697 41.7861C183.557 41.9782 183.45 42.1849 183.375 42.4062C183.3 42.6243 183.259 42.8327 183.253 43.0312ZM190.289 40.7168V41.1953H187.643V40.7168H190.289ZM188.614 39.3594H189.195V44.7158C189.195 44.96 189.228 45.1439 189.293 45.2676C189.358 45.3913 189.443 45.4743 189.547 45.5166C189.651 45.5589 189.763 45.5801 189.884 45.5801C189.972 45.5801 190.056 45.5752 190.138 45.5654C190.219 45.5524 190.292 45.5394 190.357 45.5264L190.382 46.0195C190.31 46.0423 190.217 46.0602 190.104 46.0732C189.99 46.0895 189.876 46.0977 189.762 46.0977C189.537 46.0977 189.339 46.057 189.166 45.9756C188.993 45.891 188.858 45.7477 188.761 45.5459C188.663 45.3408 188.614 45.0625 188.614 44.7109V39.3594ZM191.461 45.6436C191.461 45.5296 191.497 45.4336 191.568 45.3555C191.643 45.2741 191.744 45.2334 191.871 45.2334C192.001 45.2334 192.104 45.2725 192.179 45.3506C192.254 45.4287 192.291 45.5264 192.291 45.6436C192.291 45.7542 192.254 45.8486 192.179 45.9268C192.104 46.0049 192.001 46.0439 191.871 46.0439C191.744 46.0439 191.643 46.0049 191.568 45.9268C191.497 45.8486 191.461 45.7542 191.461 45.6436Z" fill="#828489"/>
</svg>
